<?xml version="1.0" encoding="utf-8" standalone="no"?>
<!DOCTYPE svg PUBLIC "-//W3C//DTD SVG 1.1//EN"
  "http://www.w3.org/Graphics/SVG/1.1/DTD/svg11.dtd">
<!-- Created with matplotlib (http://matplotlib.org/) -->
<svg height="447.954375pt" version="1.1" viewBox="0 0 602.940625 447.954375" width="602.940625pt" xmlns="http://www.w3.org/2000/svg" xmlns:xlink="http://www.w3.org/1999/xlink">
 <defs>
  <style type="text/css">
*{stroke-linecap:butt;stroke-linejoin:round;}
  </style>
 </defs>
 <g id="figure_1">
  <g id="patch_1">
   <path d="M 0 447.954375 
L 602.940625 447.954375 
L 602.940625 0 
L 0 0 
z
" style="fill:#ffffff;"/>
  </g>
  <g id="axes_1">
   <g id="patch_2">
    <path d="M 34.240625 410.398125 
L 592.240625 410.398125 
L 592.240625 22.318125 
L 34.240625 22.318125 
z
" style="fill:#ffffff;"/>
   </g>
   <g id="matplotlib.axis_1">
    <g id="xtick_1">
     <g id="line2d_1">
      <defs>
       <path d="M 0 0 
L 0 3.5 
" id="mad66181275" style="stroke:#000000;stroke-width:0.8;"/>
      </defs>
      <g>
       <use style="stroke:#000000;stroke-width:0.8;" x="34.240625" xlink:href="#mad66181275" y="410.398125"/>
      </g>
     </g>
     <g id="text_1">
      <!-- 0 -->
      <defs>
       <path d="M 31.78125 66.40625 
Q 24.171875 66.40625 20.328125 58.90625 
Q 16.5 51.421875 16.5 36.375 
Q 16.5 21.390625 20.328125 13.890625 
Q 24.171875 6.390625 31.78125 6.390625 
Q 39.453125 6.390625 43.28125 13.890625 
Q 47.125 21.390625 47.125 36.375 
Q 47.125 51.421875 43.28125 58.90625 
Q 39.453125 66.40625 31.78125 66.40625 
z
M 31.78125 74.21875 
Q 44.046875 74.21875 50.515625 64.515625 
Q 56.984375 54.828125 56.984375 36.375 
Q 56.984375 17.96875 50.515625 8.265625 
Q 44.046875 -1.421875 31.78125 -1.421875 
Q 19.53125 -1.421875 13.0625 8.265625 
Q 6.59375 17.96875 6.59375 36.375 
Q 6.59375 54.828125 13.0625 64.515625 
Q 19.53125 74.21875 31.78125 74.21875 
z
" id="DejaVuSans-30"/>
      </defs>
      <g transform="translate(31.059375 424.996562)scale(0.1 -0.1)">
       <use xlink:href="#DejaVuSans-30"/>
      </g>
     </g>
    </g>
    <g id="xtick_2">
     <g id="line2d_2">
      <g>
       <use style="stroke:#000000;stroke-width:0.8;" x="109.64603" xlink:href="#mad66181275" y="410.398125"/>
      </g>
     </g>
     <g id="text_2">
      <!-- 25 -->
      <defs>
       <path d="M 19.1875 8.296875 
L 53.609375 8.296875 
L 53.609375 0 
L 7.328125 0 
L 7.328125 8.296875 
Q 12.9375 14.109375 22.625 23.890625 
Q 32.328125 33.6875 34.8125 36.53125 
Q 39.546875 41.84375 41.421875 45.53125 
Q 43.3125 49.21875 43.3125 52.78125 
Q 43.3125 58.59375 39.234375 62.25 
Q 35.15625 65.921875 28.609375 65.921875 
Q 23.96875 65.921875 18.8125 64.3125 
Q 13.671875 62.703125 7.8125 59.421875 
L 7.8125 69.390625 
Q 13.765625 71.78125 18.9375 73 
Q 24.125 74.21875 28.421875 74.21875 
Q 39.75 74.21875 46.484375 68.546875 
Q 53.21875 62.890625 53.21875 53.421875 
Q 53.21875 48.921875 51.53125 44.890625 
Q 49.859375 40.875 45.40625 35.40625 
Q 44.1875 33.984375 37.640625 27.21875 
Q 31.109375 20.453125 19.1875 8.296875 
z
" id="DejaVuSans-32"/>
       <path d="M 10.796875 72.90625 
L 49.515625 72.90625 
L 49.515625 64.59375 
L 19.828125 64.59375 
L 19.828125 46.734375 
Q 21.96875 47.46875 24.109375 47.828125 
Q 26.265625 48.1875 28.421875 48.1875 
Q 40.625 48.1875 47.75 41.5 
Q 54.890625 34.8125 54.890625 23.390625 
Q 54.890625 11.625 47.5625 5.09375 
Q 40.234375 -1.421875 26.90625 -1.421875 
Q 22.3125 -1.421875 17.546875 -0.640625 
Q 12.796875 0.140625 7.71875 1.703125 
L 7.71875 11.625 
Q 12.109375 9.234375 16.796875 8.0625 
Q 21.484375 6.890625 26.703125 6.890625 
Q 35.15625 6.890625 40.078125 11.328125 
Q 45.015625 15.765625 45.015625 23.390625 
Q 45.015625 31 40.078125 35.4375 
Q 35.15625 39.890625 26.703125 39.890625 
Q 22.75 39.890625 18.8125 39.015625 
Q 14.890625 38.140625 10.796875 36.28125 
z
" id="DejaVuSans-35"/>
      </defs>
      <g transform="translate(103.28353 424.996562)scale(0.1 -0.1)">
       <use xlink:href="#DejaVuSans-32"/>
       <use x="63.623047" xlink:href="#DejaVuSans-35"/>
      </g>
     </g>
    </g>
    <g id="xtick_3">
     <g id="line2d_3">
      <g>
       <use style="stroke:#000000;stroke-width:0.8;" x="185.051436" xlink:href="#mad66181275" y="410.398125"/>
      </g>
     </g>
     <g id="text_3">
      <!-- 50 -->
      <g transform="translate(178.688936 424.996562)scale(0.1 -0.1)">
       <use xlink:href="#DejaVuSans-35"/>
       <use x="63.623047" xlink:href="#DejaVuSans-30"/>
      </g>
     </g>
    </g>
    <g id="xtick_4">
     <g id="line2d_4">
      <g>
       <use style="stroke:#000000;stroke-width:0.8;" x="260.456841" xlink:href="#mad66181275" y="410.398125"/>
      </g>
     </g>
     <g id="text_4">
      <!-- 75 -->
      <defs>
       <path d="M 8.203125 72.90625 
L 55.078125 72.90625 
L 55.078125 68.703125 
L 28.609375 0 
L 18.3125 0 
L 43.21875 64.59375 
L 8.203125 64.59375 
z
" id="DejaVuSans-37"/>
      </defs>
      <g transform="translate(254.094341 424.996562)scale(0.1 -0.1)">
       <use xlink:href="#DejaVuSans-37"/>
       <use x="63.623047" xlink:href="#DejaVuSans-35"/>
      </g>
     </g>
    </g>
    <g id="xtick_5">
     <g id="line2d_5">
      <g>
       <use style="stroke:#000000;stroke-width:0.8;" x="335.862247" xlink:href="#mad66181275" y="410.398125"/>
      </g>
     </g>
     <g id="text_5">
      <!-- 100 -->
      <defs>
       <path d="M 12.40625 8.296875 
L 28.515625 8.296875 
L 28.515625 63.921875 
L 10.984375 60.40625 
L 10.984375 69.390625 
L 28.421875 72.90625 
L 38.28125 72.90625 
L 38.28125 8.296875 
L 54.390625 8.296875 
L 54.390625 0 
L 12.40625 0 
z
" id="DejaVuSans-31"/>
      </defs>
      <g transform="translate(326.318497 424.996562)scale(0.1 -0.1)">
       <use xlink:href="#DejaVuSans-31"/>
       <use x="63.623047" xlink:href="#DejaVuSans-30"/>
       <use x="127.246094" xlink:href="#DejaVuSans-30"/>
      </g>
     </g>
    </g>
    <g id="xtick_6">
     <g id="line2d_6">
      <g>
       <use style="stroke:#000000;stroke-width:0.8;" x="411.267652" xlink:href="#mad66181275" y="410.398125"/>
      </g>
     </g>
     <g id="text_6">
      <!-- 125 -->
      <g transform="translate(401.723902 424.996562)scale(0.1 -0.1)">
       <use xlink:href="#DejaVuSans-31"/>
       <use x="63.623047" xlink:href="#DejaVuSans-32"/>
       <use x="127.246094" xlink:href="#DejaVuSans-35"/>
      </g>
     </g>
    </g>
    <g id="xtick_7">
     <g id="line2d_7">
      <g>
       <use style="stroke:#000000;stroke-width:0.8;" x="486.673057" xlink:href="#mad66181275" y="410.398125"/>
      </g>
     </g>
     <g id="text_7">
      <!-- 150 -->
      <g transform="translate(477.129307 424.996562)scale(0.1 -0.1)">
       <use xlink:href="#DejaVuSans-31"/>
       <use x="63.623047" xlink:href="#DejaVuSans-35"/>
       <use x="127.246094" xlink:href="#DejaVuSans-30"/>
      </g>
     </g>
    </g>
    <g id="xtick_8">
     <g id="line2d_8">
      <g>
       <use style="stroke:#000000;stroke-width:0.8;" x="562.078463" xlink:href="#mad66181275" y="410.398125"/>
      </g>
     </g>
     <g id="text_8">
      <!-- 175 -->
      <g transform="translate(552.534713 424.996562)scale(0.1 -0.1)">
       <use xlink:href="#DejaVuSans-31"/>
       <use x="63.623047" xlink:href="#DejaVuSans-37"/>
       <use x="127.246094" xlink:href="#DejaVuSans-35"/>
      </g>
     </g>
    </g>
    <g id="text_9">
     <!-- Sample block -->
     <defs>
      <path d="M 53.515625 70.515625 
L 53.515625 60.890625 
Q 47.90625 63.578125 42.921875 64.890625 
Q 37.9375 66.21875 33.296875 66.21875 
Q 25.25 66.21875 20.875 63.09375 
Q 16.5 59.96875 16.5 54.203125 
Q 16.5 49.359375 19.40625 46.890625 
Q 22.3125 44.4375 30.421875 42.921875 
L 36.375 41.703125 
Q 47.40625 39.59375 52.65625 34.296875 
Q 57.90625 29 57.90625 20.125 
Q 57.90625 9.515625 50.796875 4.046875 
Q 43.703125 -1.421875 29.984375 -1.421875 
Q 24.8125 -1.421875 18.96875 -0.25 
Q 13.140625 0.921875 6.890625 3.21875 
L 6.890625 13.375 
Q 12.890625 10.015625 18.65625 8.296875 
Q 24.421875 6.59375 29.984375 6.59375 
Q 38.421875 6.59375 43.015625 9.90625 
Q 47.609375 13.234375 47.609375 19.390625 
Q 47.609375 24.75 44.3125 27.78125 
Q 41.015625 30.8125 33.5 32.328125 
L 27.484375 33.5 
Q 16.453125 35.6875 11.515625 40.375 
Q 6.59375 45.0625 6.59375 53.421875 
Q 6.59375 63.09375 13.40625 68.65625 
Q 20.21875 74.21875 32.171875 74.21875 
Q 37.3125 74.21875 42.625 73.28125 
Q 47.953125 72.359375 53.515625 70.515625 
z
" id="DejaVuSans-53"/>
      <path d="M 34.28125 27.484375 
Q 23.390625 27.484375 19.1875 25 
Q 14.984375 22.515625 14.984375 16.5 
Q 14.984375 11.71875 18.140625 8.90625 
Q 21.296875 6.109375 26.703125 6.109375 
Q 34.1875 6.109375 38.703125 11.40625 
Q 43.21875 16.703125 43.21875 25.484375 
L 43.21875 27.484375 
z
M 52.203125 31.203125 
L 52.203125 0 
L 43.21875 0 
L 43.21875 8.296875 
Q 40.140625 3.328125 35.546875 0.953125 
Q 30.953125 -1.421875 24.3125 -1.421875 
Q 15.921875 -1.421875 10.953125 3.296875 
Q 6 8.015625 6 15.921875 
Q 6 25.140625 12.171875 29.828125 
Q 18.359375 34.515625 30.609375 34.515625 
L 43.21875 34.515625 
L 43.21875 35.40625 
Q 43.21875 41.609375 39.140625 45 
Q 35.0625 48.390625 27.6875 48.390625 
Q 23 48.390625 18.546875 47.265625 
Q 14.109375 46.140625 10.015625 43.890625 
L 10.015625 52.203125 
Q 14.9375 54.109375 19.578125 55.046875 
Q 24.21875 56 28.609375 56 
Q 40.484375 56 46.34375 49.84375 
Q 52.203125 43.703125 52.203125 31.203125 
z
" id="DejaVuSans-61"/>
      <path d="M 52 44.1875 
Q 55.375 50.25 60.0625 53.125 
Q 64.75 56 71.09375 56 
Q 79.640625 56 84.28125 50.015625 
Q 88.921875 44.046875 88.921875 33.015625 
L 88.921875 0 
L 79.890625 0 
L 79.890625 32.71875 
Q 79.890625 40.578125 77.09375 44.375 
Q 74.3125 48.1875 68.609375 48.1875 
Q 61.625 48.1875 57.5625 43.546875 
Q 53.515625 38.921875 53.515625 30.90625 
L 53.515625 0 
L 44.484375 0 
L 44.484375 32.71875 
Q 44.484375 40.625 41.703125 44.40625 
Q 38.921875 48.1875 33.109375 48.1875 
Q 26.21875 48.1875 22.15625 43.53125 
Q 18.109375 38.875 18.109375 30.90625 
L 18.109375 0 
L 9.078125 0 
L 9.078125 54.6875 
L 18.109375 54.6875 
L 18.109375 46.1875 
Q 21.1875 51.21875 25.484375 53.609375 
Q 29.78125 56 35.6875 56 
Q 41.65625 56 45.828125 52.96875 
Q 50 49.953125 52 44.1875 
z
" id="DejaVuSans-6d"/>
      <path d="M 18.109375 8.203125 
L 18.109375 -20.796875 
L 9.078125 -20.796875 
L 9.078125 54.6875 
L 18.109375 54.6875 
L 18.109375 46.390625 
Q 20.953125 51.265625 25.265625 53.625 
Q 29.59375 56 35.59375 56 
Q 45.5625 56 51.78125 48.09375 
Q 58.015625 40.1875 58.015625 27.296875 
Q 58.015625 14.40625 51.78125 6.484375 
Q 45.5625 -1.421875 35.59375 -1.421875 
Q 29.59375 -1.421875 25.265625 0.953125 
Q 20.953125 3.328125 18.109375 8.203125 
z
M 48.6875 27.296875 
Q 48.6875 37.203125 44.609375 42.84375 
Q 40.53125 48.484375 33.40625 48.484375 
Q 26.265625 48.484375 22.1875 42.84375 
Q 18.109375 37.203125 18.109375 27.296875 
Q 18.109375 17.390625 22.1875 11.75 
Q 26.265625 6.109375 33.40625 6.109375 
Q 40.53125 6.109375 44.609375 11.75 
Q 48.6875 17.390625 48.6875 27.296875 
z
" id="DejaVuSans-70"/>
      <path d="M 9.421875 75.984375 
L 18.40625 75.984375 
L 18.40625 0 
L 9.421875 0 
z
" id="DejaVuSans-6c"/>
      <path d="M 56.203125 29.59375 
L 56.203125 25.203125 
L 14.890625 25.203125 
Q 15.484375 15.921875 20.484375 11.0625 
Q 25.484375 6.203125 34.421875 6.203125 
Q 39.59375 6.203125 44.453125 7.46875 
Q 49.3125 8.734375 54.109375 11.28125 
L 54.109375 2.78125 
Q 49.265625 0.734375 44.1875 -0.34375 
Q 39.109375 -1.421875 33.890625 -1.421875 
Q 20.796875 -1.421875 13.15625 6.1875 
Q 5.515625 13.8125 5.515625 26.8125 
Q 5.515625 40.234375 12.765625 48.109375 
Q 20.015625 56 32.328125 56 
Q 43.359375 56 49.78125 48.890625 
Q 56.203125 41.796875 56.203125 29.59375 
z
M 47.21875 32.234375 
Q 47.125 39.59375 43.09375 43.984375 
Q 39.0625 48.390625 32.421875 48.390625 
Q 24.90625 48.390625 20.390625 44.140625 
Q 15.875 39.890625 15.1875 32.171875 
z
" id="DejaVuSans-65"/>
      <path id="DejaVuSans-20"/>
      <path d="M 48.6875 27.296875 
Q 48.6875 37.203125 44.609375 42.84375 
Q 40.53125 48.484375 33.40625 48.484375 
Q 26.265625 48.484375 22.1875 42.84375 
Q 18.109375 37.203125 18.109375 27.296875 
Q 18.109375 17.390625 22.1875 11.75 
Q 26.265625 6.109375 33.40625 6.109375 
Q 40.53125 6.109375 44.609375 11.75 
Q 48.6875 17.390625 48.6875 27.296875 
z
M 18.109375 46.390625 
Q 20.953125 51.265625 25.265625 53.625 
Q 29.59375 56 35.59375 56 
Q 45.5625 56 51.78125 48.09375 
Q 58.015625 40.1875 58.015625 27.296875 
Q 58.015625 14.40625 51.78125 6.484375 
Q 45.5625 -1.421875 35.59375 -1.421875 
Q 29.59375 -1.421875 25.265625 0.953125 
Q 20.953125 3.328125 18.109375 8.203125 
L 18.109375 0 
L 9.078125 0 
L 9.078125 75.984375 
L 18.109375 75.984375 
z
" id="DejaVuSans-62"/>
      <path d="M 30.609375 48.390625 
Q 23.390625 48.390625 19.1875 42.75 
Q 14.984375 37.109375 14.984375 27.296875 
Q 14.984375 17.484375 19.15625 11.84375 
Q 23.34375 6.203125 30.609375 6.203125 
Q 37.796875 6.203125 41.984375 11.859375 
Q 46.1875 17.53125 46.1875 27.296875 
Q 46.1875 37.015625 41.984375 42.703125 
Q 37.796875 48.390625 30.609375 48.390625 
z
M 30.609375 56 
Q 42.328125 56 49.015625 48.375 
Q 55.71875 40.765625 55.71875 27.296875 
Q 55.71875 13.875 49.015625 6.21875 
Q 42.328125 -1.421875 30.609375 -1.421875 
Q 18.84375 -1.421875 12.171875 6.21875 
Q 5.515625 13.875 5.515625 27.296875 
Q 5.515625 40.765625 12.171875 48.375 
Q 18.84375 56 30.609375 56 
z
" id="DejaVuSans-6f"/>
      <path d="M 48.78125 52.59375 
L 48.78125 44.1875 
Q 44.96875 46.296875 41.140625 47.34375 
Q 37.3125 48.390625 33.40625 48.390625 
Q 24.65625 48.390625 19.8125 42.84375 
Q 14.984375 37.3125 14.984375 27.296875 
Q 14.984375 17.28125 19.8125 11.734375 
Q 24.65625 6.203125 33.40625 6.203125 
Q 37.3125 6.203125 41.140625 7.25 
Q 44.96875 8.296875 48.78125 10.40625 
L 48.78125 2.09375 
Q 45.015625 0.34375 40.984375 -0.53125 
Q 36.96875 -1.421875 32.421875 -1.421875 
Q 20.0625 -1.421875 12.78125 6.34375 
Q 5.515625 14.109375 5.515625 27.296875 
Q 5.515625 40.671875 12.859375 48.328125 
Q 20.21875 56 33.015625 56 
Q 37.15625 56 41.109375 55.140625 
Q 45.0625 54.296875 48.78125 52.59375 
z
" id="DejaVuSans-63"/>
      <path d="M 9.078125 75.984375 
L 18.109375 75.984375 
L 18.109375 31.109375 
L 44.921875 54.6875 
L 56.390625 54.6875 
L 27.390625 29.109375 
L 57.625 0 
L 45.90625 0 
L 18.109375 26.703125 
L 18.109375 0 
L 9.078125 0 
z
" id="DejaVuSans-6b"/>
     </defs>
     <g transform="translate(279.635938 438.674687)scale(0.1 -0.1)">
      <use xlink:href="#DejaVuSans-53"/>
      <use x="63.476562" xlink:href="#DejaVuSans-61"/>
      <use x="124.755859" xlink:href="#DejaVuSans-6d"/>
      <use x="222.167969" xlink:href="#DejaVuSans-70"/>
      <use x="285.644531" xlink:href="#DejaVuSans-6c"/>
      <use x="313.427734" xlink:href="#DejaVuSans-65"/>
      <use x="374.951172" xlink:href="#DejaVuSans-20"/>
      <use x="406.738281" xlink:href="#DejaVuSans-62"/>
      <use x="470.214844" xlink:href="#DejaVuSans-6c"/>
      <use x="497.998047" xlink:href="#DejaVuSans-6f"/>
      <use x="559.179688" xlink:href="#DejaVuSans-63"/>
      <use x="614.160156" xlink:href="#DejaVuSans-6b"/>
     </g>
    </g>
   </g>
   <g id="matplotlib.axis_2">
    <g id="ytick_1">
     <g id="line2d_9">
      <defs>
       <path d="M 0 0 
L -3.5 0 
" id="m599db019d0" style="stroke:#000000;stroke-width:0.8;"/>
      </defs>
      <g>
       <use style="stroke:#000000;stroke-width:0.8;" x="34.240625" xlink:href="#m599db019d0" y="410.398125"/>
      </g>
     </g>
     <g id="text_10">
      <!-- 0 -->
      <g transform="translate(20.878125 414.197344)scale(0.1 -0.1)">
       <use xlink:href="#DejaVuSans-30"/>
      </g>
     </g>
    </g>
    <g id="ytick_2">
     <g id="line2d_10">
      <g>
       <use style="stroke:#000000;stroke-width:0.8;" x="34.240625" xlink:href="#m599db019d0" y="367.278125"/>
      </g>
     </g>
     <g id="text_11">
      <!-- 1 -->
      <g transform="translate(20.878125 371.077344)scale(0.1 -0.1)">
       <use xlink:href="#DejaVuSans-31"/>
      </g>
     </g>
    </g>
    <g id="ytick_3">
     <g id="line2d_11">
      <g>
       <use style="stroke:#000000;stroke-width:0.8;" x="34.240625" xlink:href="#m599db019d0" y="324.158125"/>
      </g>
     </g>
     <g id="text_12">
      <!-- 2 -->
      <g transform="translate(20.878125 327.957344)scale(0.1 -0.1)">
       <use xlink:href="#DejaVuSans-32"/>
      </g>
     </g>
    </g>
    <g id="ytick_4">
     <g id="line2d_12">
      <g>
       <use style="stroke:#000000;stroke-width:0.8;" x="34.240625" xlink:href="#m599db019d0" y="281.038125"/>
      </g>
     </g>
     <g id="text_13">
      <!-- 3 -->
      <defs>
       <path d="M 40.578125 39.3125 
Q 47.65625 37.796875 51.625 33 
Q 55.609375 28.21875 55.609375 21.1875 
Q 55.609375 10.40625 48.1875 4.484375 
Q 40.765625 -1.421875 27.09375 -1.421875 
Q 22.515625 -1.421875 17.65625 -0.515625 
Q 12.796875 0.390625 7.625 2.203125 
L 7.625 11.71875 
Q 11.71875 9.328125 16.59375 8.109375 
Q 21.484375 6.890625 26.8125 6.890625 
Q 36.078125 6.890625 40.9375 10.546875 
Q 45.796875 14.203125 45.796875 21.1875 
Q 45.796875 27.640625 41.28125 31.265625 
Q 36.765625 34.90625 28.71875 34.90625 
L 20.21875 34.90625 
L 20.21875 43.015625 
L 29.109375 43.015625 
Q 36.375 43.015625 40.234375 45.921875 
Q 44.09375 48.828125 44.09375 54.296875 
Q 44.09375 59.90625 40.109375 62.90625 
Q 36.140625 65.921875 28.71875 65.921875 
Q 24.65625 65.921875 20.015625 65.03125 
Q 15.375 64.15625 9.8125 62.3125 
L 9.8125 71.09375 
Q 15.4375 72.65625 20.34375 73.4375 
Q 25.25 74.21875 29.59375 74.21875 
Q 40.828125 74.21875 47.359375 69.109375 
Q 53.90625 64.015625 53.90625 55.328125 
Q 53.90625 49.265625 50.4375 45.09375 
Q 46.96875 40.921875 40.578125 39.3125 
z
" id="DejaVuSans-33"/>
      </defs>
      <g transform="translate(20.878125 284.837344)scale(0.1 -0.1)">
       <use xlink:href="#DejaVuSans-33"/>
      </g>
     </g>
    </g>
    <g id="ytick_5">
     <g id="line2d_13">
      <g>
       <use style="stroke:#000000;stroke-width:0.8;" x="34.240625" xlink:href="#m599db019d0" y="237.918125"/>
      </g>
     </g>
     <g id="text_14">
      <!-- 4 -->
      <defs>
       <path d="M 37.796875 64.3125 
L 12.890625 25.390625 
L 37.796875 25.390625 
z
M 35.203125 72.90625 
L 47.609375 72.90625 
L 47.609375 25.390625 
L 58.015625 25.390625 
L 58.015625 17.1875 
L 47.609375 17.1875 
L 47.609375 0 
L 37.796875 0 
L 37.796875 17.1875 
L 4.890625 17.1875 
L 4.890625 26.703125 
z
" id="DejaVuSans-34"/>
      </defs>
      <g transform="translate(20.878125 241.717344)scale(0.1 -0.1)">
       <use xlink:href="#DejaVuSans-34"/>
      </g>
     </g>
    </g>
    <g id="ytick_6">
     <g id="line2d_14">
      <g>
       <use style="stroke:#000000;stroke-width:0.8;" x="34.240625" xlink:href="#m599db019d0" y="194.798125"/>
      </g>
     </g>
     <g id="text_15">
      <!-- 5 -->
      <g transform="translate(20.878125 198.597344)scale(0.1 -0.1)">
       <use xlink:href="#DejaVuSans-35"/>
      </g>
     </g>
    </g>
    <g id="ytick_7">
     <g id="line2d_15">
      <g>
       <use style="stroke:#000000;stroke-width:0.8;" x="34.240625" xlink:href="#m599db019d0" y="151.678125"/>
      </g>
     </g>
     <g id="text_16">
      <!-- 6 -->
      <defs>
       <path d="M 33.015625 40.375 
Q 26.375 40.375 22.484375 35.828125 
Q 18.609375 31.296875 18.609375 23.390625 
Q 18.609375 15.53125 22.484375 10.953125 
Q 26.375 6.390625 33.015625 6.390625 
Q 39.65625 6.390625 43.53125 10.953125 
Q 47.40625 15.53125 47.40625 23.390625 
Q 47.40625 31.296875 43.53125 35.828125 
Q 39.65625 40.375 33.015625 40.375 
z
M 52.59375 71.296875 
L 52.59375 62.3125 
Q 48.875 64.0625 45.09375 64.984375 
Q 41.3125 65.921875 37.59375 65.921875 
Q 27.828125 65.921875 22.671875 59.328125 
Q 17.53125 52.734375 16.796875 39.40625 
Q 19.671875 43.65625 24.015625 45.921875 
Q 28.375 48.1875 33.59375 48.1875 
Q 44.578125 48.1875 50.953125 41.515625 
Q 57.328125 34.859375 57.328125 23.390625 
Q 57.328125 12.15625 50.6875 5.359375 
Q 44.046875 -1.421875 33.015625 -1.421875 
Q 20.359375 -1.421875 13.671875 8.265625 
Q 6.984375 17.96875 6.984375 36.375 
Q 6.984375 53.65625 15.1875 63.9375 
Q 23.390625 74.21875 37.203125 74.21875 
Q 40.921875 74.21875 44.703125 73.484375 
Q 48.484375 72.75 52.59375 71.296875 
z
" id="DejaVuSans-36"/>
      </defs>
      <g transform="translate(20.878125 155.477344)scale(0.1 -0.1)">
       <use xlink:href="#DejaVuSans-36"/>
      </g>
     </g>
    </g>
    <g id="ytick_8">
     <g id="line2d_16">
      <g>
       <use style="stroke:#000000;stroke-width:0.8;" x="34.240625" xlink:href="#m599db019d0" y="108.558125"/>
      </g>
     </g>
     <g id="text_17">
      <!-- 7 -->
      <g transform="translate(20.878125 112.357344)scale(0.1 -0.1)">
       <use xlink:href="#DejaVuSans-37"/>
      </g>
     </g>
    </g>
    <g id="ytick_9">
     <g id="line2d_17">
      <g>
       <use style="stroke:#000000;stroke-width:0.8;" x="34.240625" xlink:href="#m599db019d0" y="65.438125"/>
      </g>
     </g>
     <g id="text_18">
      <!-- 8 -->
      <defs>
       <path d="M 31.78125 34.625 
Q 24.75 34.625 20.71875 30.859375 
Q 16.703125 27.09375 16.703125 20.515625 
Q 16.703125 13.921875 20.71875 10.15625 
Q 24.75 6.390625 31.78125 6.390625 
Q 38.8125 6.390625 42.859375 10.171875 
Q 46.921875 13.96875 46.921875 20.515625 
Q 46.921875 27.09375 42.890625 30.859375 
Q 38.875 34.625 31.78125 34.625 
z
M 21.921875 38.8125 
Q 15.578125 40.375 12.03125 44.71875 
Q 8.5 49.078125 8.5 55.328125 
Q 8.5 64.0625 14.71875 69.140625 
Q 20.953125 74.21875 31.78125 74.21875 
Q 42.671875 74.21875 48.875 69.140625 
Q 55.078125 64.0625 55.078125 55.328125 
Q 55.078125 49.078125 51.53125 44.71875 
Q 48 40.375 41.703125 38.8125 
Q 48.828125 37.15625 52.796875 32.3125 
Q 56.78125 27.484375 56.78125 20.515625 
Q 56.78125 9.90625 50.3125 4.234375 
Q 43.84375 -1.421875 31.78125 -1.421875 
Q 19.734375 -1.421875 13.25 4.234375 
Q 6.78125 9.90625 6.78125 20.515625 
Q 6.78125 27.484375 10.78125 32.3125 
Q 14.796875 37.15625 21.921875 38.8125 
z
M 18.3125 54.390625 
Q 18.3125 48.734375 21.84375 45.5625 
Q 25.390625 42.390625 31.78125 42.390625 
Q 38.140625 42.390625 41.71875 45.5625 
Q 45.3125 48.734375 45.3125 54.390625 
Q 45.3125 60.0625 41.71875 63.234375 
Q 38.140625 66.40625 31.78125 66.40625 
Q 25.390625 66.40625 21.84375 63.234375 
Q 18.3125 60.0625 18.3125 54.390625 
z
" id="DejaVuSans-38"/>
      </defs>
      <g transform="translate(20.878125 69.237344)scale(0.1 -0.1)">
       <use xlink:href="#DejaVuSans-38"/>
      </g>
     </g>
    </g>
    <g id="ytick_10">
     <g id="line2d_18">
      <g>
       <use style="stroke:#000000;stroke-width:0.8;" x="34.240625" xlink:href="#m599db019d0" y="22.318125"/>
      </g>
     </g>
     <g id="text_19">
      <!-- 9 -->
      <defs>
       <path d="M 10.984375 1.515625 
L 10.984375 10.5 
Q 14.703125 8.734375 18.5 7.8125 
Q 22.3125 6.890625 25.984375 6.890625 
Q 35.75 6.890625 40.890625 13.453125 
Q 46.046875 20.015625 46.78125 33.40625 
Q 43.953125 29.203125 39.59375 26.953125 
Q 35.25 24.703125 29.984375 24.703125 
Q 19.046875 24.703125 12.671875 31.3125 
Q 6.296875 37.9375 6.296875 49.421875 
Q 6.296875 60.640625 12.9375 67.421875 
Q 19.578125 74.21875 30.609375 74.21875 
Q 43.265625 74.21875 49.921875 64.515625 
Q 56.59375 54.828125 56.59375 36.375 
Q 56.59375 19.140625 48.40625 8.859375 
Q 40.234375 -1.421875 26.421875 -1.421875 
Q 22.703125 -1.421875 18.890625 -0.6875 
Q 15.09375 0.046875 10.984375 1.515625 
z
M 30.609375 32.421875 
Q 37.25 32.421875 41.125 36.953125 
Q 45.015625 41.5 45.015625 49.421875 
Q 45.015625 57.28125 41.125 61.84375 
Q 37.25 66.40625 30.609375 66.40625 
Q 23.96875 66.40625 20.09375 61.84375 
Q 16.21875 57.28125 16.21875 49.421875 
Q 16.21875 41.5 20.09375 36.953125 
Q 23.96875 32.421875 30.609375 32.421875 
z
" id="DejaVuSans-39"/>
      </defs>
      <g transform="translate(20.878125 26.117344)scale(0.1 -0.1)">
       <use xlink:href="#DejaVuSans-39"/>
      </g>
     </g>
    </g>
    <g id="text_20">
     <!-- Entropy -->
     <defs>
      <path d="M 9.8125 72.90625 
L 55.90625 72.90625 
L 55.90625 64.59375 
L 19.671875 64.59375 
L 19.671875 43.015625 
L 54.390625 43.015625 
L 54.390625 34.71875 
L 19.671875 34.71875 
L 19.671875 8.296875 
L 56.78125 8.296875 
L 56.78125 0 
L 9.8125 0 
z
" id="DejaVuSans-45"/>
      <path d="M 54.890625 33.015625 
L 54.890625 0 
L 45.90625 0 
L 45.90625 32.71875 
Q 45.90625 40.484375 42.875 44.328125 
Q 39.84375 48.1875 33.796875 48.1875 
Q 26.515625 48.1875 22.3125 43.546875 
Q 18.109375 38.921875 18.109375 30.90625 
L 18.109375 0 
L 9.078125 0 
L 9.078125 54.6875 
L 18.109375 54.6875 
L 18.109375 46.1875 
Q 21.34375 51.125 25.703125 53.5625 
Q 30.078125 56 35.796875 56 
Q 45.21875 56 50.046875 50.171875 
Q 54.890625 44.34375 54.890625 33.015625 
z
" id="DejaVuSans-6e"/>
      <path d="M 18.3125 70.21875 
L 18.3125 54.6875 
L 36.8125 54.6875 
L 36.8125 47.703125 
L 18.3125 47.703125 
L 18.3125 18.015625 
Q 18.3125 11.328125 20.140625 9.421875 
Q 21.96875 7.515625 27.59375 7.515625 
L 36.8125 7.515625 
L 36.8125 0 
L 27.59375 0 
Q 17.1875 0 13.234375 3.875 
Q 9.28125 7.765625 9.28125 18.015625 
L 9.28125 47.703125 
L 2.6875 47.703125 
L 2.6875 54.6875 
L 9.28125 54.6875 
L 9.28125 70.21875 
z
" id="DejaVuSans-74"/>
      <path d="M 41.109375 46.296875 
Q 39.59375 47.171875 37.8125 47.578125 
Q 36.03125 48 33.890625 48 
Q 26.265625 48 22.1875 43.046875 
Q 18.109375 38.09375 18.109375 28.8125 
L 18.109375 0 
L 9.078125 0 
L 9.078125 54.6875 
L 18.109375 54.6875 
L 18.109375 46.1875 
Q 20.953125 51.171875 25.484375 53.578125 
Q 30.03125 56 36.53125 56 
Q 37.453125 56 38.578125 55.875 
Q 39.703125 55.765625 41.0625 55.515625 
z
" id="DejaVuSans-72"/>
      <path d="M 32.171875 -5.078125 
Q 28.375 -14.84375 24.75 -17.8125 
Q 21.140625 -20.796875 15.09375 -20.796875 
L 7.90625 -20.796875 
L 7.90625 -13.28125 
L 13.1875 -13.28125 
Q 16.890625 -13.28125 18.9375 -11.515625 
Q 21 -9.765625 23.484375 -3.21875 
L 25.09375 0.875 
L 2.984375 54.6875 
L 12.5 54.6875 
L 29.59375 11.921875 
L 46.6875 54.6875 
L 56.203125 54.6875 
z
" id="DejaVuSans-79"/>
     </defs>
     <g transform="translate(14.798437 235.893281)rotate(-90)scale(0.1 -0.1)">
      <use xlink:href="#DejaVuSans-45"/>
      <use x="63.183594" xlink:href="#DejaVuSans-6e"/>
      <use x="126.5625" xlink:href="#DejaVuSans-74"/>
      <use x="165.771484" xlink:href="#DejaVuSans-72"/>
      <use x="206.853516" xlink:href="#DejaVuSans-6f"/>
      <use x="268.035156" xlink:href="#DejaVuSans-70"/>
      <use x="331.511719" xlink:href="#DejaVuSans-79"/>
     </g>
    </g>
   </g>
   <g id="line2d_19">
    <path clip-path="url(#p8da7ab0fb8)" d="M 34.240625 256.538255 
L 37.256841 271.733137 
L 40.273057 271.48486 
L 43.289274 277.452343 
L 46.30549 257.805596 
L 52.337922 259.932601 
L 55.354139 262.066932 
L 58.370355 293.402936 
L 61.386571 265.975956 
L 64.402787 276.641452 
L 67.419003 269.855603 
L 70.43522 264.64333 
L 73.451436 269.274657 
L 76.467652 277.497568 
L 79.483868 273.592435 
L 82.500084 264.840991 
L 85.516301 271.445026 
L 88.532517 278.639629 
L 91.548733 276.324629 
L 94.564949 270.459293 
L 97.581166 270.514973 
L 100.597382 271.131306 
L 103.613598 261.992302 
L 106.629814 266.602745 
L 109.64603 268.767723 
L 112.662247 259.69165 
L 115.678463 270.141778 
L 118.694679 258.666084 
L 121.710895 258.324229 
L 124.727111 268.406918 
L 127.743328 255.948947 
L 130.759544 266.272587 
L 133.77576 259.451942 
L 136.791976 272.839966 
L 139.808193 278.342235 
L 142.824409 280.040439 
L 145.840625 264.865331 
L 148.856841 270.577905 
L 151.873057 274.348126 
L 154.889274 285.660602 
L 157.90549 265.839803 
L 160.921706 284.757614 
L 163.937922 283.540923 
L 166.954139 268.356629 
L 169.970355 286.493646 
L 172.986571 284.432058 
L 176.002787 273.562268 
L 179.019003 296.593399 
L 182.03522 292.703405 
L 185.051436 291.705919 
L 188.067652 302.070945 
L 191.083868 308.497968 
L 194.100084 264.442213 
L 197.116301 277.526973 
L 200.132517 274.719386 
L 203.148733 281.909405 
L 206.164949 299.910027 
L 209.181166 266.982574 
L 212.197382 275.478489 
L 215.213598 259.406718 
L 218.229814 264.525337 
L 221.24603 280.605135 
L 224.262247 271.778361 
L 227.278463 288.192468 
L 230.294679 274.608026 
L 233.310895 295.438388 
L 236.327111 271.972845 
L 239.343328 261.337996 
L 242.359544 291.561358 
L 245.37576 278.639629 
L 248.391976 277.418816 
L 251.408193 282.796168 
L 254.424409 298.053156 
L 257.440625 288.44207 
L 260.456841 286.083795 
L 263.473057 267.981865 
L 266.489274 270.135145 
L 269.50549 268.526772 
L 272.521706 282.607693 
L 275.537922 275.163389 
L 278.554139 284.524394 
L 281.570355 279.996054 
L 284.586571 262.016642 
L 287.602787 280.319981 
L 290.619003 318.615352 
L 293.63522 283.758803 
L 296.651436 268.970775 
L 299.667652 261.725076 
L 302.683868 287.214158 
L 305.700084 263.55545 
L 308.716301 274.509846 
L 311.732517 260.996141 
L 314.748733 261.16122 
L 317.764949 252.724876 
L 320.781166 259.526572 
L 323.797382 269.568158 
L 326.813598 275.767406 
L 329.829814 261.105539 
L 332.84603 257.373292 
L 335.862247 257.373292 
L 338.878463 270.856829 
L 341.894679 252.123046 
L 344.910895 273.499336 
L 347.927111 269.300932 
L 350.943328 272.545195 
L 353.959544 259.617021 
L 356.97576 272.852282 
L 359.991976 281.741122 
L 363.008193 268.875261 
L 366.024409 272.923782 
L 369.040625 264.858698 
L 372.056841 266.528115 
L 375.073057 263.746804 
L 378.089274 254.923381 
L 381.10549 251.597162 
L 384.121706 280.848126 
L 387.137922 269.951117 
L 390.154139 266.509166 
L 393.170355 282.119708 
L 396.186571 294.311696 
L 399.202787 251.033305 
L 402.219003 253.656789 
L 405.23522 285.979136 
L 408.251436 262.529884 
L 411.267652 273.860141 
L 414.283868 268.617221 
L 417.300084 269.147552 
L 420.316301 282.257894 
L 423.332517 268.368945 
L 426.348733 288.233091 
L 429.364949 280.541983 
L 432.381166 248.583394 
L 435.397382 240.950616 
L 438.413598 241.514473 
L 441.429814 244.573465 
L 444.44603 253.972444 
L 447.462247 253.630588 
L 450.478463 268.601401 
L 453.494679 292.537002 
L 456.510895 265.39315 
L 459.527111 267.640009 
L 462.543328 271.733137 
L 465.559544 287.328851 
L 468.57576 275.222498 
L 471.591976 257.15129 
L 474.608193 278.229015 
L 477.624409 257.937148 
L 480.640625 255.607092 
L 483.656841 268.110287 
L 486.673057 267.211826 
L 489.689274 252.84473 
L 492.70549 280.491694 
L 495.721706 267.54643 
L 498.737922 303.330596 
L 501.754139 270.180369 
L 504.770355 264.294841 
L 507.786571 274.816469 
L 510.802787 265.79918 
L 513.819003 286.509466 
L 516.83522 271.398532 
L 519.851436 266.824746 
L 522.867652 280.344322 
L 525.883868 273.044878 
L 528.900084 262.694963 
L 531.916301 269.229432 
L 534.932517 273.059456 
L 537.948733 270.909305 
L 540.964949 281.849353 
L 543.981166 261.78925 
L 546.997382 276.663126 
L 550.013598 283.998511 
L 553.029814 271.733137 
L 556.04603 272.390572 
L 559.062247 267.242474 
L 562.078463 277.636371 
L 565.094679 275.79142 
L 568.110895 273.427357 
L 571.127111 270.041566 
L 574.143328 257.019738 
L 577.159544 275.893567 
L 580.17576 277.466691 
L 583.191976 261.251669 
L 586.208193 288.057557 
L 589.224409 280.733337 
L 592.240625 281.366759 
L 595.256841 268.294315 
L 598.273057 269.40308 
L 601.289274 268.497367 
L 603.940625 273.184479 
L 603.940625 273.184479 
" style="fill:none;stroke:#35db9d;stroke-linecap:square;stroke-width:1.5;"/>
   </g>
   <g id="line2d_20">
    <path clip-path="url(#p8da7ab0fb8)" d="M 34.240625 340.962308 
L 37.256841 351.58591 
L 40.273057 345.704519 
L 43.289274 351.58591 
L 46.30549 371.437985 
L 49.321706 348.969465 
L 52.337922 300.499738 
L 55.354139 310.71285 
L 58.370355 305.53066 
L 61.386571 301.154273 
L 64.402787 302.872478 
L 67.419003 312.741142 
L 70.43522 304.201569 
L 73.451436 300.348471 
L 76.467652 301.543387 
L 79.483868 306.443064 
L 82.500084 304.201569 
L 85.516301 310.08296 
L 88.532517 302.066676 
L 91.548733 300.737585 
L 94.564949 307.665554 
L 97.581166 300.348471 
L 100.597382 311.828739 
L 103.613598 305.53066 
L 106.629814 302.066676 
L 109.64603 307.035664 
L 112.662247 299.931783 
L 115.678463 309.693846 
L 118.694679 306.229861 
L 121.710895 304.618257 
L 124.727111 309.800447 
L 127.743328 305.813173 
L 130.759544 305.007371 
L 133.77576 307.558953 
L 136.791976 303.812455 
L 139.808193 306.859752 
L 142.824409 302.872478 
L 145.840625 306.859752 
L 148.856841 302.872478 
L 151.873057 295.272882 
L 154.889274 300.737585 
L 160.921706 301.677562 
L 163.937922 307.035664 
L 166.954139 301.960075 
L 169.970355 306.336463 
L 172.986571 302.872478 
L 176.002787 301.154273 
L 179.019003 302.483364 
L 182.03522 308.471356 
L 185.051436 296.078684 
L 188.067652 304.618257 
L 191.083868 305.007371 
L 194.100084 299.931783 
L 197.116301 304.724858 
L 200.132517 309.277158 
L 203.148733 298.602691 
L 206.164949 299.019379 
L 209.181166 311.93534 
L 212.197382 300.348471 
L 215.213598 301.260874 
L 218.229814 300.348471 
L 221.24603 301.260874 
L 224.262247 306.336463 
L 227.278463 305.424059 
L 230.294679 302.765877 
L 233.310895 299.12598 
L 236.327111 306.336463 
L 239.343328 314.769435 
L 242.359544 305.113972 
L 245.37576 296.078684 
L 248.391976 301.154273 
L 251.408193 301.960075 
L 254.424409 301.677562 
L 257.440625 305.53066 
L 260.456841 303.289166 
L 263.473057 300.455072 
L 266.489274 311.563319 
L 269.50549 306.443064 
L 272.521706 302.483364 
L 275.537922 309.693846 
L 278.554139 300.455072 
L 281.570355 310.499648 
L 287.602787 299.542668 
L 290.619003 307.27644 
L 293.63522 296.884486 
L 296.651436 308.364755 
L 299.667652 299.019379 
L 302.683868 304.201569 
L 305.700084 296.884486 
L 308.716301 304.094968 
L 311.732517 305.53066 
L 314.748733 303.289166 
L 317.764949 302.765877 
L 320.781166 307.142265 
L 323.797382 310.757516 
L 326.813598 312.217853 
L 329.829814 297.407775 
L 332.84603 305.53066 
L 335.862247 303.67828 
L 338.878463 299.931783 
L 341.894679 304.094968 
L 344.910895 300.348471 
L 347.927111 299.12598 
L 350.943328 299.931783 
L 353.959544 303.289166 
L 356.97576 304.201569 
L 359.991976 297.407775 
L 363.008193 303.289166 
L 366.024409 301.960075 
L 369.040625 302.173277 
L 372.056841 312.917055 
L 375.073057 293.943791 
L 378.089274 304.201569 
L 381.10549 299.12598 
L 384.121706 304.618257 
L 387.137922 302.066676 
L 390.154139 301.260874 
L 393.170355 300.737585 
L 396.186571 307.558953 
L 399.202787 301.960075 
L 402.219003 306.75315 
L 405.23522 303.395767 
L 408.251436 308.577957 
L 411.267652 306.229861 
L 414.283868 309.976359 
L 417.300084 302.872478 
L 420.316301 301.960075 
L 423.332517 304.618257 
L 426.348733 298.213577 
L 429.364949 299.019379 
L 432.381166 299.542668 
L 435.397382 299.542668 
L 438.413598 299.019379 
L 441.429814 309.277158 
L 444.44603 299.542668 
L 447.462247 307.142265 
L 450.478463 300.348471 
L 453.494679 317.293442 
L 456.510895 302.483364 
L 459.527111 301.677562 
L 462.543328 300.737585 
L 465.559544 301.154273 
L 468.57576 308.888044 
L 471.591976 305.947348 
L 474.608193 298.602691 
L 477.624409 306.75315 
L 480.640625 306.336463 
L 483.656841 306.75315 
L 486.673057 312.847744 
L 489.689274 297.796889 
L 492.70549 306.443064 
L 495.721706 276.058842 
L 498.737922 275.25304 
L 501.754139 268.84836 
L 504.770355 268.84836 
L 507.786571 266.713467 
L 510.802787 266.713467 
L 513.819003 295.272882 
L 516.83522 329.269426 
L 519.851436 273.923949 
L 522.867652 384.174336 
L 525.883868 410.398125 
L 528.900084 410.398125 
L 531.916301 390.640186 
L 534.932517 373.572878 
L 537.948733 351.104358 
L 540.964949 373.572878 
L 543.981166 384.174336 
L 546.997382 345.18123 
L 550.013598 351.58591 
L 553.029814 342.884588 
L 556.04603 351.58591 
L 559.062247 294.050392 
L 562.078463 291.003095 
L 565.094679 299.12598 
L 568.110895 282.463522 
L 571.127111 283.269324 
L 574.143328 288.344913 
L 577.159544 279.522826 
L 580.17576 287.539111 
L 583.191976 294.749593 
L 586.208193 295.768597 
L 589.224409 294.050392 
L 592.240625 294.46708 
L 595.256841 283.269324 
L 598.273057 285.404217 
L 601.289274 283.269324 
L 603.940625 293.360851 
L 603.940625 293.360851 
" style="fill:none;stroke:#ed2a25;stroke-linecap:square;stroke-width:1.5;"/>
   </g>
   <g id="line2d_21">
    <path clip-path="url(#p8da7ab0fb8)" d="M 34.240625 336.11455 
L 37.256841 212.959901 
L 40.273057 283.596986 
L 43.289274 288.249745 
L 46.30549 212.63758 
L 49.321706 326.914767 
L 52.337922 247.630931 
L 55.354139 220.117885 
L 58.370355 353.238961 
L 61.386571 212.47642 
L 64.402787 237.159167 
L 67.419003 343.893586 
L 70.43522 208.89943 
L 73.451436 258.328903 
L 76.467652 315.364425 
L 79.483868 212.049441 
L 82.500084 297.757205 
L 85.516301 274.22007 
L 88.532517 212.31526 
L 91.548733 337.287342 
L 94.564949 231.271829 
L 97.581166 231.147794 
L 100.597382 355.042782 
L 103.613598 214.667816 
L 106.629814 241.831232 
L 109.64603 338.282856 
L 112.662247 211.944784 
L 115.678463 273.409552 
L 118.694679 296.31898 
L 121.710895 207.723152 
L 124.727111 321.698179 
L 127.743328 251.363471 
L 130.759544 216.170419 
L 133.77576 350.447838 
L 136.791976 217.328831 
L 139.808193 239.16525 
L 142.824409 346.6427 
L 145.840625 211.377965 
L 148.856841 255.456719 
L 151.873057 320.132989 
L 154.889274 211.356644 
L 157.90549 293.738271 
L 160.921706 273.579216 
L 163.937922 211.72712 
L 166.954139 337.340946 
L 169.970355 231.98132 
L 172.986571 228.057413 
L 176.002787 355.042782 
L 179.019003 210.502687 
L 182.03522 241.831232 
L 185.051436 338.709834 
L 188.067652 209.592227 
L 191.083868 274.192111 
L 194.100084 302.760362 
L 197.116301 215.787591 
L 200.132517 317.657508 
L 203.148733 255.723914 
L 206.164949 216.152553 
L 209.181166 347.687861 
L 212.197382 217.656667 
L 215.213598 236.360129 
L 218.229814 347.335497 
L 221.24603 210.180366 
L 224.262247 253.433908 
L 227.278463 325.465057 
L 230.294679 210.607345 
L 233.310895 288.406331 
L 236.327111 277.835917 
L 239.343328 212.070762 
L 242.359544 336.924354 
L 245.37576 241.019291 
L 248.391976 223.167581 
L 251.408193 357.289952 
L 254.424409 213.330377 
L 257.440625 244.401746 
L 260.456841 340.417749 
L 263.473057 210.768505 
L 266.489274 267.261544 
L 269.50549 302.467086 
L 272.521706 213.22572 
L 275.537922 313.99466 
L 278.554139 258.922284 
L 281.570355 219.394835 
L 284.586571 343.504627 
L 287.602787 220.983644 
L 290.619003 230.534004 
L 293.63522 348.645505 
L 296.651436 213.757356 
L 299.667652 246.303616 
L 302.683868 330.296295 
L 305.700084 210.180366 
L 308.716301 287.721526 
L 311.732517 281.550698 
L 314.748733 211.888281 
L 317.764949 331.312705 
L 320.781166 240.439349 
L 323.797382 223.865004 
L 326.813598 356.084148 
L 329.829814 213.700853 
L 332.84603 239.214915 
L 335.862247 341.715617 
L 338.878463 214.563158 
L 341.894679 267.139503 
L 344.910895 307.849512 
L 347.927111 208.577109 
L 350.943328 307.397323 
L 353.959544 262.938017 
L 356.97576 212.63758 
L 359.991976 341.154491 
L 363.008193 225.882266 
L 366.024409 231.396668 
L 369.040625 349.416125 
L 372.056841 212.742238 
L 375.073057 245.885299 
L 378.089274 335.696484 
L 381.10549 213.596196 
L 384.121706 285.533767 
L 387.137922 286.485774 
L 390.154139 209.487569 
L 393.170355 328.068264 
L 396.186571 242.899793 
L 399.202787 224.270662 
L 402.219003 353.882254 
L 405.23522 212.742238 
L 408.251436 235.742734 
L 411.267652 342.589587 
L 414.283868 210.768505 
L 417.300084 260.491557 
L 420.316301 312.839617 
L 423.332517 214.240837 
L 426.348733 302.196429 
L 429.364949 267.058806 
L 432.381166 211.517805 
L 435.397382 340.988649 
L 438.413598 226.722326 
L 441.429814 228.930747 
L 444.44603 353.269646 
L 447.462247 207.296173 
L 450.478463 242.84635 
L 453.494679 338.003216 
L 456.510895 212.63758 
L 459.527111 278.23863 
L 462.543328 290.286586 
L 465.559544 212.47642 
L 468.57576 323.966775 
L 471.591976 249.016525 
L 474.608193 221.207407 
L 477.624409 351.839505 
L 480.640625 216.158068 
L 483.656841 235.600612 
L 486.673057 343.893586 
L 489.689274 212.742238 
L 492.70549 257.556396 
L 495.721706 315.758007 
L 498.737922 210.768505 
L 501.754139 297.893509 
L 504.770355 271.013556 
L 507.786571 210.873163 
L 510.802787 338.493873 
L 513.819003 227.960657 
L 516.83522 228.576662 
L 519.851436 359.110872 
L 522.867652 211.622463 
L 525.883868 239.887857 
L 528.900084 336.561119 
L 531.916301 213.491538 
L 534.932517 272.631495 
L 537.948733 296.15782 
L 540.964949 213.813859 
L 543.981166 321.11004 
L 546.997382 249.760214 
L 550.013598 215.360613 
L 553.029814 348.114839 
L 556.04603 216.862339 
L 559.062247 235.77199 
L 562.078463 345.335682 
L 565.094679 211.783623 
L 568.110895 253.977728 
L 571.127111 320.537316 
L 574.143328 211.356644 
L 577.159544 293.814958 
L 580.17576 276.26944 
L 583.191976 212.798741 
L 586.208193 336.40979 
L 589.224409 233.157599 
L 592.240625 226.02405 
L 595.256841 359.434796 
L 598.273057 210.502687 
L 601.289274 242.009382 
L 603.940625 327.529192 
L 603.940625 327.529192 
" style="fill:none;stroke:#86b1e0;stroke-linecap:square;stroke-width:1.5;"/>
   </g>
   <g id="line2d_22">
    <path clip-path="url(#p8da7ab0fb8)" d="M 34.240625 245.336835 
L 37.256841 245.286595 
L 40.273057 297.313577 
L 43.289274 245.402442 
L 46.30549 214.609081 
L 49.321706 250.316012 
L 52.337922 184.111828 
L 55.354139 194.871418 
L 58.370355 252.477894 
L 61.386571 185.874967 
L 64.402787 184.699999 
L 67.419003 291.62076 
L 70.43522 184.757968 
L 73.451436 186.729062 
L 76.467652 280.959053 
L 79.483868 184.770097 
L 82.500084 185.420325 
L 85.516301 257.021603 
L 88.532517 184.675206 
L 91.548733 203.551783 
L 94.564949 238.622865 
L 97.581166 185.983702 
L 103.613598 234.500525 
L 106.629814 185.837185 
L 109.64603 222.29443 
L 112.662247 222.312984 
L 115.678463 184.530185 
L 118.694679 217.706068 
L 121.710895 231.821135 
L 124.727111 189.849807 
L 127.743328 234.088549 
L 130.759544 214.168042 
L 133.77576 190.323068 
L 136.791976 199.439184 
L 139.808193 258.490585 
L 142.824409 188.291085 
L 145.840625 258.545194 
L 148.856841 190.312258 
L 151.873057 198.392775 
L 154.889274 232.7616 
L 157.90549 188.945484 
L 160.921706 251.279835 
L 163.937922 188.528722 
L 166.954139 221.815613 
L 169.970355 212.673815 
L 172.986571 185.064207 
L 176.002787 187.16219 
L 179.019003 288.640568 
L 182.03522 186.850884 
L 185.051436 194.557176 
L 188.067652 250.406534 
L 191.083868 185.962419 
L 194.100084 187.777628 
L 197.116301 283.312502 
L 200.132517 192.525598 
L 203.148733 247.385888 
L 206.164949 188.10968 
L 209.181166 185.121399 
L 212.197382 232.954759 
L 215.213598 212.815405 
L 218.229814 184.216675 
L 221.24603 250.976383 
L 224.262247 186.370111 
L 227.278463 189.699939 
L 230.294679 288.407216 
L 233.310895 187.554142 
L 236.327111 204.778832 
L 239.343328 232.281162 
L 242.359544 244.912858 
L 245.37576 202.739606 
L 248.391976 202.879709 
L 251.408193 291.450086 
L 254.424409 203.832806 
L 257.440625 199.547765 
L 260.456841 284.783929 
L 263.473057 200.25005 
L 266.489274 244.646108 
L 269.50549 210.300587 
L 272.521706 190.053874 
L 275.537922 263.847921 
L 278.554139 189.097007 
L 281.570355 191.524347 
L 284.586571 261.707312 
L 287.602787 189.340429 
L 290.619003 194.441127 
L 293.63522 286.335227 
L 296.651436 198.777062 
L 299.667652 245.579439 
L 302.683868 230.812227 
L 305.700084 184.299028 
L 308.716301 263.008066 
L 311.732517 193.65902 
L 314.748733 193.958766 
L 317.764949 273.514226 
L 320.781166 185.804879 
L 323.797382 192.543438 
L 326.813598 236.060398 
L 329.829814 183.783948 
L 332.84603 184.196888 
L 335.862247 286.647473 
L 338.878463 184.708458 
L 341.894679 184.852173 
L 344.910895 281.3077 
L 347.927111 184.63933 
L 350.943328 182.802964 
L 353.959544 260.186658 
L 356.97576 183.231612 
L 359.991976 207.507945 
L 363.008193 217.779646 
L 366.024409 183.193303 
L 369.040625 212.31727 
L 372.056841 227.612656 
L 375.073057 182.030145 
L 378.089274 260.418168 
L 381.10549 183.766594 
L 384.121706 186.323962 
L 387.137922 241.767039 
L 390.154139 183.260726 
L 393.170355 183.838633 
L 396.186571 285.135672 
L 399.202787 182.842811 
L 402.219003 211.196732 
L 405.23522 216.053727 
L 408.251436 182.248205 
L 411.267652 251.03679 
L 414.283868 181.821831 
L 417.300084 182.325742 
L 420.316301 275.922722 
L 423.332517 184.085739 
L 426.348733 183.456753 
L 429.364949 265.65662 
L 432.381166 182.680246 
L 435.397382 183.125629 
L 438.413598 282.497052 
L 441.429814 183.027177 
L 444.44603 183.643784 
L 447.462247 264.501999 
L 450.478463 182.851547 
L 453.494679 252.403224 
L 456.510895 184.394001 
L 459.527111 183.388711 
L 462.543328 266.6973 
L 465.559544 182.286715 
L 468.57576 182.640967 
L 471.591976 269.809219 
L 474.608193 183.861485 
L 477.624409 187.105199 
L 480.640625 256.247191 
L 483.656841 180.95779 
L 486.673057 214.693884 
L 489.689274 221.686398 
L 492.70549 184.083474 
L 495.721706 251.318663 
L 498.737922 184.686934 
L 501.754139 204.980404 
L 504.770355 222.380237 
L 507.786571 182.317534 
L 510.802787 255.888609 
L 513.819003 180.946221 
L 516.83522 184.164331 
L 519.851436 264.313774 
L 522.867652 181.684501 
L 525.883868 183.628634 
L 528.900084 264.270305 
L 531.916301 184.45213 
L 534.932517 189.023389 
L 537.948733 259.396161 
L 540.964949 182.754791 
L 543.981166 183.47006 
L 546.997382 291.715153 
L 550.013598 181.733852 
L 553.029814 191.906056 
L 556.04603 235.463127 
L 559.062247 184.449296 
L 562.078463 191.334607 
L 565.094679 263.06169 
L 568.110895 183.795148 
L 571.127111 194.03081 
L 574.143328 245.114492 
L 577.159544 183.426493 
L 580.17576 253.115257 
L 583.191976 185.703508 
L 586.208193 182.895272 
L 589.224409 269.450193 
L 592.240625 185.137097 
L 595.256841 183.321646 
L 598.273057 259.341516 
L 601.289274 182.900129 
L 603.940625 236.132849 
L 603.940625 236.132849 
" style="fill:none;stroke:#cc5da6;stroke-linecap:square;stroke-width:1.5;"/>
   </g>
   <g id="line2d_23">
    <path clip-path="url(#p8da7ab0fb8)" d="M 34.240625 410.398125 
L 43.289274 410.398125 
L 46.30549 380.509619 
L 55.354139 380.509619 
L 58.370355 410.398125 
L 67.419003 410.398125 
L 70.43522 380.509619 
L 88.532517 380.509619 
L 91.548733 410.398125 
L 166.954139 410.398125 
L 169.970355 380.509619 
L 172.986571 380.509619 
L 176.002787 410.398125 
L 182.03522 410.398125 
L 185.051436 380.509619 
L 188.067652 380.509619 
L 191.083868 410.398125 
L 200.132517 410.398125 
L 203.148733 380.509619 
L 206.164949 380.509619 
L 209.181166 410.398125 
L 248.391976 410.398125 
L 251.408193 380.509619 
L 332.84603 380.509619 
L 335.862247 410.398125 
L 338.878463 380.509619 
L 363.008193 380.509619 
L 366.024409 410.398125 
L 399.202787 410.398125 
L 402.219003 380.509619 
L 429.364949 380.509619 
L 432.381166 410.398125 
L 435.397382 410.398125 
L 438.413598 380.509619 
L 562.078463 380.509619 
L 565.094679 410.398125 
L 571.127111 410.398125 
L 571.127111 410.398125 
" style="fill:none;stroke:#3819b5;stroke-linecap:square;stroke-width:1.5;"/>
   </g>
   <g id="line2d_24">
    <path clip-path="url(#p8da7ab0fb8)" d="M 34.240625 357.467057 
L 37.256841 342.221362 
L 40.273057 354.208781 
L 43.289274 338.086412 
L 46.30549 338.086412 
L 49.321706 342.221362 
L 52.337922 354.208781 
L 55.354139 342.221362 
L 58.370355 342.221362 
L 61.386571 338.086412 
L 70.43522 338.086412 
L 73.451436 331.444522 
L 76.467652 338.086412 
L 79.483868 328.937582 
L 82.500084 354.208781 
L 94.564949 354.208781 
L 97.581166 348.863253 
L 100.597382 354.208781 
L 112.662247 354.208781 
L 115.678463 342.221362 
L 118.694679 354.208781 
L 121.710895 338.086412 
L 124.727111 354.208781 
L 127.743328 328.937582 
L 130.759544 354.208781 
L 133.77576 342.221362 
L 136.791976 354.208781 
L 139.808193 342.221362 
L 142.824409 354.208781 
L 145.840625 354.208781 
L 148.856841 331.444522 
L 151.873057 354.208781 
L 154.889274 338.086412 
L 157.90549 354.208781 
L 160.921706 338.086412 
L 163.937922 354.208781 
L 166.954139 342.221362 
L 169.970355 348.863253 
L 172.986571 354.208781 
L 176.002787 342.221362 
L 179.019003 354.208781 
L 188.067652 354.208781 
L 191.083868 342.221362 
L 194.100084 354.208781 
L 197.116301 338.086412 
L 200.132517 354.208781 
L 203.148733 347.235242 
L 206.164949 354.208781 
L 209.181166 342.221362 
L 212.197382 354.208781 
L 215.213598 342.221362 
L 218.229814 354.208781 
L 221.24603 354.208781 
L 224.262247 342.221362 
L 227.278463 354.208781 
L 230.294679 331.444522 
L 233.310895 354.208781 
L 236.327111 338.086412 
L 239.343328 354.208781 
L 242.359544 360.850671 
L 245.37576 348.863253 
L 248.391976 354.208781 
L 257.440625 354.208781 
L 260.456841 342.221362 
L 263.473057 354.208781 
L 266.489274 328.937582 
L 269.50549 354.208781 
L 272.521706 338.086412 
L 275.537922 354.208781 
L 278.554139 342.221362 
L 281.570355 354.208781 
L 290.619003 354.208781 
L 293.63522 342.221362 
L 296.651436 367.160913 
L 299.667652 338.086412 
L 302.683868 354.208781 
L 305.700084 338.086412 
L 308.716301 354.208781 
L 311.732517 342.221362 
L 314.748733 348.863253 
L 317.764949 354.208781 
L 320.781166 342.221362 
L 323.797382 354.208781 
L 332.84603 354.208781 
L 335.862247 342.221362 
L 338.878463 354.208781 
L 341.894679 338.086412 
L 344.910895 354.208781 
L 347.927111 328.937582 
L 350.943328 354.208781 
L 353.959544 342.221362 
L 356.97576 354.208781 
L 359.991976 342.221362 
L 363.008193 354.208781 
L 366.024409 354.208781 
L 369.040625 331.444522 
L 372.056841 354.208781 
L 375.073057 338.086412 
L 378.089274 354.208781 
L 381.10549 347.235242 
L 384.121706 347.235242 
L 387.137922 354.208781 
L 390.154139 338.086412 
L 393.170355 354.208781 
L 396.186571 342.221362 
L 399.202787 354.208781 
L 408.251436 354.208781 
L 411.267652 342.221362 
L 414.283868 354.208781 
L 417.300084 338.086412 
L 420.316301 354.208781 
L 423.332517 338.086412 
L 426.348733 354.208781 
L 429.364949 342.221362 
L 432.381166 354.208781 
L 435.397382 342.221362 
L 438.413598 354.208781 
L 441.429814 354.208781 
L 444.44603 342.221362 
L 447.462247 354.208781 
L 450.478463 331.444522 
L 453.494679 354.208781 
L 456.510895 347.235242 
L 459.527111 348.863253 
L 462.543328 354.208781 
L 465.559544 328.937582 
L 468.57576 354.208781 
L 477.624409 354.208781 
L 480.640625 342.221362 
L 483.656841 354.208781 
L 486.673057 328.937582 
L 489.689274 354.208781 
L 492.70549 338.086412 
L 495.721706 354.208781 
L 498.737922 342.221362 
L 501.754139 354.208781 
L 510.802787 354.208781 
L 513.819003 342.221362 
L 516.83522 354.208781 
L 519.851436 338.086412 
L 522.867652 354.208781 
L 525.883868 347.235242 
L 528.900084 358.012083 
L 531.916301 354.208781 
L 534.932517 338.086412 
L 537.948733 354.208781 
L 540.964949 342.221362 
L 543.981166 354.208781 
L 553.029814 354.208781 
L 556.04603 342.221362 
L 559.062247 354.208781 
L 562.078463 338.086412 
L 565.094679 354.208781 
L 568.110895 328.937582 
L 571.127111 354.208781 
L 574.143328 342.221362 
L 577.159544 354.208781 
L 580.17576 342.221362 
L 583.191976 354.208781 
L 586.208193 354.208781 
L 589.224409 382.951634 
L 589.224409 382.951634 
" style="fill:none;stroke:#a26e17;stroke-linecap:square;stroke-width:1.5;"/>
   </g>
   <g id="patch_3">
    <path d="M 34.240625 410.398125 
L 34.240625 22.318125 
" style="fill:none;stroke:#000000;stroke-linecap:square;stroke-linejoin:miter;stroke-width:0.8;"/>
   </g>
   <g id="patch_4">
    <path d="M 592.240625 410.398125 
L 592.240625 22.318125 
" style="fill:none;stroke:#000000;stroke-linecap:square;stroke-linejoin:miter;stroke-width:0.8;"/>
   </g>
   <g id="patch_5">
    <path d="M 34.240625 410.398125 
L 592.240625 410.398125 
" style="fill:none;stroke:#000000;stroke-linecap:square;stroke-linejoin:miter;stroke-width:0.8;"/>
   </g>
   <g id="patch_6">
    <path d="M 34.240625 22.318125 
L 592.240625 22.318125 
" style="fill:none;stroke:#000000;stroke-linecap:square;stroke-linejoin:miter;stroke-width:0.8;"/>
   </g>
   <g id="text_21">
    <!-- Section Entropy (sampled @ 200): cape-9472-d69be688e -->
    <defs>
     <path d="M 9.421875 54.6875 
L 18.40625 54.6875 
L 18.40625 0 
L 9.421875 0 
z
M 9.421875 75.984375 
L 18.40625 75.984375 
L 18.40625 64.59375 
L 9.421875 64.59375 
z
" id="DejaVuSans-69"/>
     <path d="M 31 75.875 
Q 24.46875 64.65625 21.28125 53.65625 
Q 18.109375 42.671875 18.109375 31.390625 
Q 18.109375 20.125 21.3125 9.0625 
Q 24.515625 -2 31 -13.1875 
L 23.1875 -13.1875 
Q 15.875 -1.703125 12.234375 9.375 
Q 8.59375 20.453125 8.59375 31.390625 
Q 8.59375 42.28125 12.203125 53.3125 
Q 15.828125 64.359375 23.1875 75.875 
z
" id="DejaVuSans-28"/>
     <path d="M 44.28125 53.078125 
L 44.28125 44.578125 
Q 40.484375 46.53125 36.375 47.5 
Q 32.28125 48.484375 27.875 48.484375 
Q 21.1875 48.484375 17.84375 46.4375 
Q 14.5 44.390625 14.5 40.28125 
Q 14.5 37.15625 16.890625 35.375 
Q 19.28125 33.59375 26.515625 31.984375 
L 29.59375 31.296875 
Q 39.15625 29.25 43.1875 25.515625 
Q 47.21875 21.78125 47.21875 15.09375 
Q 47.21875 7.46875 41.1875 3.015625 
Q 35.15625 -1.421875 24.609375 -1.421875 
Q 20.21875 -1.421875 15.453125 -0.5625 
Q 10.6875 0.296875 5.421875 2 
L 5.421875 11.28125 
Q 10.40625 8.6875 15.234375 7.390625 
Q 20.0625 6.109375 24.8125 6.109375 
Q 31.15625 6.109375 34.5625 8.28125 
Q 37.984375 10.453125 37.984375 14.40625 
Q 37.984375 18.0625 35.515625 20.015625 
Q 33.0625 21.96875 24.703125 23.78125 
L 21.578125 24.515625 
Q 13.234375 26.265625 9.515625 29.90625 
Q 5.8125 33.546875 5.8125 39.890625 
Q 5.8125 47.609375 11.28125 51.796875 
Q 16.75 56 26.8125 56 
Q 31.78125 56 36.171875 55.265625 
Q 40.578125 54.546875 44.28125 53.078125 
z
" id="DejaVuSans-73"/>
     <path d="M 45.40625 46.390625 
L 45.40625 75.984375 
L 54.390625 75.984375 
L 54.390625 0 
L 45.40625 0 
L 45.40625 8.203125 
Q 42.578125 3.328125 38.25 0.953125 
Q 33.9375 -1.421875 27.875 -1.421875 
Q 17.96875 -1.421875 11.734375 6.484375 
Q 5.515625 14.40625 5.515625 27.296875 
Q 5.515625 40.1875 11.734375 48.09375 
Q 17.96875 56 27.875 56 
Q 33.9375 56 38.25 53.625 
Q 42.578125 51.265625 45.40625 46.390625 
z
M 14.796875 27.296875 
Q 14.796875 17.390625 18.875 11.75 
Q 22.953125 6.109375 30.078125 6.109375 
Q 37.203125 6.109375 41.296875 11.75 
Q 45.40625 17.390625 45.40625 27.296875 
Q 45.40625 37.203125 41.296875 42.84375 
Q 37.203125 48.484375 30.078125 48.484375 
Q 22.953125 48.484375 18.875 42.84375 
Q 14.796875 37.203125 14.796875 27.296875 
z
" id="DejaVuSans-64"/>
     <path d="M 37.203125 26.21875 
Q 37.203125 19.234375 40.671875 15.25 
Q 44.140625 11.28125 50.203125 11.28125 
Q 56.203125 11.28125 59.640625 15.28125 
Q 63.09375 19.28125 63.09375 26.21875 
Q 63.09375 33.0625 59.578125 37.078125 
Q 56.0625 41.109375 50.09375 41.109375 
Q 44.1875 41.109375 40.6875 37.109375 
Q 37.203125 33.109375 37.203125 26.21875 
z
M 63.8125 11.625 
Q 60.890625 7.859375 57.109375 6.078125 
Q 53.328125 4.296875 48.296875 4.296875 
Q 39.890625 4.296875 34.640625 10.375 
Q 29.390625 16.453125 29.390625 26.21875 
Q 29.390625 35.984375 34.65625 42.078125 
Q 39.9375 48.1875 48.296875 48.1875 
Q 53.328125 48.1875 57.125 46.359375 
Q 60.9375 44.53125 63.8125 40.828125 
L 63.8125 47.21875 
L 70.796875 47.21875 
L 70.796875 11.28125 
Q 77.9375 12.359375 81.953125 17.796875 
Q 85.984375 23.25 85.984375 31.890625 
Q 85.984375 37.109375 84.4375 41.703125 
Q 82.90625 46.296875 79.78125 50.203125 
Q 74.703125 56.59375 67.40625 59.984375 
Q 60.109375 63.375 51.515625 63.375 
Q 45.515625 63.375 39.984375 61.78125 
Q 34.46875 60.203125 29.78125 57.078125 
Q 22.125 52.09375 17.796875 44.015625 
Q 13.484375 35.9375 13.484375 26.515625 
Q 13.484375 18.75 16.28125 11.953125 
Q 19.09375 5.171875 24.421875 0 
Q 29.546875 -5.078125 36.28125 -7.734375 
Q 43.015625 -10.40625 50.6875 -10.40625 
Q 56.984375 -10.40625 63.0625 -8.28125 
Q 69.140625 -6.15625 74.21875 -2.203125 
L 78.609375 -7.625 
Q 72.515625 -12.359375 65.3125 -14.875 
Q 58.109375 -17.390625 50.6875 -17.390625 
Q 41.65625 -17.390625 33.640625 -14.1875 
Q 25.640625 -10.984375 19.390625 -4.890625 
Q 13.140625 1.21875 9.859375 9.25 
Q 6.59375 17.28125 6.59375 26.515625 
Q 6.59375 35.40625 9.90625 43.453125 
Q 13.234375 51.515625 19.390625 57.625 
Q 25.6875 63.8125 33.9375 67.109375 
Q 42.1875 70.40625 51.421875 70.40625 
Q 61.765625 70.40625 70.625 66.15625 
Q 79.5 61.921875 85.5 54.109375 
Q 89.15625 49.3125 91.078125 43.703125 
Q 93.015625 38.09375 93.015625 32.078125 
Q 93.015625 19.234375 85.25 11.8125 
Q 77.484375 4.390625 63.8125 4.109375 
z
" id="DejaVuSans-40"/>
     <path d="M 8.015625 75.875 
L 15.828125 75.875 
Q 23.140625 64.359375 26.78125 53.3125 
Q 30.421875 42.28125 30.421875 31.390625 
Q 30.421875 20.453125 26.78125 9.375 
Q 23.140625 -1.703125 15.828125 -13.1875 
L 8.015625 -13.1875 
Q 14.5 -2 17.703125 9.0625 
Q 20.90625 20.125 20.90625 31.390625 
Q 20.90625 42.671875 17.703125 53.65625 
Q 14.5 64.65625 8.015625 75.875 
z
" id="DejaVuSans-29"/>
     <path d="M 11.71875 12.40625 
L 22.015625 12.40625 
L 22.015625 0 
L 11.71875 0 
z
M 11.71875 51.703125 
L 22.015625 51.703125 
L 22.015625 39.3125 
L 11.71875 39.3125 
z
" id="DejaVuSans-3a"/>
     <path d="M 4.890625 31.390625 
L 31.203125 31.390625 
L 31.203125 23.390625 
L 4.890625 23.390625 
z
" id="DejaVuSans-2d"/>
    </defs>
    <g transform="translate(140.02625 16.318125)scale(0.12 -0.12)">
     <use xlink:href="#DejaVuSans-53"/>
     <use x="63.476562" xlink:href="#DejaVuSans-65"/>
     <use x="125" xlink:href="#DejaVuSans-63"/>
     <use x="179.980469" xlink:href="#DejaVuSans-74"/>
     <use x="219.189453" xlink:href="#DejaVuSans-69"/>
     <use x="246.972656" xlink:href="#DejaVuSans-6f"/>
     <use x="308.154297" xlink:href="#DejaVuSans-6e"/>
     <use x="371.533203" xlink:href="#DejaVuSans-20"/>
     <use x="403.320312" xlink:href="#DejaVuSans-45"/>
     <use x="466.503906" xlink:href="#DejaVuSans-6e"/>
     <use x="529.882812" xlink:href="#DejaVuSans-74"/>
     <use x="569.091797" xlink:href="#DejaVuSans-72"/>
     <use x="610.173828" xlink:href="#DejaVuSans-6f"/>
     <use x="671.355469" xlink:href="#DejaVuSans-70"/>
     <use x="734.832031" xlink:href="#DejaVuSans-79"/>
     <use x="794.011719" xlink:href="#DejaVuSans-20"/>
     <use x="825.798828" xlink:href="#DejaVuSans-28"/>
     <use x="864.8125" xlink:href="#DejaVuSans-73"/>
     <use x="916.912109" xlink:href="#DejaVuSans-61"/>
     <use x="978.191406" xlink:href="#DejaVuSans-6d"/>
     <use x="1075.603516" xlink:href="#DejaVuSans-70"/>
     <use x="1139.080078" xlink:href="#DejaVuSans-6c"/>
     <use x="1166.863281" xlink:href="#DejaVuSans-65"/>
     <use x="1228.386719" xlink:href="#DejaVuSans-64"/>
     <use x="1291.863281" xlink:href="#DejaVuSans-20"/>
     <use x="1323.650391" xlink:href="#DejaVuSans-40"/>
     <use x="1423.650391" xlink:href="#DejaVuSans-20"/>
     <use x="1455.4375" xlink:href="#DejaVuSans-32"/>
     <use x="1519.060547" xlink:href="#DejaVuSans-30"/>
     <use x="1582.683594" xlink:href="#DejaVuSans-30"/>
     <use x="1646.306641" xlink:href="#DejaVuSans-29"/>
     <use x="1685.320312" xlink:href="#DejaVuSans-3a"/>
     <use x="1719.011719" xlink:href="#DejaVuSans-20"/>
     <use x="1750.798828" xlink:href="#DejaVuSans-63"/>
     <use x="1805.779297" xlink:href="#DejaVuSans-61"/>
     <use x="1867.058594" xlink:href="#DejaVuSans-70"/>
     <use x="1930.535156" xlink:href="#DejaVuSans-65"/>
     <use x="1992.058594" xlink:href="#DejaVuSans-2d"/>
     <use x="2028.142578" xlink:href="#DejaVuSans-39"/>
     <use x="2091.765625" xlink:href="#DejaVuSans-34"/>
     <use x="2155.388672" xlink:href="#DejaVuSans-37"/>
     <use x="2219.011719" xlink:href="#DejaVuSans-32"/>
     <use x="2282.634766" xlink:href="#DejaVuSans-2d"/>
     <use x="2318.71875" xlink:href="#DejaVuSans-64"/>
     <use x="2382.195312" xlink:href="#DejaVuSans-36"/>
     <use x="2445.818359" xlink:href="#DejaVuSans-39"/>
     <use x="2509.441406" xlink:href="#DejaVuSans-62"/>
     <use x="2572.917969" xlink:href="#DejaVuSans-65"/>
     <use x="2634.441406" xlink:href="#DejaVuSans-36"/>
     <use x="2698.064453" xlink:href="#DejaVuSans-38"/>
     <use x="2761.6875" xlink:href="#DejaVuSans-38"/>
     <use x="2825.310547" xlink:href="#DejaVuSans-65"/>
    </g>
   </g>
   <g id="legend_1">
    <g id="patch_7">
     <path d="M 523.428125 118.386875 
L 585.240625 118.386875 
Q 587.240625 118.386875 587.240625 116.386875 
L 587.240625 29.318125 
Q 587.240625 27.318125 585.240625 27.318125 
L 523.428125 27.318125 
Q 521.428125 27.318125 521.428125 29.318125 
L 521.428125 116.386875 
Q 521.428125 118.386875 523.428125 118.386875 
z
" style="fill:#ffffff;opacity:0.8;stroke:#cccccc;stroke-linejoin:miter;"/>
    </g>
    <g id="line2d_25">
     <path d="M 525.428125 35.416562 
L 545.428125 35.416562 
" style="fill:none;stroke:#35db9d;stroke-linecap:square;stroke-width:1.5;"/>
    </g>
    <g id="line2d_26"/>
    <g id="text_22">
     <!-- .text -->
     <defs>
      <path d="M 10.6875 12.40625 
L 21 12.40625 
L 21 0 
L 10.6875 0 
z
" id="DejaVuSans-2e"/>
      <path d="M 54.890625 54.6875 
L 35.109375 28.078125 
L 55.90625 0 
L 45.3125 0 
L 29.390625 21.484375 
L 13.484375 0 
L 2.875 0 
L 24.125 28.609375 
L 4.6875 54.6875 
L 15.28125 54.6875 
L 29.78125 35.203125 
L 44.28125 54.6875 
z
" id="DejaVuSans-78"/>
     </defs>
     <g transform="translate(553.428125 38.916562)scale(0.1 -0.1)">
      <use xlink:href="#DejaVuSans-2e"/>
      <use x="31.787109" xlink:href="#DejaVuSans-74"/>
      <use x="70.996094" xlink:href="#DejaVuSans-65"/>
      <use x="132.503906" xlink:href="#DejaVuSans-78"/>
      <use x="191.683594" xlink:href="#DejaVuSans-74"/>
     </g>
    </g>
    <g id="line2d_27">
     <path d="M 525.428125 50.094687 
L 545.428125 50.094687 
" style="fill:none;stroke:#ed2a25;stroke-linecap:square;stroke-width:1.5;"/>
    </g>
    <g id="line2d_28"/>
    <g id="text_23">
     <!-- .rdata -->
     <g transform="translate(553.428125 53.594687)scale(0.1 -0.1)">
      <use xlink:href="#DejaVuSans-2e"/>
      <use x="31.787109" xlink:href="#DejaVuSans-72"/>
      <use x="72.884766" xlink:href="#DejaVuSans-64"/>
      <use x="136.361328" xlink:href="#DejaVuSans-61"/>
      <use x="197.640625" xlink:href="#DejaVuSans-74"/>
      <use x="236.849609" xlink:href="#DejaVuSans-61"/>
     </g>
    </g>
    <g id="line2d_29">
     <path d="M 525.428125 64.772812 
L 545.428125 64.772812 
" style="fill:none;stroke:#86b1e0;stroke-linecap:square;stroke-width:1.5;"/>
    </g>
    <g id="line2d_30"/>
    <g id="text_24">
     <!-- .data -->
     <g transform="translate(553.428125 68.272812)scale(0.1 -0.1)">
      <use xlink:href="#DejaVuSans-2e"/>
      <use x="31.787109" xlink:href="#DejaVuSans-64"/>
      <use x="95.263672" xlink:href="#DejaVuSans-61"/>
      <use x="156.542969" xlink:href="#DejaVuSans-74"/>
      <use x="195.751953" xlink:href="#DejaVuSans-61"/>
     </g>
    </g>
    <g id="line2d_31">
     <path d="M 525.428125 79.450937 
L 545.428125 79.450937 
" style="fill:none;stroke:#cc5da6;stroke-linecap:square;stroke-width:1.5;"/>
    </g>
    <g id="line2d_32"/>
    <g id="text_25">
     <!-- CODE -->
     <defs>
      <path d="M 64.40625 67.28125 
L 64.40625 56.890625 
Q 59.421875 61.53125 53.78125 63.8125 
Q 48.140625 66.109375 41.796875 66.109375 
Q 29.296875 66.109375 22.65625 58.46875 
Q 16.015625 50.828125 16.015625 36.375 
Q 16.015625 21.96875 22.65625 14.328125 
Q 29.296875 6.6875 41.796875 6.6875 
Q 48.140625 6.6875 53.78125 8.984375 
Q 59.421875 11.28125 64.40625 15.921875 
L 64.40625 5.609375 
Q 59.234375 2.09375 53.4375 0.328125 
Q 47.65625 -1.421875 41.21875 -1.421875 
Q 24.65625 -1.421875 15.125 8.703125 
Q 5.609375 18.84375 5.609375 36.375 
Q 5.609375 53.953125 15.125 64.078125 
Q 24.65625 74.21875 41.21875 74.21875 
Q 47.75 74.21875 53.53125 72.484375 
Q 59.328125 70.75 64.40625 67.28125 
z
" id="DejaVuSans-43"/>
      <path d="M 39.40625 66.21875 
Q 28.65625 66.21875 22.328125 58.203125 
Q 16.015625 50.203125 16.015625 36.375 
Q 16.015625 22.609375 22.328125 14.59375 
Q 28.65625 6.59375 39.40625 6.59375 
Q 50.140625 6.59375 56.421875 14.59375 
Q 62.703125 22.609375 62.703125 36.375 
Q 62.703125 50.203125 56.421875 58.203125 
Q 50.140625 66.21875 39.40625 66.21875 
z
M 39.40625 74.21875 
Q 54.734375 74.21875 63.90625 63.9375 
Q 73.09375 53.65625 73.09375 36.375 
Q 73.09375 19.140625 63.90625 8.859375 
Q 54.734375 -1.421875 39.40625 -1.421875 
Q 24.03125 -1.421875 14.8125 8.828125 
Q 5.609375 19.09375 5.609375 36.375 
Q 5.609375 53.65625 14.8125 63.9375 
Q 24.03125 74.21875 39.40625 74.21875 
z
" id="DejaVuSans-4f"/>
      <path d="M 19.671875 64.796875 
L 19.671875 8.109375 
L 31.59375 8.109375 
Q 46.6875 8.109375 53.6875 14.9375 
Q 60.6875 21.78125 60.6875 36.53125 
Q 60.6875 51.171875 53.6875 57.984375 
Q 46.6875 64.796875 31.59375 64.796875 
z
M 9.8125 72.90625 
L 30.078125 72.90625 
Q 51.265625 72.90625 61.171875 64.09375 
Q 71.09375 55.28125 71.09375 36.53125 
Q 71.09375 17.671875 61.125 8.828125 
Q 51.171875 0 30.078125 0 
L 9.8125 0 
z
" id="DejaVuSans-44"/>
     </defs>
     <g transform="translate(553.428125 82.950937)scale(0.1 -0.1)">
      <use xlink:href="#DejaVuSans-43"/>
      <use x="69.824219" xlink:href="#DejaVuSans-4f"/>
      <use x="148.535156" xlink:href="#DejaVuSans-44"/>
      <use x="225.537109" xlink:href="#DejaVuSans-45"/>
     </g>
    </g>
    <g id="line2d_33">
     <path d="M 525.428125 94.129062 
L 545.428125 94.129062 
" style="fill:none;stroke:#3819b5;stroke-linecap:square;stroke-width:1.5;"/>
    </g>
    <g id="line2d_34"/>
    <g id="text_26">
     <!-- .rsrc -->
     <g transform="translate(553.428125 97.629062)scale(0.1 -0.1)">
      <use xlink:href="#DejaVuSans-2e"/>
      <use x="31.787109" xlink:href="#DejaVuSans-72"/>
      <use x="72.900391" xlink:href="#DejaVuSans-73"/>
      <use x="125" xlink:href="#DejaVuSans-72"/>
      <use x="166.082031" xlink:href="#DejaVuSans-63"/>
     </g>
    </g>
    <g id="line2d_35">
     <path d="M 525.428125 108.807187 
L 545.428125 108.807187 
" style="fill:none;stroke:#a26e17;stroke-linecap:square;stroke-width:1.5;"/>
    </g>
    <g id="line2d_36"/>
    <g id="text_27">
     <!-- .reloc -->
     <g transform="translate(553.428125 112.307187)scale(0.1 -0.1)">
      <use xlink:href="#DejaVuSans-2e"/>
      <use x="31.787109" xlink:href="#DejaVuSans-72"/>
      <use x="72.869141" xlink:href="#DejaVuSans-65"/>
      <use x="134.392578" xlink:href="#DejaVuSans-6c"/>
      <use x="162.175781" xlink:href="#DejaVuSans-6f"/>
      <use x="223.357422" xlink:href="#DejaVuSans-63"/>
     </g>
    </g>
   </g>
  </g>
 </g>
 <defs>
  <clipPath id="p8da7ab0fb8">
   <rect height="388.08" width="558" x="34.240625" y="22.318125"/>
  </clipPath>
 </defs>
</svg>
