<?xml version="1.0" encoding="utf-8" standalone="no"?>
<!DOCTYPE svg PUBLIC "-//W3C//DTD SVG 1.1//EN"
  "http://www.w3.org/Graphics/SVG/1.1/DTD/svg11.dtd">
<!-- Created with matplotlib (http://matplotlib.org/) -->
<svg height="447.954375pt" version="1.1" viewBox="0 0 602.940625 447.954375" width="602.940625pt" xmlns="http://www.w3.org/2000/svg" xmlns:xlink="http://www.w3.org/1999/xlink">
 <defs>
  <style type="text/css">
*{stroke-linecap:butt;stroke-linejoin:round;}
  </style>
 </defs>
 <g id="figure_1">
  <g id="patch_1">
   <path d="M 0 447.954375 
L 602.940625 447.954375 
L 602.940625 0 
L 0 0 
z
" style="fill:#ffffff;"/>
  </g>
  <g id="axes_1">
   <g id="patch_2">
    <path d="M 34.240625 410.398125 
L 592.240625 410.398125 
L 592.240625 22.318125 
L 34.240625 22.318125 
z
" style="fill:#ffffff;"/>
   </g>
   <g id="matplotlib.axis_1">
    <g id="xtick_1">
     <g id="line2d_1">
      <defs>
       <path d="M 0 0 
L 0 3.5 
" id="mb5fc583cad" style="stroke:#000000;stroke-width:0.8;"/>
      </defs>
      <g>
       <use style="stroke:#000000;stroke-width:0.8;" x="34.240625" xlink:href="#mb5fc583cad" y="410.398125"/>
      </g>
     </g>
     <g id="text_1">
      <!-- 0 -->
      <defs>
       <path d="M 31.78125 66.40625 
Q 24.171875 66.40625 20.328125 58.90625 
Q 16.5 51.421875 16.5 36.375 
Q 16.5 21.390625 20.328125 13.890625 
Q 24.171875 6.390625 31.78125 6.390625 
Q 39.453125 6.390625 43.28125 13.890625 
Q 47.125 21.390625 47.125 36.375 
Q 47.125 51.421875 43.28125 58.90625 
Q 39.453125 66.40625 31.78125 66.40625 
z
M 31.78125 74.21875 
Q 44.046875 74.21875 50.515625 64.515625 
Q 56.984375 54.828125 56.984375 36.375 
Q 56.984375 17.96875 50.515625 8.265625 
Q 44.046875 -1.421875 31.78125 -1.421875 
Q 19.53125 -1.421875 13.0625 8.265625 
Q 6.59375 17.96875 6.59375 36.375 
Q 6.59375 54.828125 13.0625 64.515625 
Q 19.53125 74.21875 31.78125 74.21875 
z
" id="DejaVuSans-30"/>
      </defs>
      <g transform="translate(31.059375 424.996562)scale(0.1 -0.1)">
       <use xlink:href="#DejaVuSans-30"/>
      </g>
     </g>
    </g>
    <g id="xtick_2">
     <g id="line2d_2">
      <g>
       <use style="stroke:#000000;stroke-width:0.8;" x="109.64603" xlink:href="#mb5fc583cad" y="410.398125"/>
      </g>
     </g>
     <g id="text_2">
      <!-- 10 -->
      <defs>
       <path d="M 12.40625 8.296875 
L 28.515625 8.296875 
L 28.515625 63.921875 
L 10.984375 60.40625 
L 10.984375 69.390625 
L 28.421875 72.90625 
L 38.28125 72.90625 
L 38.28125 8.296875 
L 54.390625 8.296875 
L 54.390625 0 
L 12.40625 0 
z
" id="DejaVuSans-31"/>
      </defs>
      <g transform="translate(103.28353 424.996562)scale(0.1 -0.1)">
       <use xlink:href="#DejaVuSans-31"/>
       <use x="63.623047" xlink:href="#DejaVuSans-30"/>
      </g>
     </g>
    </g>
    <g id="xtick_3">
     <g id="line2d_3">
      <g>
       <use style="stroke:#000000;stroke-width:0.8;" x="185.051436" xlink:href="#mb5fc583cad" y="410.398125"/>
      </g>
     </g>
     <g id="text_3">
      <!-- 20 -->
      <defs>
       <path d="M 19.1875 8.296875 
L 53.609375 8.296875 
L 53.609375 0 
L 7.328125 0 
L 7.328125 8.296875 
Q 12.9375 14.109375 22.625 23.890625 
Q 32.328125 33.6875 34.8125 36.53125 
Q 39.546875 41.84375 41.421875 45.53125 
Q 43.3125 49.21875 43.3125 52.78125 
Q 43.3125 58.59375 39.234375 62.25 
Q 35.15625 65.921875 28.609375 65.921875 
Q 23.96875 65.921875 18.8125 64.3125 
Q 13.671875 62.703125 7.8125 59.421875 
L 7.8125 69.390625 
Q 13.765625 71.78125 18.9375 73 
Q 24.125 74.21875 28.421875 74.21875 
Q 39.75 74.21875 46.484375 68.546875 
Q 53.21875 62.890625 53.21875 53.421875 
Q 53.21875 48.921875 51.53125 44.890625 
Q 49.859375 40.875 45.40625 35.40625 
Q 44.1875 33.984375 37.640625 27.21875 
Q 31.109375 20.453125 19.1875 8.296875 
z
" id="DejaVuSans-32"/>
      </defs>
      <g transform="translate(178.688936 424.996562)scale(0.1 -0.1)">
       <use xlink:href="#DejaVuSans-32"/>
       <use x="63.623047" xlink:href="#DejaVuSans-30"/>
      </g>
     </g>
    </g>
    <g id="xtick_4">
     <g id="line2d_4">
      <g>
       <use style="stroke:#000000;stroke-width:0.8;" x="260.456841" xlink:href="#mb5fc583cad" y="410.398125"/>
      </g>
     </g>
     <g id="text_4">
      <!-- 30 -->
      <defs>
       <path d="M 40.578125 39.3125 
Q 47.65625 37.796875 51.625 33 
Q 55.609375 28.21875 55.609375 21.1875 
Q 55.609375 10.40625 48.1875 4.484375 
Q 40.765625 -1.421875 27.09375 -1.421875 
Q 22.515625 -1.421875 17.65625 -0.515625 
Q 12.796875 0.390625 7.625 2.203125 
L 7.625 11.71875 
Q 11.71875 9.328125 16.59375 8.109375 
Q 21.484375 6.890625 26.8125 6.890625 
Q 36.078125 6.890625 40.9375 10.546875 
Q 45.796875 14.203125 45.796875 21.1875 
Q 45.796875 27.640625 41.28125 31.265625 
Q 36.765625 34.90625 28.71875 34.90625 
L 20.21875 34.90625 
L 20.21875 43.015625 
L 29.109375 43.015625 
Q 36.375 43.015625 40.234375 45.921875 
Q 44.09375 48.828125 44.09375 54.296875 
Q 44.09375 59.90625 40.109375 62.90625 
Q 36.140625 65.921875 28.71875 65.921875 
Q 24.65625 65.921875 20.015625 65.03125 
Q 15.375 64.15625 9.8125 62.3125 
L 9.8125 71.09375 
Q 15.4375 72.65625 20.34375 73.4375 
Q 25.25 74.21875 29.59375 74.21875 
Q 40.828125 74.21875 47.359375 69.109375 
Q 53.90625 64.015625 53.90625 55.328125 
Q 53.90625 49.265625 50.4375 45.09375 
Q 46.96875 40.921875 40.578125 39.3125 
z
" id="DejaVuSans-33"/>
      </defs>
      <g transform="translate(254.094341 424.996562)scale(0.1 -0.1)">
       <use xlink:href="#DejaVuSans-33"/>
       <use x="63.623047" xlink:href="#DejaVuSans-30"/>
      </g>
     </g>
    </g>
    <g id="xtick_5">
     <g id="line2d_5">
      <g>
       <use style="stroke:#000000;stroke-width:0.8;" x="335.862247" xlink:href="#mb5fc583cad" y="410.398125"/>
      </g>
     </g>
     <g id="text_5">
      <!-- 40 -->
      <defs>
       <path d="M 37.796875 64.3125 
L 12.890625 25.390625 
L 37.796875 25.390625 
z
M 35.203125 72.90625 
L 47.609375 72.90625 
L 47.609375 25.390625 
L 58.015625 25.390625 
L 58.015625 17.1875 
L 47.609375 17.1875 
L 47.609375 0 
L 37.796875 0 
L 37.796875 17.1875 
L 4.890625 17.1875 
L 4.890625 26.703125 
z
" id="DejaVuSans-34"/>
      </defs>
      <g transform="translate(329.499747 424.996562)scale(0.1 -0.1)">
       <use xlink:href="#DejaVuSans-34"/>
       <use x="63.623047" xlink:href="#DejaVuSans-30"/>
      </g>
     </g>
    </g>
    <g id="xtick_6">
     <g id="line2d_6">
      <g>
       <use style="stroke:#000000;stroke-width:0.8;" x="411.267652" xlink:href="#mb5fc583cad" y="410.398125"/>
      </g>
     </g>
     <g id="text_6">
      <!-- 50 -->
      <defs>
       <path d="M 10.796875 72.90625 
L 49.515625 72.90625 
L 49.515625 64.59375 
L 19.828125 64.59375 
L 19.828125 46.734375 
Q 21.96875 47.46875 24.109375 47.828125 
Q 26.265625 48.1875 28.421875 48.1875 
Q 40.625 48.1875 47.75 41.5 
Q 54.890625 34.8125 54.890625 23.390625 
Q 54.890625 11.625 47.5625 5.09375 
Q 40.234375 -1.421875 26.90625 -1.421875 
Q 22.3125 -1.421875 17.546875 -0.640625 
Q 12.796875 0.140625 7.71875 1.703125 
L 7.71875 11.625 
Q 12.109375 9.234375 16.796875 8.0625 
Q 21.484375 6.890625 26.703125 6.890625 
Q 35.15625 6.890625 40.078125 11.328125 
Q 45.015625 15.765625 45.015625 23.390625 
Q 45.015625 31 40.078125 35.4375 
Q 35.15625 39.890625 26.703125 39.890625 
Q 22.75 39.890625 18.8125 39.015625 
Q 14.890625 38.140625 10.796875 36.28125 
z
" id="DejaVuSans-35"/>
      </defs>
      <g transform="translate(404.905152 424.996562)scale(0.1 -0.1)">
       <use xlink:href="#DejaVuSans-35"/>
       <use x="63.623047" xlink:href="#DejaVuSans-30"/>
      </g>
     </g>
    </g>
    <g id="xtick_7">
     <g id="line2d_7">
      <g>
       <use style="stroke:#000000;stroke-width:0.8;" x="486.673057" xlink:href="#mb5fc583cad" y="410.398125"/>
      </g>
     </g>
     <g id="text_7">
      <!-- 60 -->
      <defs>
       <path d="M 33.015625 40.375 
Q 26.375 40.375 22.484375 35.828125 
Q 18.609375 31.296875 18.609375 23.390625 
Q 18.609375 15.53125 22.484375 10.953125 
Q 26.375 6.390625 33.015625 6.390625 
Q 39.65625 6.390625 43.53125 10.953125 
Q 47.40625 15.53125 47.40625 23.390625 
Q 47.40625 31.296875 43.53125 35.828125 
Q 39.65625 40.375 33.015625 40.375 
z
M 52.59375 71.296875 
L 52.59375 62.3125 
Q 48.875 64.0625 45.09375 64.984375 
Q 41.3125 65.921875 37.59375 65.921875 
Q 27.828125 65.921875 22.671875 59.328125 
Q 17.53125 52.734375 16.796875 39.40625 
Q 19.671875 43.65625 24.015625 45.921875 
Q 28.375 48.1875 33.59375 48.1875 
Q 44.578125 48.1875 50.953125 41.515625 
Q 57.328125 34.859375 57.328125 23.390625 
Q 57.328125 12.15625 50.6875 5.359375 
Q 44.046875 -1.421875 33.015625 -1.421875 
Q 20.359375 -1.421875 13.671875 8.265625 
Q 6.984375 17.96875 6.984375 36.375 
Q 6.984375 53.65625 15.1875 63.9375 
Q 23.390625 74.21875 37.203125 74.21875 
Q 40.921875 74.21875 44.703125 73.484375 
Q 48.484375 72.75 52.59375 71.296875 
z
" id="DejaVuSans-36"/>
      </defs>
      <g transform="translate(480.310557 424.996562)scale(0.1 -0.1)">
       <use xlink:href="#DejaVuSans-36"/>
       <use x="63.623047" xlink:href="#DejaVuSans-30"/>
      </g>
     </g>
    </g>
    <g id="xtick_8">
     <g id="line2d_8">
      <g>
       <use style="stroke:#000000;stroke-width:0.8;" x="562.078463" xlink:href="#mb5fc583cad" y="410.398125"/>
      </g>
     </g>
     <g id="text_8">
      <!-- 70 -->
      <defs>
       <path d="M 8.203125 72.90625 
L 55.078125 72.90625 
L 55.078125 68.703125 
L 28.609375 0 
L 18.3125 0 
L 43.21875 64.59375 
L 8.203125 64.59375 
z
" id="DejaVuSans-37"/>
      </defs>
      <g transform="translate(555.715963 424.996562)scale(0.1 -0.1)">
       <use xlink:href="#DejaVuSans-37"/>
       <use x="63.623047" xlink:href="#DejaVuSans-30"/>
      </g>
     </g>
    </g>
    <g id="text_9">
     <!-- Sample block -->
     <defs>
      <path d="M 53.515625 70.515625 
L 53.515625 60.890625 
Q 47.90625 63.578125 42.921875 64.890625 
Q 37.9375 66.21875 33.296875 66.21875 
Q 25.25 66.21875 20.875 63.09375 
Q 16.5 59.96875 16.5 54.203125 
Q 16.5 49.359375 19.40625 46.890625 
Q 22.3125 44.4375 30.421875 42.921875 
L 36.375 41.703125 
Q 47.40625 39.59375 52.65625 34.296875 
Q 57.90625 29 57.90625 20.125 
Q 57.90625 9.515625 50.796875 4.046875 
Q 43.703125 -1.421875 29.984375 -1.421875 
Q 24.8125 -1.421875 18.96875 -0.25 
Q 13.140625 0.921875 6.890625 3.21875 
L 6.890625 13.375 
Q 12.890625 10.015625 18.65625 8.296875 
Q 24.421875 6.59375 29.984375 6.59375 
Q 38.421875 6.59375 43.015625 9.90625 
Q 47.609375 13.234375 47.609375 19.390625 
Q 47.609375 24.75 44.3125 27.78125 
Q 41.015625 30.8125 33.5 32.328125 
L 27.484375 33.5 
Q 16.453125 35.6875 11.515625 40.375 
Q 6.59375 45.0625 6.59375 53.421875 
Q 6.59375 63.09375 13.40625 68.65625 
Q 20.21875 74.21875 32.171875 74.21875 
Q 37.3125 74.21875 42.625 73.28125 
Q 47.953125 72.359375 53.515625 70.515625 
z
" id="DejaVuSans-53"/>
      <path d="M 34.28125 27.484375 
Q 23.390625 27.484375 19.1875 25 
Q 14.984375 22.515625 14.984375 16.5 
Q 14.984375 11.71875 18.140625 8.90625 
Q 21.296875 6.109375 26.703125 6.109375 
Q 34.1875 6.109375 38.703125 11.40625 
Q 43.21875 16.703125 43.21875 25.484375 
L 43.21875 27.484375 
z
M 52.203125 31.203125 
L 52.203125 0 
L 43.21875 0 
L 43.21875 8.296875 
Q 40.140625 3.328125 35.546875 0.953125 
Q 30.953125 -1.421875 24.3125 -1.421875 
Q 15.921875 -1.421875 10.953125 3.296875 
Q 6 8.015625 6 15.921875 
Q 6 25.140625 12.171875 29.828125 
Q 18.359375 34.515625 30.609375 34.515625 
L 43.21875 34.515625 
L 43.21875 35.40625 
Q 43.21875 41.609375 39.140625 45 
Q 35.0625 48.390625 27.6875 48.390625 
Q 23 48.390625 18.546875 47.265625 
Q 14.109375 46.140625 10.015625 43.890625 
L 10.015625 52.203125 
Q 14.9375 54.109375 19.578125 55.046875 
Q 24.21875 56 28.609375 56 
Q 40.484375 56 46.34375 49.84375 
Q 52.203125 43.703125 52.203125 31.203125 
z
" id="DejaVuSans-61"/>
      <path d="M 52 44.1875 
Q 55.375 50.25 60.0625 53.125 
Q 64.75 56 71.09375 56 
Q 79.640625 56 84.28125 50.015625 
Q 88.921875 44.046875 88.921875 33.015625 
L 88.921875 0 
L 79.890625 0 
L 79.890625 32.71875 
Q 79.890625 40.578125 77.09375 44.375 
Q 74.3125 48.1875 68.609375 48.1875 
Q 61.625 48.1875 57.5625 43.546875 
Q 53.515625 38.921875 53.515625 30.90625 
L 53.515625 0 
L 44.484375 0 
L 44.484375 32.71875 
Q 44.484375 40.625 41.703125 44.40625 
Q 38.921875 48.1875 33.109375 48.1875 
Q 26.21875 48.1875 22.15625 43.53125 
Q 18.109375 38.875 18.109375 30.90625 
L 18.109375 0 
L 9.078125 0 
L 9.078125 54.6875 
L 18.109375 54.6875 
L 18.109375 46.1875 
Q 21.1875 51.21875 25.484375 53.609375 
Q 29.78125 56 35.6875 56 
Q 41.65625 56 45.828125 52.96875 
Q 50 49.953125 52 44.1875 
z
" id="DejaVuSans-6d"/>
      <path d="M 18.109375 8.203125 
L 18.109375 -20.796875 
L 9.078125 -20.796875 
L 9.078125 54.6875 
L 18.109375 54.6875 
L 18.109375 46.390625 
Q 20.953125 51.265625 25.265625 53.625 
Q 29.59375 56 35.59375 56 
Q 45.5625 56 51.78125 48.09375 
Q 58.015625 40.1875 58.015625 27.296875 
Q 58.015625 14.40625 51.78125 6.484375 
Q 45.5625 -1.421875 35.59375 -1.421875 
Q 29.59375 -1.421875 25.265625 0.953125 
Q 20.953125 3.328125 18.109375 8.203125 
z
M 48.6875 27.296875 
Q 48.6875 37.203125 44.609375 42.84375 
Q 40.53125 48.484375 33.40625 48.484375 
Q 26.265625 48.484375 22.1875 42.84375 
Q 18.109375 37.203125 18.109375 27.296875 
Q 18.109375 17.390625 22.1875 11.75 
Q 26.265625 6.109375 33.40625 6.109375 
Q 40.53125 6.109375 44.609375 11.75 
Q 48.6875 17.390625 48.6875 27.296875 
z
" id="DejaVuSans-70"/>
      <path d="M 9.421875 75.984375 
L 18.40625 75.984375 
L 18.40625 0 
L 9.421875 0 
z
" id="DejaVuSans-6c"/>
      <path d="M 56.203125 29.59375 
L 56.203125 25.203125 
L 14.890625 25.203125 
Q 15.484375 15.921875 20.484375 11.0625 
Q 25.484375 6.203125 34.421875 6.203125 
Q 39.59375 6.203125 44.453125 7.46875 
Q 49.3125 8.734375 54.109375 11.28125 
L 54.109375 2.78125 
Q 49.265625 0.734375 44.1875 -0.34375 
Q 39.109375 -1.421875 33.890625 -1.421875 
Q 20.796875 -1.421875 13.15625 6.1875 
Q 5.515625 13.8125 5.515625 26.8125 
Q 5.515625 40.234375 12.765625 48.109375 
Q 20.015625 56 32.328125 56 
Q 43.359375 56 49.78125 48.890625 
Q 56.203125 41.796875 56.203125 29.59375 
z
M 47.21875 32.234375 
Q 47.125 39.59375 43.09375 43.984375 
Q 39.0625 48.390625 32.421875 48.390625 
Q 24.90625 48.390625 20.390625 44.140625 
Q 15.875 39.890625 15.1875 32.171875 
z
" id="DejaVuSans-65"/>
      <path id="DejaVuSans-20"/>
      <path d="M 48.6875 27.296875 
Q 48.6875 37.203125 44.609375 42.84375 
Q 40.53125 48.484375 33.40625 48.484375 
Q 26.265625 48.484375 22.1875 42.84375 
Q 18.109375 37.203125 18.109375 27.296875 
Q 18.109375 17.390625 22.1875 11.75 
Q 26.265625 6.109375 33.40625 6.109375 
Q 40.53125 6.109375 44.609375 11.75 
Q 48.6875 17.390625 48.6875 27.296875 
z
M 18.109375 46.390625 
Q 20.953125 51.265625 25.265625 53.625 
Q 29.59375 56 35.59375 56 
Q 45.5625 56 51.78125 48.09375 
Q 58.015625 40.1875 58.015625 27.296875 
Q 58.015625 14.40625 51.78125 6.484375 
Q 45.5625 -1.421875 35.59375 -1.421875 
Q 29.59375 -1.421875 25.265625 0.953125 
Q 20.953125 3.328125 18.109375 8.203125 
L 18.109375 0 
L 9.078125 0 
L 9.078125 75.984375 
L 18.109375 75.984375 
z
" id="DejaVuSans-62"/>
      <path d="M 30.609375 48.390625 
Q 23.390625 48.390625 19.1875 42.75 
Q 14.984375 37.109375 14.984375 27.296875 
Q 14.984375 17.484375 19.15625 11.84375 
Q 23.34375 6.203125 30.609375 6.203125 
Q 37.796875 6.203125 41.984375 11.859375 
Q 46.1875 17.53125 46.1875 27.296875 
Q 46.1875 37.015625 41.984375 42.703125 
Q 37.796875 48.390625 30.609375 48.390625 
z
M 30.609375 56 
Q 42.328125 56 49.015625 48.375 
Q 55.71875 40.765625 55.71875 27.296875 
Q 55.71875 13.875 49.015625 6.21875 
Q 42.328125 -1.421875 30.609375 -1.421875 
Q 18.84375 -1.421875 12.171875 6.21875 
Q 5.515625 13.875 5.515625 27.296875 
Q 5.515625 40.765625 12.171875 48.375 
Q 18.84375 56 30.609375 56 
z
" id="DejaVuSans-6f"/>
      <path d="M 48.78125 52.59375 
L 48.78125 44.1875 
Q 44.96875 46.296875 41.140625 47.34375 
Q 37.3125 48.390625 33.40625 48.390625 
Q 24.65625 48.390625 19.8125 42.84375 
Q 14.984375 37.3125 14.984375 27.296875 
Q 14.984375 17.28125 19.8125 11.734375 
Q 24.65625 6.203125 33.40625 6.203125 
Q 37.3125 6.203125 41.140625 7.25 
Q 44.96875 8.296875 48.78125 10.40625 
L 48.78125 2.09375 
Q 45.015625 0.34375 40.984375 -0.53125 
Q 36.96875 -1.421875 32.421875 -1.421875 
Q 20.0625 -1.421875 12.78125 6.34375 
Q 5.515625 14.109375 5.515625 27.296875 
Q 5.515625 40.671875 12.859375 48.328125 
Q 20.21875 56 33.015625 56 
Q 37.15625 56 41.109375 55.140625 
Q 45.0625 54.296875 48.78125 52.59375 
z
" id="DejaVuSans-63"/>
      <path d="M 9.078125 75.984375 
L 18.109375 75.984375 
L 18.109375 31.109375 
L 44.921875 54.6875 
L 56.390625 54.6875 
L 27.390625 29.109375 
L 57.625 0 
L 45.90625 0 
L 18.109375 26.703125 
L 18.109375 0 
L 9.078125 0 
z
" id="DejaVuSans-6b"/>
     </defs>
     <g transform="translate(279.635938 438.674687)scale(0.1 -0.1)">
      <use xlink:href="#DejaVuSans-53"/>
      <use x="63.476562" xlink:href="#DejaVuSans-61"/>
      <use x="124.755859" xlink:href="#DejaVuSans-6d"/>
      <use x="222.167969" xlink:href="#DejaVuSans-70"/>
      <use x="285.644531" xlink:href="#DejaVuSans-6c"/>
      <use x="313.427734" xlink:href="#DejaVuSans-65"/>
      <use x="374.951172" xlink:href="#DejaVuSans-20"/>
      <use x="406.738281" xlink:href="#DejaVuSans-62"/>
      <use x="470.214844" xlink:href="#DejaVuSans-6c"/>
      <use x="497.998047" xlink:href="#DejaVuSans-6f"/>
      <use x="559.179688" xlink:href="#DejaVuSans-63"/>
      <use x="614.160156" xlink:href="#DejaVuSans-6b"/>
     </g>
    </g>
   </g>
   <g id="matplotlib.axis_2">
    <g id="ytick_1">
     <g id="line2d_9">
      <defs>
       <path d="M 0 0 
L -3.5 0 
" id="mbb8ac3d04d" style="stroke:#000000;stroke-width:0.8;"/>
      </defs>
      <g>
       <use style="stroke:#000000;stroke-width:0.8;" x="34.240625" xlink:href="#mbb8ac3d04d" y="410.398125"/>
      </g>
     </g>
     <g id="text_10">
      <!-- 0 -->
      <g transform="translate(20.878125 414.197344)scale(0.1 -0.1)">
       <use xlink:href="#DejaVuSans-30"/>
      </g>
     </g>
    </g>
    <g id="ytick_2">
     <g id="line2d_10">
      <g>
       <use style="stroke:#000000;stroke-width:0.8;" x="34.240625" xlink:href="#mbb8ac3d04d" y="367.278125"/>
      </g>
     </g>
     <g id="text_11">
      <!-- 1 -->
      <g transform="translate(20.878125 371.077344)scale(0.1 -0.1)">
       <use xlink:href="#DejaVuSans-31"/>
      </g>
     </g>
    </g>
    <g id="ytick_3">
     <g id="line2d_11">
      <g>
       <use style="stroke:#000000;stroke-width:0.8;" x="34.240625" xlink:href="#mbb8ac3d04d" y="324.158125"/>
      </g>
     </g>
     <g id="text_12">
      <!-- 2 -->
      <g transform="translate(20.878125 327.957344)scale(0.1 -0.1)">
       <use xlink:href="#DejaVuSans-32"/>
      </g>
     </g>
    </g>
    <g id="ytick_4">
     <g id="line2d_12">
      <g>
       <use style="stroke:#000000;stroke-width:0.8;" x="34.240625" xlink:href="#mbb8ac3d04d" y="281.038125"/>
      </g>
     </g>
     <g id="text_13">
      <!-- 3 -->
      <g transform="translate(20.878125 284.837344)scale(0.1 -0.1)">
       <use xlink:href="#DejaVuSans-33"/>
      </g>
     </g>
    </g>
    <g id="ytick_5">
     <g id="line2d_13">
      <g>
       <use style="stroke:#000000;stroke-width:0.8;" x="34.240625" xlink:href="#mbb8ac3d04d" y="237.918125"/>
      </g>
     </g>
     <g id="text_14">
      <!-- 4 -->
      <g transform="translate(20.878125 241.717344)scale(0.1 -0.1)">
       <use xlink:href="#DejaVuSans-34"/>
      </g>
     </g>
    </g>
    <g id="ytick_6">
     <g id="line2d_14">
      <g>
       <use style="stroke:#000000;stroke-width:0.8;" x="34.240625" xlink:href="#mbb8ac3d04d" y="194.798125"/>
      </g>
     </g>
     <g id="text_15">
      <!-- 5 -->
      <g transform="translate(20.878125 198.597344)scale(0.1 -0.1)">
       <use xlink:href="#DejaVuSans-35"/>
      </g>
     </g>
    </g>
    <g id="ytick_7">
     <g id="line2d_15">
      <g>
       <use style="stroke:#000000;stroke-width:0.8;" x="34.240625" xlink:href="#mbb8ac3d04d" y="151.678125"/>
      </g>
     </g>
     <g id="text_16">
      <!-- 6 -->
      <g transform="translate(20.878125 155.477344)scale(0.1 -0.1)">
       <use xlink:href="#DejaVuSans-36"/>
      </g>
     </g>
    </g>
    <g id="ytick_8">
     <g id="line2d_16">
      <g>
       <use style="stroke:#000000;stroke-width:0.8;" x="34.240625" xlink:href="#mbb8ac3d04d" y="108.558125"/>
      </g>
     </g>
     <g id="text_17">
      <!-- 7 -->
      <g transform="translate(20.878125 112.357344)scale(0.1 -0.1)">
       <use xlink:href="#DejaVuSans-37"/>
      </g>
     </g>
    </g>
    <g id="ytick_9">
     <g id="line2d_17">
      <g>
       <use style="stroke:#000000;stroke-width:0.8;" x="34.240625" xlink:href="#mbb8ac3d04d" y="65.438125"/>
      </g>
     </g>
     <g id="text_18">
      <!-- 8 -->
      <defs>
       <path d="M 31.78125 34.625 
Q 24.75 34.625 20.71875 30.859375 
Q 16.703125 27.09375 16.703125 20.515625 
Q 16.703125 13.921875 20.71875 10.15625 
Q 24.75 6.390625 31.78125 6.390625 
Q 38.8125 6.390625 42.859375 10.171875 
Q 46.921875 13.96875 46.921875 20.515625 
Q 46.921875 27.09375 42.890625 30.859375 
Q 38.875 34.625 31.78125 34.625 
z
M 21.921875 38.8125 
Q 15.578125 40.375 12.03125 44.71875 
Q 8.5 49.078125 8.5 55.328125 
Q 8.5 64.0625 14.71875 69.140625 
Q 20.953125 74.21875 31.78125 74.21875 
Q 42.671875 74.21875 48.875 69.140625 
Q 55.078125 64.0625 55.078125 55.328125 
Q 55.078125 49.078125 51.53125 44.71875 
Q 48 40.375 41.703125 38.8125 
Q 48.828125 37.15625 52.796875 32.3125 
Q 56.78125 27.484375 56.78125 20.515625 
Q 56.78125 9.90625 50.3125 4.234375 
Q 43.84375 -1.421875 31.78125 -1.421875 
Q 19.734375 -1.421875 13.25 4.234375 
Q 6.78125 9.90625 6.78125 20.515625 
Q 6.78125 27.484375 10.78125 32.3125 
Q 14.796875 37.15625 21.921875 38.8125 
z
M 18.3125 54.390625 
Q 18.3125 48.734375 21.84375 45.5625 
Q 25.390625 42.390625 31.78125 42.390625 
Q 38.140625 42.390625 41.71875 45.5625 
Q 45.3125 48.734375 45.3125 54.390625 
Q 45.3125 60.0625 41.71875 63.234375 
Q 38.140625 66.40625 31.78125 66.40625 
Q 25.390625 66.40625 21.84375 63.234375 
Q 18.3125 60.0625 18.3125 54.390625 
z
" id="DejaVuSans-38"/>
      </defs>
      <g transform="translate(20.878125 69.237344)scale(0.1 -0.1)">
       <use xlink:href="#DejaVuSans-38"/>
      </g>
     </g>
    </g>
    <g id="ytick_10">
     <g id="line2d_18">
      <g>
       <use style="stroke:#000000;stroke-width:0.8;" x="34.240625" xlink:href="#mbb8ac3d04d" y="22.318125"/>
      </g>
     </g>
     <g id="text_19">
      <!-- 9 -->
      <defs>
       <path d="M 10.984375 1.515625 
L 10.984375 10.5 
Q 14.703125 8.734375 18.5 7.8125 
Q 22.3125 6.890625 25.984375 6.890625 
Q 35.75 6.890625 40.890625 13.453125 
Q 46.046875 20.015625 46.78125 33.40625 
Q 43.953125 29.203125 39.59375 26.953125 
Q 35.25 24.703125 29.984375 24.703125 
Q 19.046875 24.703125 12.671875 31.3125 
Q 6.296875 37.9375 6.296875 49.421875 
Q 6.296875 60.640625 12.9375 67.421875 
Q 19.578125 74.21875 30.609375 74.21875 
Q 43.265625 74.21875 49.921875 64.515625 
Q 56.59375 54.828125 56.59375 36.375 
Q 56.59375 19.140625 48.40625 8.859375 
Q 40.234375 -1.421875 26.421875 -1.421875 
Q 22.703125 -1.421875 18.890625 -0.6875 
Q 15.09375 0.046875 10.984375 1.515625 
z
M 30.609375 32.421875 
Q 37.25 32.421875 41.125 36.953125 
Q 45.015625 41.5 45.015625 49.421875 
Q 45.015625 57.28125 41.125 61.84375 
Q 37.25 66.40625 30.609375 66.40625 
Q 23.96875 66.40625 20.09375 61.84375 
Q 16.21875 57.28125 16.21875 49.421875 
Q 16.21875 41.5 20.09375 36.953125 
Q 23.96875 32.421875 30.609375 32.421875 
z
" id="DejaVuSans-39"/>
      </defs>
      <g transform="translate(20.878125 26.117344)scale(0.1 -0.1)">
       <use xlink:href="#DejaVuSans-39"/>
      </g>
     </g>
    </g>
    <g id="text_20">
     <!-- Entropy -->
     <defs>
      <path d="M 9.8125 72.90625 
L 55.90625 72.90625 
L 55.90625 64.59375 
L 19.671875 64.59375 
L 19.671875 43.015625 
L 54.390625 43.015625 
L 54.390625 34.71875 
L 19.671875 34.71875 
L 19.671875 8.296875 
L 56.78125 8.296875 
L 56.78125 0 
L 9.8125 0 
z
" id="DejaVuSans-45"/>
      <path d="M 54.890625 33.015625 
L 54.890625 0 
L 45.90625 0 
L 45.90625 32.71875 
Q 45.90625 40.484375 42.875 44.328125 
Q 39.84375 48.1875 33.796875 48.1875 
Q 26.515625 48.1875 22.3125 43.546875 
Q 18.109375 38.921875 18.109375 30.90625 
L 18.109375 0 
L 9.078125 0 
L 9.078125 54.6875 
L 18.109375 54.6875 
L 18.109375 46.1875 
Q 21.34375 51.125 25.703125 53.5625 
Q 30.078125 56 35.796875 56 
Q 45.21875 56 50.046875 50.171875 
Q 54.890625 44.34375 54.890625 33.015625 
z
" id="DejaVuSans-6e"/>
      <path d="M 18.3125 70.21875 
L 18.3125 54.6875 
L 36.8125 54.6875 
L 36.8125 47.703125 
L 18.3125 47.703125 
L 18.3125 18.015625 
Q 18.3125 11.328125 20.140625 9.421875 
Q 21.96875 7.515625 27.59375 7.515625 
L 36.8125 7.515625 
L 36.8125 0 
L 27.59375 0 
Q 17.1875 0 13.234375 3.875 
Q 9.28125 7.765625 9.28125 18.015625 
L 9.28125 47.703125 
L 2.6875 47.703125 
L 2.6875 54.6875 
L 9.28125 54.6875 
L 9.28125 70.21875 
z
" id="DejaVuSans-74"/>
      <path d="M 41.109375 46.296875 
Q 39.59375 47.171875 37.8125 47.578125 
Q 36.03125 48 33.890625 48 
Q 26.265625 48 22.1875 43.046875 
Q 18.109375 38.09375 18.109375 28.8125 
L 18.109375 0 
L 9.078125 0 
L 9.078125 54.6875 
L 18.109375 54.6875 
L 18.109375 46.1875 
Q 20.953125 51.171875 25.484375 53.578125 
Q 30.03125 56 36.53125 56 
Q 37.453125 56 38.578125 55.875 
Q 39.703125 55.765625 41.0625 55.515625 
z
" id="DejaVuSans-72"/>
      <path d="M 32.171875 -5.078125 
Q 28.375 -14.84375 24.75 -17.8125 
Q 21.140625 -20.796875 15.09375 -20.796875 
L 7.90625 -20.796875 
L 7.90625 -13.28125 
L 13.1875 -13.28125 
Q 16.890625 -13.28125 18.9375 -11.515625 
Q 21 -9.765625 23.484375 -3.21875 
L 25.09375 0.875 
L 2.984375 54.6875 
L 12.5 54.6875 
L 29.59375 11.921875 
L 46.6875 54.6875 
L 56.203125 54.6875 
z
" id="DejaVuSans-79"/>
     </defs>
     <g transform="translate(14.798437 235.893281)rotate(-90)scale(0.1 -0.1)">
      <use xlink:href="#DejaVuSans-45"/>
      <use x="63.183594" xlink:href="#DejaVuSans-6e"/>
      <use x="126.5625" xlink:href="#DejaVuSans-74"/>
      <use x="165.771484" xlink:href="#DejaVuSans-72"/>
      <use x="206.853516" xlink:href="#DejaVuSans-6f"/>
      <use x="268.035156" xlink:href="#DejaVuSans-70"/>
      <use x="331.511719" xlink:href="#DejaVuSans-79"/>
     </g>
    </g>
   </g>
   <g id="line2d_19">
    <path clip-path="url(#p82e43e2fa7)" d="M 34.240625 245.576046 
L 41.781166 243.457865 
L 49.321706 247.65802 
L 56.862247 252.441648 
L 64.402787 255.015696 
L 71.943328 254.788119 
L 79.483868 252.481454 
L 87.024409 249.354543 
L 94.564949 246.64046 
L 102.10549 245.218823 
L 109.64603 245.490899 
L 117.186571 247.403559 
L 124.727111 250.563745 
L 132.267652 254.391375 
L 139.808193 258.270323 
L 147.348733 261.670577 
L 154.889274 264.227586 
L 162.429814 265.775589 
L 169.970355 266.339785 
L 177.510895 266.097383 
L 185.051436 265.319968 
L 192.591976 264.309812 
L 200.132517 263.341172 
L 207.673057 262.614894 
L 215.213598 262.23137 
L 222.754139 262.183525 
L 230.294679 262.368471 
L 237.83522 262.614045 
L 245.37576 262.714841 
L 252.916301 262.471583 
L 260.456841 261.727782 
L 267.997382 260.398475 
L 275.537922 258.487213 
L 283.078463 256.089283 
L 290.619003 253.381039 
L 298.159544 250.597059 
L 305.700084 247.998436 
L 313.240625 245.836609 
L 320.781166 244.317722 
L 328.321706 243.572469 
L 335.862247 243.635726 
L 343.402787 244.439092 
L 350.943328 245.817837 
L 358.483868 247.53192 
L 366.024409 249.298798 
L 373.564949 250.834021 
L 381.10549 251.894242 
L 388.64603 252.316498 
L 396.186571 252.047593 
L 403.727111 251.158204 
L 411.267652 249.837993 
L 418.808193 248.370398 
L 426.348733 247.088767 
L 433.889274 246.318729 
L 441.429814 246.314839 
L 448.970355 247.201979 
L 456.510895 248.933411 
L 464.051436 251.276948 
L 471.591976 253.838271 
L 479.132517 256.125343 
L 486.673057 257.650407 
L 494.213598 258.056252 
L 501.754139 257.242665 
L 509.294679 255.458449 
L 516.83522 253.317583 
L 524.37576 251.698535 
L 531.916301 251.499769 
L 539.456841 253.259787 
L 546.997382 256.717221 
L 554.537922 260.499025 
L 562.078463 262.299902 
L 569.619003 260.175239 
L 577.159544 255.939282 
L 584.700084 262.172533 
L 592.240625 315.036378 
" style="fill:none;stroke:#35db9d;stroke-linecap:square;stroke-width:1.5;"/>
   </g>
   <g id="line2d_20">
    <path clip-path="url(#p82e43e2fa7)" d="M 34.240625 334.617401 
L 41.781166 340.176675 
L 49.321706 315.178192 
L 56.862247 295.053154 
L 64.402787 287.458315 
L 71.943328 289.114433 
L 79.483868 294.390822 
L 87.024409 298.966747 
L 94.564949 300.787729 
L 102.10549 299.728986 
L 109.64603 296.810142 
L 117.186571 293.418253 
L 124.727111 290.744358 
L 132.267652 289.48528 
L 139.808193 289.77829 
L 147.348733 291.299119 
L 154.889274 293.446414 
L 162.429814 295.545693 
L 169.970355 297.023981 
L 177.510895 297.526597 
L 185.051436 296.966143 
L 192.591976 295.508417 
L 200.132517 293.509862 
L 207.673057 291.426352 
L 215.213598 289.714 
L 222.754139 288.740394 
L 230.294679 288.720025 
L 237.83522 289.68201 
L 245.37576 291.47216 
L 252.916301 293.786126 
L 260.456841 296.226024 
L 267.997382 298.370243 
L 275.537922 299.844986 
L 283.078463 300.386598 
L 290.619003 299.885602 
L 298.159544 298.406266 
L 305.700084 296.179135 
L 313.240625 293.567663 
L 320.781166 291.013659 
L 328.321706 288.969121 
L 335.862247 287.823944 
L 343.402787 287.839805 
L 350.943328 289.09997 
L 358.483868 291.483096 
L 366.024409 294.666247 
L 373.564949 298.158781 
L 381.10549 301.364705 
L 388.64603 303.667047 
L 396.186571 304.52425 
L 403.727111 303.565903 
L 411.267652 300.673839 
L 418.808193 296.034955 
L 426.348733 290.154241 
L 433.889274 283.820521 
L 441.429814 278.022954 
L 448.970355 273.823199 
L 456.510895 272.195356 
L 464.051436 273.852923 
L 471.591976 279.087519 
L 479.132517 287.647372 
L 486.673057 298.683205 
L 494.213598 310.784275 
L 501.754139 322.11761 
L 509.294679 330.668796 
L 516.83522 334.564348 
L 524.37576 332.435961 
L 531.916301 323.770383 
L 539.456841 309.181537 
L 546.997382 290.554337 
L 554.537922 271.054503 
L 562.078463 255.096367 
L 569.619003 248.531585 
L 577.159544 259.6003 
L 584.700084 301.609122 
L 592.240625 398.915135 
" style="fill:none;stroke:#ed2a25;stroke-linecap:square;stroke-width:1.5;"/>
   </g>
   <g id="line2d_21">
    <path clip-path="url(#p82e43e2fa7)" d="M 34.240625 238.59068 
L 41.781166 239.468572 
L 49.321706 237.255457 
L 56.862247 236.711075 
L 64.402787 238.029613 
L 71.943328 240.076478 
L 79.483868 241.814421 
L 87.024409 242.739695 
L 94.564949 242.844547 
L 102.10549 242.410298 
L 109.64603 241.792952 
L 117.186571 241.272277 
L 124.727111 240.981106 
L 132.267652 240.902989 
L 139.808193 240.914507 
L 147.348733 240.847198 
L 154.889274 240.548343 
L 162.429814 239.926657 
L 169.970355 238.976011 
L 177.510895 237.776432 
L 185.051436 236.47613 
L 192.591976 235.260974 
L 200.132517 234.318855 
L 207.673057 233.805919 
L 215.213598 233.820291 
L 222.754139 234.386876 
L 230.294679 235.454636 
L 237.83522 236.905691 
L 245.37576 238.573896 
L 252.916301 240.269418 
L 260.456841 241.805281 
L 267.997382 243.021945 
L 275.537922 243.806548 
L 283.078463 244.104443 
L 290.619003 243.921903 
L 298.159544 243.320153 
L 305.700084 242.402109 
L 313.240625 241.294158 
L 320.781166 240.125962 
L 328.321706 239.011418 
L 335.862247 238.033698 
L 343.402787 237.236627 
L 350.943328 236.62367 
L 358.483868 236.164594 
L 366.024409 235.808636 
L 373.564949 235.501833 
L 381.10549 235.205328 
L 388.64603 234.910984 
L 396.186571 234.650777 
L 403.727111 234.497128 
L 411.267652 234.552628 
L 418.808193 234.929427 
L 426.348733 235.720678 
L 433.889274 236.968583 
L 441.429814 238.635457 
L 448.970355 240.585335 
L 456.510895 242.583631 
L 464.051436 244.320736 
L 471.591976 245.46198 
L 479.132517 245.720906 
L 486.673057 244.945641 
L 494.213598 243.199903 
L 501.754139 240.812242 
L 509.294679 238.361913 
L 516.83522 236.570408 
L 524.37576 236.079457 
L 531.916301 237.125658 
L 539.456841 239.177986 
L 546.997382 240.699038 
L 554.537922 239.338907 
L 562.078463 233.091183 
L 569.619003 223.257054 
L 577.159544 220.505039 
L 584.700084 255.915274 
L 592.240625 399.701395 
" style="fill:none;stroke:#86b1e0;stroke-linecap:square;stroke-width:1.5;"/>
   </g>
   <g id="line2d_22">
    <path clip-path="url(#p82e43e2fa7)" d="M 34.240625 252.188086 
L 41.781166 224.177681 
L 49.321706 207.212826 
L 56.862247 199.166027 
L 64.402787 196.955625 
L 71.943328 197.803563 
L 79.483868 199.704902 
L 87.024409 201.470055 
L 94.564949 202.569584 
L 102.10549 202.918942 
L 109.64603 202.677318 
L 117.186571 202.093605 
L 124.727111 201.407301 
L 132.267652 200.798252 
L 139.808193 200.372959 
L 147.348733 200.173815 
L 154.889274 200.199168 
L 162.429814 200.425041 
L 169.970355 200.822608 
L 177.510895 201.368621 
L 185.051436 202.048426 
L 192.591976 202.852939 
L 200.132517 203.771901 
L 207.673057 204.786044 
L 215.213598 205.860527 
L 222.754139 206.941458 
L 230.294679 207.956461 
L 237.83522 208.819455 
L 245.37576 209.439019 
L 252.916301 209.729127 
L 260.456841 209.62068 
L 267.997382 209.072114 
L 275.537922 208.077519 
L 283.078463 206.670983 
L 290.619003 204.926404 
L 298.159544 202.952556 
L 305.700084 200.883796 
L 313.240625 198.867358 
L 320.781166 197.048602 
L 328.321706 195.555899 
L 335.862247 194.486881 
L 343.402787 193.89775 
L 350.943328 193.796966 
L 358.483868 194.144225 
L 366.024409 194.855024 
L 373.564949 195.810448 
L 381.10549 196.871194 
L 388.64603 197.894245 
L 396.186571 198.75021 
L 403.727111 199.339125 
L 411.267652 199.602571 
L 418.808193 199.53028 
L 426.348733 199.160031 
L 433.889274 198.570471 
L 441.429814 197.867508 
L 448.970355 197.165997 
L 456.510895 196.569417 
L 464.051436 196.150961 
L 471.591976 195.939765 
L 479.132517 195.915729 
L 486.673057 196.015316 
L 494.213598 196.148965 
L 501.754139 196.228161 
L 509.294679 196.197147 
L 516.83522 196.061129 
L 524.37576 195.900335 
L 531.916301 195.858705 
L 539.456841 196.098904 
L 546.997382 196.724083 
L 554.537922 197.684599 
L 562.078463 198.718503 
L 569.619003 199.423636 
L 577.159544 199.632652 
L 584.700084 200.368856 
L 592.240625 205.809926 
" style="fill:none;stroke:#cc5da6;stroke-linecap:square;stroke-width:1.5;"/>
   </g>
   <g id="line2d_23">
    <path clip-path="url(#p82e43e2fa7)" d="M 34.240625 409.560596 
L 40.965972 391.084723 
L 47.691319 392.558236 
L 54.416666 391.996189 
L 61.142013 386.14744 
L 67.86736 378.398717 
L 74.592707 372.779371 
L 81.318054 371.604456 
L 88.043401 375.099502 
L 94.768748 381.941728 
L 101.494095 390.075406 
L 108.219442 397.452074 
L 114.944789 402.540535 
L 121.670136 404.572658 
L 128.395483 403.559258 
L 135.12083 400.14198 
L 141.846176 395.354563 
L 148.571523 390.359612 
L 155.29687 386.211998 
L 162.022217 383.682246 
L 168.747564 383.155919 
L 175.472911 384.610258 
L 182.198258 387.658154 
L 188.923605 391.642226 
L 195.648952 395.758311 
L 202.374299 399.187345 
L 209.099646 401.216937 
L 215.824993 401.337956 
L 222.55034 399.30652 
L 229.275687 395.167124 
L 236.001034 389.237689 
L 242.726381 382.061632 
L 249.451728 374.335249 
L 256.177075 366.820713 
L 262.902422 360.255645 
L 269.627769 355.269734 
L 276.353116 352.317305 
L 283.078463 351.632418 
L 289.80381 353.210243 
L 296.529157 356.815423 
L 303.254504 362.015233 
L 309.979851 368.232798 
L 316.705198 374.813706 
L 323.430545 381.098184 
L 330.155892 386.490685 
L 336.881239 390.519293 
L 343.606586 392.878677 
L 350.331933 393.452335 
L 357.057279 392.31231 
L 363.782626 389.697215 
L 370.507973 385.971953 
L 377.23332 381.574763 
L 383.958667 376.95878 
L 390.684014 372.536035 
L 397.409361 368.631577 
L 404.134708 365.454023 
L 410.860055 363.086584 
L 417.585402 361.499391 
L 424.310749 360.580367 
L 431.036096 360.178168 
L 437.761443 360.147625 
L 444.48679 360.386181 
L 451.212137 360.849926 
L 457.937484 361.54051 
L 464.662831 362.460234 
L 471.388178 363.542336 
L 478.113525 364.576759 
L 484.838872 365.168271 
L 491.564219 364.782163 
L 498.289566 362.950545 
L 505.014913 359.726279 
L 511.74026 356.475441 
L 518.465607 357.086969 
L 525.190954 369.638129 
L 531.916301 408.474289 
" style="fill:none;stroke:#3819b5;stroke-linecap:square;stroke-width:1.5;"/>
   </g>
   <g id="line2d_24">
    <path clip-path="url(#p82e43e2fa7)" d="M 34.240625 303.209661 
L 41.679266 312.706707 
L 49.117908 301.155436 
L 56.556549 293.536076 
L 63.99519 294.78766 
L 71.433832 301.996488 
L 78.872473 310.669588 
L 86.311114 317.439908 
L 93.749756 320.781382 
L 101.188397 320.75118 
L 108.627038 318.377429 
L 116.06568 315.035703 
L 123.504321 311.975939 
L 130.942962 310.04825 
L 138.381604 309.611952 
L 145.820245 310.581482 
L 153.258887 312.554205 
L 160.697528 314.969512 
L 168.136169 317.25985 
L 175.574811 318.967941 
L 183.013452 319.817682 
L 190.452093 319.737181 
L 197.890735 318.840549 
L 205.329376 317.379962 
L 212.768017 315.681579 
L 220.206659 314.078569 
L 227.6453 312.852372 
L 235.083941 312.190162 
L 242.522583 312.162775 
L 249.961224 312.723804 
L 257.399865 313.727432 
L 264.838507 314.960265 
L 272.277148 316.181004 
L 279.715789 317.161389 
L 287.154431 317.722289 
L 294.593072 317.76001 
L 302.031713 317.259629 
L 309.470355 316.294132 
L 316.908996 315.010165 
L 324.347637 313.603017 
L 331.786279 312.284813 
L 339.22492 311.250758 
L 346.663561 310.648426 
L 354.102203 310.554633 
L 361.540844 310.963355 
L 368.979485 311.786613 
L 376.418127 312.868418 
L 383.856768 314.009941 
L 391.29541 315.002359 
L 398.734051 315.662437 
L 406.172692 315.865229 
L 413.611334 315.568256 
L 421.049975 314.822455 
L 428.488616 313.76687 
L 435.927258 312.606517 
L 443.365899 311.575727 
L 450.80454 310.892258 
L 458.243182 310.710102 
L 465.681823 311.08061 
L 473.120464 311.931834 
L 480.559106 313.07423 
L 487.997747 314.23694 
L 495.436388 315.132422 
L 502.87503 315.538924 
L 510.313671 315.381102 
L 517.752312 314.780972 
L 525.190954 314.047648 
L 532.629595 313.579629 
L 540.068236 313.67464 
L 547.506878 314.288357 
L 554.945519 314.86732 
L 562.38416 314.51828 
L 569.822802 312.987664 
L 577.261443 313.234798 
L 584.700084 326.823894 
" style="fill:none;stroke:#a26e17;stroke-linecap:square;stroke-width:1.5;"/>
   </g>
   <g id="patch_3">
    <path d="M 34.240625 410.398125 
L 34.240625 22.318125 
" style="fill:none;stroke:#000000;stroke-linecap:square;stroke-linejoin:miter;stroke-width:0.8;"/>
   </g>
   <g id="patch_4">
    <path d="M 592.240625 410.398125 
L 592.240625 22.318125 
" style="fill:none;stroke:#000000;stroke-linecap:square;stroke-linejoin:miter;stroke-width:0.8;"/>
   </g>
   <g id="patch_5">
    <path d="M 34.240625 410.398125 
L 592.240625 410.398125 
" style="fill:none;stroke:#000000;stroke-linecap:square;stroke-linejoin:miter;stroke-width:0.8;"/>
   </g>
   <g id="patch_6">
    <path d="M 34.240625 22.318125 
L 592.240625 22.318125 
" style="fill:none;stroke:#000000;stroke-linecap:square;stroke-linejoin:miter;stroke-width:0.8;"/>
   </g>
   <g id="text_21">
    <!-- Section Entropy (sampled @ 75): cape-9472-d69be688e -->
    <defs>
     <path d="M 9.421875 54.6875 
L 18.40625 54.6875 
L 18.40625 0 
L 9.421875 0 
z
M 9.421875 75.984375 
L 18.40625 75.984375 
L 18.40625 64.59375 
L 9.421875 64.59375 
z
" id="DejaVuSans-69"/>
     <path d="M 31 75.875 
Q 24.46875 64.65625 21.28125 53.65625 
Q 18.109375 42.671875 18.109375 31.390625 
Q 18.109375 20.125 21.3125 9.0625 
Q 24.515625 -2 31 -13.1875 
L 23.1875 -13.1875 
Q 15.875 -1.703125 12.234375 9.375 
Q 8.59375 20.453125 8.59375 31.390625 
Q 8.59375 42.28125 12.203125 53.3125 
Q 15.828125 64.359375 23.1875 75.875 
z
" id="DejaVuSans-28"/>
     <path d="M 44.28125 53.078125 
L 44.28125 44.578125 
Q 40.484375 46.53125 36.375 47.5 
Q 32.28125 48.484375 27.875 48.484375 
Q 21.1875 48.484375 17.84375 46.4375 
Q 14.5 44.390625 14.5 40.28125 
Q 14.5 37.15625 16.890625 35.375 
Q 19.28125 33.59375 26.515625 31.984375 
L 29.59375 31.296875 
Q 39.15625 29.25 43.1875 25.515625 
Q 47.21875 21.78125 47.21875 15.09375 
Q 47.21875 7.46875 41.1875 3.015625 
Q 35.15625 -1.421875 24.609375 -1.421875 
Q 20.21875 -1.421875 15.453125 -0.5625 
Q 10.6875 0.296875 5.421875 2 
L 5.421875 11.28125 
Q 10.40625 8.6875 15.234375 7.390625 
Q 20.0625 6.109375 24.8125 6.109375 
Q 31.15625 6.109375 34.5625 8.28125 
Q 37.984375 10.453125 37.984375 14.40625 
Q 37.984375 18.0625 35.515625 20.015625 
Q 33.0625 21.96875 24.703125 23.78125 
L 21.578125 24.515625 
Q 13.234375 26.265625 9.515625 29.90625 
Q 5.8125 33.546875 5.8125 39.890625 
Q 5.8125 47.609375 11.28125 51.796875 
Q 16.75 56 26.8125 56 
Q 31.78125 56 36.171875 55.265625 
Q 40.578125 54.546875 44.28125 53.078125 
z
" id="DejaVuSans-73"/>
     <path d="M 45.40625 46.390625 
L 45.40625 75.984375 
L 54.390625 75.984375 
L 54.390625 0 
L 45.40625 0 
L 45.40625 8.203125 
Q 42.578125 3.328125 38.25 0.953125 
Q 33.9375 -1.421875 27.875 -1.421875 
Q 17.96875 -1.421875 11.734375 6.484375 
Q 5.515625 14.40625 5.515625 27.296875 
Q 5.515625 40.1875 11.734375 48.09375 
Q 17.96875 56 27.875 56 
Q 33.9375 56 38.25 53.625 
Q 42.578125 51.265625 45.40625 46.390625 
z
M 14.796875 27.296875 
Q 14.796875 17.390625 18.875 11.75 
Q 22.953125 6.109375 30.078125 6.109375 
Q 37.203125 6.109375 41.296875 11.75 
Q 45.40625 17.390625 45.40625 27.296875 
Q 45.40625 37.203125 41.296875 42.84375 
Q 37.203125 48.484375 30.078125 48.484375 
Q 22.953125 48.484375 18.875 42.84375 
Q 14.796875 37.203125 14.796875 27.296875 
z
" id="DejaVuSans-64"/>
     <path d="M 37.203125 26.21875 
Q 37.203125 19.234375 40.671875 15.25 
Q 44.140625 11.28125 50.203125 11.28125 
Q 56.203125 11.28125 59.640625 15.28125 
Q 63.09375 19.28125 63.09375 26.21875 
Q 63.09375 33.0625 59.578125 37.078125 
Q 56.0625 41.109375 50.09375 41.109375 
Q 44.1875 41.109375 40.6875 37.109375 
Q 37.203125 33.109375 37.203125 26.21875 
z
M 63.8125 11.625 
Q 60.890625 7.859375 57.109375 6.078125 
Q 53.328125 4.296875 48.296875 4.296875 
Q 39.890625 4.296875 34.640625 10.375 
Q 29.390625 16.453125 29.390625 26.21875 
Q 29.390625 35.984375 34.65625 42.078125 
Q 39.9375 48.1875 48.296875 48.1875 
Q 53.328125 48.1875 57.125 46.359375 
Q 60.9375 44.53125 63.8125 40.828125 
L 63.8125 47.21875 
L 70.796875 47.21875 
L 70.796875 11.28125 
Q 77.9375 12.359375 81.953125 17.796875 
Q 85.984375 23.25 85.984375 31.890625 
Q 85.984375 37.109375 84.4375 41.703125 
Q 82.90625 46.296875 79.78125 50.203125 
Q 74.703125 56.59375 67.40625 59.984375 
Q 60.109375 63.375 51.515625 63.375 
Q 45.515625 63.375 39.984375 61.78125 
Q 34.46875 60.203125 29.78125 57.078125 
Q 22.125 52.09375 17.796875 44.015625 
Q 13.484375 35.9375 13.484375 26.515625 
Q 13.484375 18.75 16.28125 11.953125 
Q 19.09375 5.171875 24.421875 0 
Q 29.546875 -5.078125 36.28125 -7.734375 
Q 43.015625 -10.40625 50.6875 -10.40625 
Q 56.984375 -10.40625 63.0625 -8.28125 
Q 69.140625 -6.15625 74.21875 -2.203125 
L 78.609375 -7.625 
Q 72.515625 -12.359375 65.3125 -14.875 
Q 58.109375 -17.390625 50.6875 -17.390625 
Q 41.65625 -17.390625 33.640625 -14.1875 
Q 25.640625 -10.984375 19.390625 -4.890625 
Q 13.140625 1.21875 9.859375 9.25 
Q 6.59375 17.28125 6.59375 26.515625 
Q 6.59375 35.40625 9.90625 43.453125 
Q 13.234375 51.515625 19.390625 57.625 
Q 25.6875 63.8125 33.9375 67.109375 
Q 42.1875 70.40625 51.421875 70.40625 
Q 61.765625 70.40625 70.625 66.15625 
Q 79.5 61.921875 85.5 54.109375 
Q 89.15625 49.3125 91.078125 43.703125 
Q 93.015625 38.09375 93.015625 32.078125 
Q 93.015625 19.234375 85.25 11.8125 
Q 77.484375 4.390625 63.8125 4.109375 
z
" id="DejaVuSans-40"/>
     <path d="M 8.015625 75.875 
L 15.828125 75.875 
Q 23.140625 64.359375 26.78125 53.3125 
Q 30.421875 42.28125 30.421875 31.390625 
Q 30.421875 20.453125 26.78125 9.375 
Q 23.140625 -1.703125 15.828125 -13.1875 
L 8.015625 -13.1875 
Q 14.5 -2 17.703125 9.0625 
Q 20.90625 20.125 20.90625 31.390625 
Q 20.90625 42.671875 17.703125 53.65625 
Q 14.5 64.65625 8.015625 75.875 
z
" id="DejaVuSans-29"/>
     <path d="M 11.71875 12.40625 
L 22.015625 12.40625 
L 22.015625 0 
L 11.71875 0 
z
M 11.71875 51.703125 
L 22.015625 51.703125 
L 22.015625 39.3125 
L 11.71875 39.3125 
z
" id="DejaVuSans-3a"/>
     <path d="M 4.890625 31.390625 
L 31.203125 31.390625 
L 31.203125 23.390625 
L 4.890625 23.390625 
z
" id="DejaVuSans-2d"/>
    </defs>
    <g transform="translate(143.84375 16.318125)scale(0.12 -0.12)">
     <use xlink:href="#DejaVuSans-53"/>
     <use x="63.476562" xlink:href="#DejaVuSans-65"/>
     <use x="125" xlink:href="#DejaVuSans-63"/>
     <use x="179.980469" xlink:href="#DejaVuSans-74"/>
     <use x="219.189453" xlink:href="#DejaVuSans-69"/>
     <use x="246.972656" xlink:href="#DejaVuSans-6f"/>
     <use x="308.154297" xlink:href="#DejaVuSans-6e"/>
     <use x="371.533203" xlink:href="#DejaVuSans-20"/>
     <use x="403.320312" xlink:href="#DejaVuSans-45"/>
     <use x="466.503906" xlink:href="#DejaVuSans-6e"/>
     <use x="529.882812" xlink:href="#DejaVuSans-74"/>
     <use x="569.091797" xlink:href="#DejaVuSans-72"/>
     <use x="610.173828" xlink:href="#DejaVuSans-6f"/>
     <use x="671.355469" xlink:href="#DejaVuSans-70"/>
     <use x="734.832031" xlink:href="#DejaVuSans-79"/>
     <use x="794.011719" xlink:href="#DejaVuSans-20"/>
     <use x="825.798828" xlink:href="#DejaVuSans-28"/>
     <use x="864.8125" xlink:href="#DejaVuSans-73"/>
     <use x="916.912109" xlink:href="#DejaVuSans-61"/>
     <use x="978.191406" xlink:href="#DejaVuSans-6d"/>
     <use x="1075.603516" xlink:href="#DejaVuSans-70"/>
     <use x="1139.080078" xlink:href="#DejaVuSans-6c"/>
     <use x="1166.863281" xlink:href="#DejaVuSans-65"/>
     <use x="1228.386719" xlink:href="#DejaVuSans-64"/>
     <use x="1291.863281" xlink:href="#DejaVuSans-20"/>
     <use x="1323.650391" xlink:href="#DejaVuSans-40"/>
     <use x="1423.650391" xlink:href="#DejaVuSans-20"/>
     <use x="1455.4375" xlink:href="#DejaVuSans-37"/>
     <use x="1519.060547" xlink:href="#DejaVuSans-35"/>
     <use x="1582.683594" xlink:href="#DejaVuSans-29"/>
     <use x="1621.697266" xlink:href="#DejaVuSans-3a"/>
     <use x="1655.388672" xlink:href="#DejaVuSans-20"/>
     <use x="1687.175781" xlink:href="#DejaVuSans-63"/>
     <use x="1742.15625" xlink:href="#DejaVuSans-61"/>
     <use x="1803.435547" xlink:href="#DejaVuSans-70"/>
     <use x="1866.912109" xlink:href="#DejaVuSans-65"/>
     <use x="1928.435547" xlink:href="#DejaVuSans-2d"/>
     <use x="1964.519531" xlink:href="#DejaVuSans-39"/>
     <use x="2028.142578" xlink:href="#DejaVuSans-34"/>
     <use x="2091.765625" xlink:href="#DejaVuSans-37"/>
     <use x="2155.388672" xlink:href="#DejaVuSans-32"/>
     <use x="2219.011719" xlink:href="#DejaVuSans-2d"/>
     <use x="2255.095703" xlink:href="#DejaVuSans-64"/>
     <use x="2318.572266" xlink:href="#DejaVuSans-36"/>
     <use x="2382.195312" xlink:href="#DejaVuSans-39"/>
     <use x="2445.818359" xlink:href="#DejaVuSans-62"/>
     <use x="2509.294922" xlink:href="#DejaVuSans-65"/>
     <use x="2570.818359" xlink:href="#DejaVuSans-36"/>
     <use x="2634.441406" xlink:href="#DejaVuSans-38"/>
     <use x="2698.064453" xlink:href="#DejaVuSans-38"/>
     <use x="2761.6875" xlink:href="#DejaVuSans-65"/>
    </g>
   </g>
   <g id="legend_1">
    <g id="patch_7">
     <path d="M 523.428125 118.386875 
L 585.240625 118.386875 
Q 587.240625 118.386875 587.240625 116.386875 
L 587.240625 29.318125 
Q 587.240625 27.318125 585.240625 27.318125 
L 523.428125 27.318125 
Q 521.428125 27.318125 521.428125 29.318125 
L 521.428125 116.386875 
Q 521.428125 118.386875 523.428125 118.386875 
z
" style="fill:#ffffff;opacity:0.8;stroke:#cccccc;stroke-linejoin:miter;"/>
    </g>
    <g id="line2d_25">
     <path d="M 525.428125 35.416562 
L 545.428125 35.416562 
" style="fill:none;stroke:#35db9d;stroke-linecap:square;stroke-width:1.5;"/>
    </g>
    <g id="line2d_26"/>
    <g id="text_22">
     <!-- .text -->
     <defs>
      <path d="M 10.6875 12.40625 
L 21 12.40625 
L 21 0 
L 10.6875 0 
z
" id="DejaVuSans-2e"/>
      <path d="M 54.890625 54.6875 
L 35.109375 28.078125 
L 55.90625 0 
L 45.3125 0 
L 29.390625 21.484375 
L 13.484375 0 
L 2.875 0 
L 24.125 28.609375 
L 4.6875 54.6875 
L 15.28125 54.6875 
L 29.78125 35.203125 
L 44.28125 54.6875 
z
" id="DejaVuSans-78"/>
     </defs>
     <g transform="translate(553.428125 38.916562)scale(0.1 -0.1)">
      <use xlink:href="#DejaVuSans-2e"/>
      <use x="31.787109" xlink:href="#DejaVuSans-74"/>
      <use x="70.996094" xlink:href="#DejaVuSans-65"/>
      <use x="132.503906" xlink:href="#DejaVuSans-78"/>
      <use x="191.683594" xlink:href="#DejaVuSans-74"/>
     </g>
    </g>
    <g id="line2d_27">
     <path d="M 525.428125 50.094687 
L 545.428125 50.094687 
" style="fill:none;stroke:#ed2a25;stroke-linecap:square;stroke-width:1.5;"/>
    </g>
    <g id="line2d_28"/>
    <g id="text_23">
     <!-- .rdata -->
     <g transform="translate(553.428125 53.594687)scale(0.1 -0.1)">
      <use xlink:href="#DejaVuSans-2e"/>
      <use x="31.787109" xlink:href="#DejaVuSans-72"/>
      <use x="72.884766" xlink:href="#DejaVuSans-64"/>
      <use x="136.361328" xlink:href="#DejaVuSans-61"/>
      <use x="197.640625" xlink:href="#DejaVuSans-74"/>
      <use x="236.849609" xlink:href="#DejaVuSans-61"/>
     </g>
    </g>
    <g id="line2d_29">
     <path d="M 525.428125 64.772812 
L 545.428125 64.772812 
" style="fill:none;stroke:#86b1e0;stroke-linecap:square;stroke-width:1.5;"/>
    </g>
    <g id="line2d_30"/>
    <g id="text_24">
     <!-- .data -->
     <g transform="translate(553.428125 68.272812)scale(0.1 -0.1)">
      <use xlink:href="#DejaVuSans-2e"/>
      <use x="31.787109" xlink:href="#DejaVuSans-64"/>
      <use x="95.263672" xlink:href="#DejaVuSans-61"/>
      <use x="156.542969" xlink:href="#DejaVuSans-74"/>
      <use x="195.751953" xlink:href="#DejaVuSans-61"/>
     </g>
    </g>
    <g id="line2d_31">
     <path d="M 525.428125 79.450937 
L 545.428125 79.450937 
" style="fill:none;stroke:#cc5da6;stroke-linecap:square;stroke-width:1.5;"/>
    </g>
    <g id="line2d_32"/>
    <g id="text_25">
     <!-- CODE -->
     <defs>
      <path d="M 64.40625 67.28125 
L 64.40625 56.890625 
Q 59.421875 61.53125 53.78125 63.8125 
Q 48.140625 66.109375 41.796875 66.109375 
Q 29.296875 66.109375 22.65625 58.46875 
Q 16.015625 50.828125 16.015625 36.375 
Q 16.015625 21.96875 22.65625 14.328125 
Q 29.296875 6.6875 41.796875 6.6875 
Q 48.140625 6.6875 53.78125 8.984375 
Q 59.421875 11.28125 64.40625 15.921875 
L 64.40625 5.609375 
Q 59.234375 2.09375 53.4375 0.328125 
Q 47.65625 -1.421875 41.21875 -1.421875 
Q 24.65625 -1.421875 15.125 8.703125 
Q 5.609375 18.84375 5.609375 36.375 
Q 5.609375 53.953125 15.125 64.078125 
Q 24.65625 74.21875 41.21875 74.21875 
Q 47.75 74.21875 53.53125 72.484375 
Q 59.328125 70.75 64.40625 67.28125 
z
" id="DejaVuSans-43"/>
      <path d="M 39.40625 66.21875 
Q 28.65625 66.21875 22.328125 58.203125 
Q 16.015625 50.203125 16.015625 36.375 
Q 16.015625 22.609375 22.328125 14.59375 
Q 28.65625 6.59375 39.40625 6.59375 
Q 50.140625 6.59375 56.421875 14.59375 
Q 62.703125 22.609375 62.703125 36.375 
Q 62.703125 50.203125 56.421875 58.203125 
Q 50.140625 66.21875 39.40625 66.21875 
z
M 39.40625 74.21875 
Q 54.734375 74.21875 63.90625 63.9375 
Q 73.09375 53.65625 73.09375 36.375 
Q 73.09375 19.140625 63.90625 8.859375 
Q 54.734375 -1.421875 39.40625 -1.421875 
Q 24.03125 -1.421875 14.8125 8.828125 
Q 5.609375 19.09375 5.609375 36.375 
Q 5.609375 53.65625 14.8125 63.9375 
Q 24.03125 74.21875 39.40625 74.21875 
z
" id="DejaVuSans-4f"/>
      <path d="M 19.671875 64.796875 
L 19.671875 8.109375 
L 31.59375 8.109375 
Q 46.6875 8.109375 53.6875 14.9375 
Q 60.6875 21.78125 60.6875 36.53125 
Q 60.6875 51.171875 53.6875 57.984375 
Q 46.6875 64.796875 31.59375 64.796875 
z
M 9.8125 72.90625 
L 30.078125 72.90625 
Q 51.265625 72.90625 61.171875 64.09375 
Q 71.09375 55.28125 71.09375 36.53125 
Q 71.09375 17.671875 61.125 8.828125 
Q 51.171875 0 30.078125 0 
L 9.8125 0 
z
" id="DejaVuSans-44"/>
     </defs>
     <g transform="translate(553.428125 82.950937)scale(0.1 -0.1)">
      <use xlink:href="#DejaVuSans-43"/>
      <use x="69.824219" xlink:href="#DejaVuSans-4f"/>
      <use x="148.535156" xlink:href="#DejaVuSans-44"/>
      <use x="225.537109" xlink:href="#DejaVuSans-45"/>
     </g>
    </g>
    <g id="line2d_33">
     <path d="M 525.428125 94.129062 
L 545.428125 94.129062 
" style="fill:none;stroke:#3819b5;stroke-linecap:square;stroke-width:1.5;"/>
    </g>
    <g id="line2d_34"/>
    <g id="text_26">
     <!-- .rsrc -->
     <g transform="translate(553.428125 97.629062)scale(0.1 -0.1)">
      <use xlink:href="#DejaVuSans-2e"/>
      <use x="31.787109" xlink:href="#DejaVuSans-72"/>
      <use x="72.900391" xlink:href="#DejaVuSans-73"/>
      <use x="125" xlink:href="#DejaVuSans-72"/>
      <use x="166.082031" xlink:href="#DejaVuSans-63"/>
     </g>
    </g>
    <g id="line2d_35">
     <path d="M 525.428125 108.807187 
L 545.428125 108.807187 
" style="fill:none;stroke:#a26e17;stroke-linecap:square;stroke-width:1.5;"/>
    </g>
    <g id="line2d_36"/>
    <g id="text_27">
     <!-- .reloc -->
     <g transform="translate(553.428125 112.307187)scale(0.1 -0.1)">
      <use xlink:href="#DejaVuSans-2e"/>
      <use x="31.787109" xlink:href="#DejaVuSans-72"/>
      <use x="72.869141" xlink:href="#DejaVuSans-65"/>
      <use x="134.392578" xlink:href="#DejaVuSans-6c"/>
      <use x="162.175781" xlink:href="#DejaVuSans-6f"/>
      <use x="223.357422" xlink:href="#DejaVuSans-63"/>
     </g>
    </g>
   </g>
  </g>
 </g>
 <defs>
  <clipPath id="p82e43e2fa7">
   <rect height="388.08" width="558" x="34.240625" y="22.318125"/>
  </clipPath>
 </defs>
</svg>
