<?xml version="1.0" encoding="utf-8" standalone="no"?>
<!DOCTYPE svg PUBLIC "-//W3C//DTD SVG 1.1//EN"
  "http://www.w3.org/Graphics/SVG/1.1/DTD/svg11.dtd">
<!-- Created with matplotlib (http://matplotlib.org/) -->
<svg height="447.954375pt" version="1.1" viewBox="0 0 602.940625 447.954375" width="602.940625pt" xmlns="http://www.w3.org/2000/svg" xmlns:xlink="http://www.w3.org/1999/xlink">
 <defs>
  <style type="text/css">
*{stroke-linecap:butt;stroke-linejoin:round;}
  </style>
 </defs>
 <g id="figure_1">
  <g id="patch_1">
   <path d="M 0 447.954375 
L 602.940625 447.954375 
L 602.940625 0 
L 0 0 
z
" style="fill:#ffffff;"/>
  </g>
  <g id="axes_1">
   <g id="patch_2">
    <path d="M 34.240625 410.398125 
L 592.240625 410.398125 
L 592.240625 22.318125 
L 34.240625 22.318125 
z
" style="fill:#ffffff;"/>
   </g>
   <g id="matplotlib.axis_1">
    <g id="xtick_1">
     <g id="line2d_1">
      <defs>
       <path d="M 0 0 
L 0 3.5 
" id="m1b4436e05c" style="stroke:#000000;stroke-width:0.8;"/>
      </defs>
      <g>
       <use style="stroke:#000000;stroke-width:0.8;" x="34.240625" xlink:href="#m1b4436e05c" y="410.398125"/>
      </g>
     </g>
     <g id="text_1">
      <!-- 0 -->
      <defs>
       <path d="M 31.78125 66.40625 
Q 24.171875 66.40625 20.328125 58.90625 
Q 16.5 51.421875 16.5 36.375 
Q 16.5 21.390625 20.328125 13.890625 
Q 24.171875 6.390625 31.78125 6.390625 
Q 39.453125 6.390625 43.28125 13.890625 
Q 47.125 21.390625 47.125 36.375 
Q 47.125 51.421875 43.28125 58.90625 
Q 39.453125 66.40625 31.78125 66.40625 
z
M 31.78125 74.21875 
Q 44.046875 74.21875 50.515625 64.515625 
Q 56.984375 54.828125 56.984375 36.375 
Q 56.984375 17.96875 50.515625 8.265625 
Q 44.046875 -1.421875 31.78125 -1.421875 
Q 19.53125 -1.421875 13.0625 8.265625 
Q 6.59375 17.96875 6.59375 36.375 
Q 6.59375 54.828125 13.0625 64.515625 
Q 19.53125 74.21875 31.78125 74.21875 
z
" id="DejaVuSans-30"/>
      </defs>
      <g transform="translate(31.059375 424.996562)scale(0.1 -0.1)">
       <use xlink:href="#DejaVuSans-30"/>
      </g>
     </g>
    </g>
    <g id="xtick_2">
     <g id="line2d_2">
      <g>
       <use style="stroke:#000000;stroke-width:0.8;" x="148.118176" xlink:href="#m1b4436e05c" y="410.398125"/>
      </g>
     </g>
     <g id="text_2">
      <!-- 20 -->
      <defs>
       <path d="M 19.1875 8.296875 
L 53.609375 8.296875 
L 53.609375 0 
L 7.328125 0 
L 7.328125 8.296875 
Q 12.9375 14.109375 22.625 23.890625 
Q 32.328125 33.6875 34.8125 36.53125 
Q 39.546875 41.84375 41.421875 45.53125 
Q 43.3125 49.21875 43.3125 52.78125 
Q 43.3125 58.59375 39.234375 62.25 
Q 35.15625 65.921875 28.609375 65.921875 
Q 23.96875 65.921875 18.8125 64.3125 
Q 13.671875 62.703125 7.8125 59.421875 
L 7.8125 69.390625 
Q 13.765625 71.78125 18.9375 73 
Q 24.125 74.21875 28.421875 74.21875 
Q 39.75 74.21875 46.484375 68.546875 
Q 53.21875 62.890625 53.21875 53.421875 
Q 53.21875 48.921875 51.53125 44.890625 
Q 49.859375 40.875 45.40625 35.40625 
Q 44.1875 33.984375 37.640625 27.21875 
Q 31.109375 20.453125 19.1875 8.296875 
z
" id="DejaVuSans-32"/>
      </defs>
      <g transform="translate(141.755676 424.996562)scale(0.1 -0.1)">
       <use xlink:href="#DejaVuSans-32"/>
       <use x="63.623047" xlink:href="#DejaVuSans-30"/>
      </g>
     </g>
    </g>
    <g id="xtick_3">
     <g id="line2d_3">
      <g>
       <use style="stroke:#000000;stroke-width:0.8;" x="261.995727" xlink:href="#m1b4436e05c" y="410.398125"/>
      </g>
     </g>
     <g id="text_3">
      <!-- 40 -->
      <defs>
       <path d="M 37.796875 64.3125 
L 12.890625 25.390625 
L 37.796875 25.390625 
z
M 35.203125 72.90625 
L 47.609375 72.90625 
L 47.609375 25.390625 
L 58.015625 25.390625 
L 58.015625 17.1875 
L 47.609375 17.1875 
L 47.609375 0 
L 37.796875 0 
L 37.796875 17.1875 
L 4.890625 17.1875 
L 4.890625 26.703125 
z
" id="DejaVuSans-34"/>
      </defs>
      <g transform="translate(255.633227 424.996562)scale(0.1 -0.1)">
       <use xlink:href="#DejaVuSans-34"/>
       <use x="63.623047" xlink:href="#DejaVuSans-30"/>
      </g>
     </g>
    </g>
    <g id="xtick_4">
     <g id="line2d_4">
      <g>
       <use style="stroke:#000000;stroke-width:0.8;" x="375.873278" xlink:href="#m1b4436e05c" y="410.398125"/>
      </g>
     </g>
     <g id="text_4">
      <!-- 60 -->
      <defs>
       <path d="M 33.015625 40.375 
Q 26.375 40.375 22.484375 35.828125 
Q 18.609375 31.296875 18.609375 23.390625 
Q 18.609375 15.53125 22.484375 10.953125 
Q 26.375 6.390625 33.015625 6.390625 
Q 39.65625 6.390625 43.53125 10.953125 
Q 47.40625 15.53125 47.40625 23.390625 
Q 47.40625 31.296875 43.53125 35.828125 
Q 39.65625 40.375 33.015625 40.375 
z
M 52.59375 71.296875 
L 52.59375 62.3125 
Q 48.875 64.0625 45.09375 64.984375 
Q 41.3125 65.921875 37.59375 65.921875 
Q 27.828125 65.921875 22.671875 59.328125 
Q 17.53125 52.734375 16.796875 39.40625 
Q 19.671875 43.65625 24.015625 45.921875 
Q 28.375 48.1875 33.59375 48.1875 
Q 44.578125 48.1875 50.953125 41.515625 
Q 57.328125 34.859375 57.328125 23.390625 
Q 57.328125 12.15625 50.6875 5.359375 
Q 44.046875 -1.421875 33.015625 -1.421875 
Q 20.359375 -1.421875 13.671875 8.265625 
Q 6.984375 17.96875 6.984375 36.375 
Q 6.984375 53.65625 15.1875 63.9375 
Q 23.390625 74.21875 37.203125 74.21875 
Q 40.921875 74.21875 44.703125 73.484375 
Q 48.484375 72.75 52.59375 71.296875 
z
" id="DejaVuSans-36"/>
      </defs>
      <g transform="translate(369.510778 424.996562)scale(0.1 -0.1)">
       <use xlink:href="#DejaVuSans-36"/>
       <use x="63.623047" xlink:href="#DejaVuSans-30"/>
      </g>
     </g>
    </g>
    <g id="xtick_5">
     <g id="line2d_5">
      <g>
       <use style="stroke:#000000;stroke-width:0.8;" x="489.750829" xlink:href="#m1b4436e05c" y="410.398125"/>
      </g>
     </g>
     <g id="text_5">
      <!-- 80 -->
      <defs>
       <path d="M 31.78125 34.625 
Q 24.75 34.625 20.71875 30.859375 
Q 16.703125 27.09375 16.703125 20.515625 
Q 16.703125 13.921875 20.71875 10.15625 
Q 24.75 6.390625 31.78125 6.390625 
Q 38.8125 6.390625 42.859375 10.171875 
Q 46.921875 13.96875 46.921875 20.515625 
Q 46.921875 27.09375 42.890625 30.859375 
Q 38.875 34.625 31.78125 34.625 
z
M 21.921875 38.8125 
Q 15.578125 40.375 12.03125 44.71875 
Q 8.5 49.078125 8.5 55.328125 
Q 8.5 64.0625 14.71875 69.140625 
Q 20.953125 74.21875 31.78125 74.21875 
Q 42.671875 74.21875 48.875 69.140625 
Q 55.078125 64.0625 55.078125 55.328125 
Q 55.078125 49.078125 51.53125 44.71875 
Q 48 40.375 41.703125 38.8125 
Q 48.828125 37.15625 52.796875 32.3125 
Q 56.78125 27.484375 56.78125 20.515625 
Q 56.78125 9.90625 50.3125 4.234375 
Q 43.84375 -1.421875 31.78125 -1.421875 
Q 19.734375 -1.421875 13.25 4.234375 
Q 6.78125 9.90625 6.78125 20.515625 
Q 6.78125 27.484375 10.78125 32.3125 
Q 14.796875 37.15625 21.921875 38.8125 
z
M 18.3125 54.390625 
Q 18.3125 48.734375 21.84375 45.5625 
Q 25.390625 42.390625 31.78125 42.390625 
Q 38.140625 42.390625 41.71875 45.5625 
Q 45.3125 48.734375 45.3125 54.390625 
Q 45.3125 60.0625 41.71875 63.234375 
Q 38.140625 66.40625 31.78125 66.40625 
Q 25.390625 66.40625 21.84375 63.234375 
Q 18.3125 60.0625 18.3125 54.390625 
z
" id="DejaVuSans-38"/>
      </defs>
      <g transform="translate(483.388329 424.996562)scale(0.1 -0.1)">
       <use xlink:href="#DejaVuSans-38"/>
       <use x="63.623047" xlink:href="#DejaVuSans-30"/>
      </g>
     </g>
    </g>
    <g id="text_6">
     <!-- Sample block -->
     <defs>
      <path d="M 53.515625 70.515625 
L 53.515625 60.890625 
Q 47.90625 63.578125 42.921875 64.890625 
Q 37.9375 66.21875 33.296875 66.21875 
Q 25.25 66.21875 20.875 63.09375 
Q 16.5 59.96875 16.5 54.203125 
Q 16.5 49.359375 19.40625 46.890625 
Q 22.3125 44.4375 30.421875 42.921875 
L 36.375 41.703125 
Q 47.40625 39.59375 52.65625 34.296875 
Q 57.90625 29 57.90625 20.125 
Q 57.90625 9.515625 50.796875 4.046875 
Q 43.703125 -1.421875 29.984375 -1.421875 
Q 24.8125 -1.421875 18.96875 -0.25 
Q 13.140625 0.921875 6.890625 3.21875 
L 6.890625 13.375 
Q 12.890625 10.015625 18.65625 8.296875 
Q 24.421875 6.59375 29.984375 6.59375 
Q 38.421875 6.59375 43.015625 9.90625 
Q 47.609375 13.234375 47.609375 19.390625 
Q 47.609375 24.75 44.3125 27.78125 
Q 41.015625 30.8125 33.5 32.328125 
L 27.484375 33.5 
Q 16.453125 35.6875 11.515625 40.375 
Q 6.59375 45.0625 6.59375 53.421875 
Q 6.59375 63.09375 13.40625 68.65625 
Q 20.21875 74.21875 32.171875 74.21875 
Q 37.3125 74.21875 42.625 73.28125 
Q 47.953125 72.359375 53.515625 70.515625 
z
" id="DejaVuSans-53"/>
      <path d="M 34.28125 27.484375 
Q 23.390625 27.484375 19.1875 25 
Q 14.984375 22.515625 14.984375 16.5 
Q 14.984375 11.71875 18.140625 8.90625 
Q 21.296875 6.109375 26.703125 6.109375 
Q 34.1875 6.109375 38.703125 11.40625 
Q 43.21875 16.703125 43.21875 25.484375 
L 43.21875 27.484375 
z
M 52.203125 31.203125 
L 52.203125 0 
L 43.21875 0 
L 43.21875 8.296875 
Q 40.140625 3.328125 35.546875 0.953125 
Q 30.953125 -1.421875 24.3125 -1.421875 
Q 15.921875 -1.421875 10.953125 3.296875 
Q 6 8.015625 6 15.921875 
Q 6 25.140625 12.171875 29.828125 
Q 18.359375 34.515625 30.609375 34.515625 
L 43.21875 34.515625 
L 43.21875 35.40625 
Q 43.21875 41.609375 39.140625 45 
Q 35.0625 48.390625 27.6875 48.390625 
Q 23 48.390625 18.546875 47.265625 
Q 14.109375 46.140625 10.015625 43.890625 
L 10.015625 52.203125 
Q 14.9375 54.109375 19.578125 55.046875 
Q 24.21875 56 28.609375 56 
Q 40.484375 56 46.34375 49.84375 
Q 52.203125 43.703125 52.203125 31.203125 
z
" id="DejaVuSans-61"/>
      <path d="M 52 44.1875 
Q 55.375 50.25 60.0625 53.125 
Q 64.75 56 71.09375 56 
Q 79.640625 56 84.28125 50.015625 
Q 88.921875 44.046875 88.921875 33.015625 
L 88.921875 0 
L 79.890625 0 
L 79.890625 32.71875 
Q 79.890625 40.578125 77.09375 44.375 
Q 74.3125 48.1875 68.609375 48.1875 
Q 61.625 48.1875 57.5625 43.546875 
Q 53.515625 38.921875 53.515625 30.90625 
L 53.515625 0 
L 44.484375 0 
L 44.484375 32.71875 
Q 44.484375 40.625 41.703125 44.40625 
Q 38.921875 48.1875 33.109375 48.1875 
Q 26.21875 48.1875 22.15625 43.53125 
Q 18.109375 38.875 18.109375 30.90625 
L 18.109375 0 
L 9.078125 0 
L 9.078125 54.6875 
L 18.109375 54.6875 
L 18.109375 46.1875 
Q 21.1875 51.21875 25.484375 53.609375 
Q 29.78125 56 35.6875 56 
Q 41.65625 56 45.828125 52.96875 
Q 50 49.953125 52 44.1875 
z
" id="DejaVuSans-6d"/>
      <path d="M 18.109375 8.203125 
L 18.109375 -20.796875 
L 9.078125 -20.796875 
L 9.078125 54.6875 
L 18.109375 54.6875 
L 18.109375 46.390625 
Q 20.953125 51.265625 25.265625 53.625 
Q 29.59375 56 35.59375 56 
Q 45.5625 56 51.78125 48.09375 
Q 58.015625 40.1875 58.015625 27.296875 
Q 58.015625 14.40625 51.78125 6.484375 
Q 45.5625 -1.421875 35.59375 -1.421875 
Q 29.59375 -1.421875 25.265625 0.953125 
Q 20.953125 3.328125 18.109375 8.203125 
z
M 48.6875 27.296875 
Q 48.6875 37.203125 44.609375 42.84375 
Q 40.53125 48.484375 33.40625 48.484375 
Q 26.265625 48.484375 22.1875 42.84375 
Q 18.109375 37.203125 18.109375 27.296875 
Q 18.109375 17.390625 22.1875 11.75 
Q 26.265625 6.109375 33.40625 6.109375 
Q 40.53125 6.109375 44.609375 11.75 
Q 48.6875 17.390625 48.6875 27.296875 
z
" id="DejaVuSans-70"/>
      <path d="M 9.421875 75.984375 
L 18.40625 75.984375 
L 18.40625 0 
L 9.421875 0 
z
" id="DejaVuSans-6c"/>
      <path d="M 56.203125 29.59375 
L 56.203125 25.203125 
L 14.890625 25.203125 
Q 15.484375 15.921875 20.484375 11.0625 
Q 25.484375 6.203125 34.421875 6.203125 
Q 39.59375 6.203125 44.453125 7.46875 
Q 49.3125 8.734375 54.109375 11.28125 
L 54.109375 2.78125 
Q 49.265625 0.734375 44.1875 -0.34375 
Q 39.109375 -1.421875 33.890625 -1.421875 
Q 20.796875 -1.421875 13.15625 6.1875 
Q 5.515625 13.8125 5.515625 26.8125 
Q 5.515625 40.234375 12.765625 48.109375 
Q 20.015625 56 32.328125 56 
Q 43.359375 56 49.78125 48.890625 
Q 56.203125 41.796875 56.203125 29.59375 
z
M 47.21875 32.234375 
Q 47.125 39.59375 43.09375 43.984375 
Q 39.0625 48.390625 32.421875 48.390625 
Q 24.90625 48.390625 20.390625 44.140625 
Q 15.875 39.890625 15.1875 32.171875 
z
" id="DejaVuSans-65"/>
      <path id="DejaVuSans-20"/>
      <path d="M 48.6875 27.296875 
Q 48.6875 37.203125 44.609375 42.84375 
Q 40.53125 48.484375 33.40625 48.484375 
Q 26.265625 48.484375 22.1875 42.84375 
Q 18.109375 37.203125 18.109375 27.296875 
Q 18.109375 17.390625 22.1875 11.75 
Q 26.265625 6.109375 33.40625 6.109375 
Q 40.53125 6.109375 44.609375 11.75 
Q 48.6875 17.390625 48.6875 27.296875 
z
M 18.109375 46.390625 
Q 20.953125 51.265625 25.265625 53.625 
Q 29.59375 56 35.59375 56 
Q 45.5625 56 51.78125 48.09375 
Q 58.015625 40.1875 58.015625 27.296875 
Q 58.015625 14.40625 51.78125 6.484375 
Q 45.5625 -1.421875 35.59375 -1.421875 
Q 29.59375 -1.421875 25.265625 0.953125 
Q 20.953125 3.328125 18.109375 8.203125 
L 18.109375 0 
L 9.078125 0 
L 9.078125 75.984375 
L 18.109375 75.984375 
z
" id="DejaVuSans-62"/>
      <path d="M 30.609375 48.390625 
Q 23.390625 48.390625 19.1875 42.75 
Q 14.984375 37.109375 14.984375 27.296875 
Q 14.984375 17.484375 19.15625 11.84375 
Q 23.34375 6.203125 30.609375 6.203125 
Q 37.796875 6.203125 41.984375 11.859375 
Q 46.1875 17.53125 46.1875 27.296875 
Q 46.1875 37.015625 41.984375 42.703125 
Q 37.796875 48.390625 30.609375 48.390625 
z
M 30.609375 56 
Q 42.328125 56 49.015625 48.375 
Q 55.71875 40.765625 55.71875 27.296875 
Q 55.71875 13.875 49.015625 6.21875 
Q 42.328125 -1.421875 30.609375 -1.421875 
Q 18.84375 -1.421875 12.171875 6.21875 
Q 5.515625 13.875 5.515625 27.296875 
Q 5.515625 40.765625 12.171875 48.375 
Q 18.84375 56 30.609375 56 
z
" id="DejaVuSans-6f"/>
      <path d="M 48.78125 52.59375 
L 48.78125 44.1875 
Q 44.96875 46.296875 41.140625 47.34375 
Q 37.3125 48.390625 33.40625 48.390625 
Q 24.65625 48.390625 19.8125 42.84375 
Q 14.984375 37.3125 14.984375 27.296875 
Q 14.984375 17.28125 19.8125 11.734375 
Q 24.65625 6.203125 33.40625 6.203125 
Q 37.3125 6.203125 41.140625 7.25 
Q 44.96875 8.296875 48.78125 10.40625 
L 48.78125 2.09375 
Q 45.015625 0.34375 40.984375 -0.53125 
Q 36.96875 -1.421875 32.421875 -1.421875 
Q 20.0625 -1.421875 12.78125 6.34375 
Q 5.515625 14.109375 5.515625 27.296875 
Q 5.515625 40.671875 12.859375 48.328125 
Q 20.21875 56 33.015625 56 
Q 37.15625 56 41.109375 55.140625 
Q 45.0625 54.296875 48.78125 52.59375 
z
" id="DejaVuSans-63"/>
      <path d="M 9.078125 75.984375 
L 18.109375 75.984375 
L 18.109375 31.109375 
L 44.921875 54.6875 
L 56.390625 54.6875 
L 27.390625 29.109375 
L 57.625 0 
L 45.90625 0 
L 18.109375 26.703125 
L 18.109375 0 
L 9.078125 0 
z
" id="DejaVuSans-6b"/>
     </defs>
     <g transform="translate(279.635938 438.674687)scale(0.1 -0.1)">
      <use xlink:href="#DejaVuSans-53"/>
      <use x="63.476562" xlink:href="#DejaVuSans-61"/>
      <use x="124.755859" xlink:href="#DejaVuSans-6d"/>
      <use x="222.167969" xlink:href="#DejaVuSans-70"/>
      <use x="285.644531" xlink:href="#DejaVuSans-6c"/>
      <use x="313.427734" xlink:href="#DejaVuSans-65"/>
      <use x="374.951172" xlink:href="#DejaVuSans-20"/>
      <use x="406.738281" xlink:href="#DejaVuSans-62"/>
      <use x="470.214844" xlink:href="#DejaVuSans-6c"/>
      <use x="497.998047" xlink:href="#DejaVuSans-6f"/>
      <use x="559.179688" xlink:href="#DejaVuSans-63"/>
      <use x="614.160156" xlink:href="#DejaVuSans-6b"/>
     </g>
    </g>
   </g>
   <g id="matplotlib.axis_2">
    <g id="ytick_1">
     <g id="line2d_6">
      <defs>
       <path d="M 0 0 
L -3.5 0 
" id="m02069224c0" style="stroke:#000000;stroke-width:0.8;"/>
      </defs>
      <g>
       <use style="stroke:#000000;stroke-width:0.8;" x="34.240625" xlink:href="#m02069224c0" y="410.398125"/>
      </g>
     </g>
     <g id="text_7">
      <!-- 0 -->
      <g transform="translate(20.878125 414.197344)scale(0.1 -0.1)">
       <use xlink:href="#DejaVuSans-30"/>
      </g>
     </g>
    </g>
    <g id="ytick_2">
     <g id="line2d_7">
      <g>
       <use style="stroke:#000000;stroke-width:0.8;" x="34.240625" xlink:href="#m02069224c0" y="367.278125"/>
      </g>
     </g>
     <g id="text_8">
      <!-- 1 -->
      <defs>
       <path d="M 12.40625 8.296875 
L 28.515625 8.296875 
L 28.515625 63.921875 
L 10.984375 60.40625 
L 10.984375 69.390625 
L 28.421875 72.90625 
L 38.28125 72.90625 
L 38.28125 8.296875 
L 54.390625 8.296875 
L 54.390625 0 
L 12.40625 0 
z
" id="DejaVuSans-31"/>
      </defs>
      <g transform="translate(20.878125 371.077344)scale(0.1 -0.1)">
       <use xlink:href="#DejaVuSans-31"/>
      </g>
     </g>
    </g>
    <g id="ytick_3">
     <g id="line2d_8">
      <g>
       <use style="stroke:#000000;stroke-width:0.8;" x="34.240625" xlink:href="#m02069224c0" y="324.158125"/>
      </g>
     </g>
     <g id="text_9">
      <!-- 2 -->
      <g transform="translate(20.878125 327.957344)scale(0.1 -0.1)">
       <use xlink:href="#DejaVuSans-32"/>
      </g>
     </g>
    </g>
    <g id="ytick_4">
     <g id="line2d_9">
      <g>
       <use style="stroke:#000000;stroke-width:0.8;" x="34.240625" xlink:href="#m02069224c0" y="281.038125"/>
      </g>
     </g>
     <g id="text_10">
      <!-- 3 -->
      <defs>
       <path d="M 40.578125 39.3125 
Q 47.65625 37.796875 51.625 33 
Q 55.609375 28.21875 55.609375 21.1875 
Q 55.609375 10.40625 48.1875 4.484375 
Q 40.765625 -1.421875 27.09375 -1.421875 
Q 22.515625 -1.421875 17.65625 -0.515625 
Q 12.796875 0.390625 7.625 2.203125 
L 7.625 11.71875 
Q 11.71875 9.328125 16.59375 8.109375 
Q 21.484375 6.890625 26.8125 6.890625 
Q 36.078125 6.890625 40.9375 10.546875 
Q 45.796875 14.203125 45.796875 21.1875 
Q 45.796875 27.640625 41.28125 31.265625 
Q 36.765625 34.90625 28.71875 34.90625 
L 20.21875 34.90625 
L 20.21875 43.015625 
L 29.109375 43.015625 
Q 36.375 43.015625 40.234375 45.921875 
Q 44.09375 48.828125 44.09375 54.296875 
Q 44.09375 59.90625 40.109375 62.90625 
Q 36.140625 65.921875 28.71875 65.921875 
Q 24.65625 65.921875 20.015625 65.03125 
Q 15.375 64.15625 9.8125 62.3125 
L 9.8125 71.09375 
Q 15.4375 72.65625 20.34375 73.4375 
Q 25.25 74.21875 29.59375 74.21875 
Q 40.828125 74.21875 47.359375 69.109375 
Q 53.90625 64.015625 53.90625 55.328125 
Q 53.90625 49.265625 50.4375 45.09375 
Q 46.96875 40.921875 40.578125 39.3125 
z
" id="DejaVuSans-33"/>
      </defs>
      <g transform="translate(20.878125 284.837344)scale(0.1 -0.1)">
       <use xlink:href="#DejaVuSans-33"/>
      </g>
     </g>
    </g>
    <g id="ytick_5">
     <g id="line2d_10">
      <g>
       <use style="stroke:#000000;stroke-width:0.8;" x="34.240625" xlink:href="#m02069224c0" y="237.918125"/>
      </g>
     </g>
     <g id="text_11">
      <!-- 4 -->
      <g transform="translate(20.878125 241.717344)scale(0.1 -0.1)">
       <use xlink:href="#DejaVuSans-34"/>
      </g>
     </g>
    </g>
    <g id="ytick_6">
     <g id="line2d_11">
      <g>
       <use style="stroke:#000000;stroke-width:0.8;" x="34.240625" xlink:href="#m02069224c0" y="194.798125"/>
      </g>
     </g>
     <g id="text_12">
      <!-- 5 -->
      <defs>
       <path d="M 10.796875 72.90625 
L 49.515625 72.90625 
L 49.515625 64.59375 
L 19.828125 64.59375 
L 19.828125 46.734375 
Q 21.96875 47.46875 24.109375 47.828125 
Q 26.265625 48.1875 28.421875 48.1875 
Q 40.625 48.1875 47.75 41.5 
Q 54.890625 34.8125 54.890625 23.390625 
Q 54.890625 11.625 47.5625 5.09375 
Q 40.234375 -1.421875 26.90625 -1.421875 
Q 22.3125 -1.421875 17.546875 -0.640625 
Q 12.796875 0.140625 7.71875 1.703125 
L 7.71875 11.625 
Q 12.109375 9.234375 16.796875 8.0625 
Q 21.484375 6.890625 26.703125 6.890625 
Q 35.15625 6.890625 40.078125 11.328125 
Q 45.015625 15.765625 45.015625 23.390625 
Q 45.015625 31 40.078125 35.4375 
Q 35.15625 39.890625 26.703125 39.890625 
Q 22.75 39.890625 18.8125 39.015625 
Q 14.890625 38.140625 10.796875 36.28125 
z
" id="DejaVuSans-35"/>
      </defs>
      <g transform="translate(20.878125 198.597344)scale(0.1 -0.1)">
       <use xlink:href="#DejaVuSans-35"/>
      </g>
     </g>
    </g>
    <g id="ytick_7">
     <g id="line2d_12">
      <g>
       <use style="stroke:#000000;stroke-width:0.8;" x="34.240625" xlink:href="#m02069224c0" y="151.678125"/>
      </g>
     </g>
     <g id="text_13">
      <!-- 6 -->
      <g transform="translate(20.878125 155.477344)scale(0.1 -0.1)">
       <use xlink:href="#DejaVuSans-36"/>
      </g>
     </g>
    </g>
    <g id="ytick_8">
     <g id="line2d_13">
      <g>
       <use style="stroke:#000000;stroke-width:0.8;" x="34.240625" xlink:href="#m02069224c0" y="108.558125"/>
      </g>
     </g>
     <g id="text_14">
      <!-- 7 -->
      <defs>
       <path d="M 8.203125 72.90625 
L 55.078125 72.90625 
L 55.078125 68.703125 
L 28.609375 0 
L 18.3125 0 
L 43.21875 64.59375 
L 8.203125 64.59375 
z
" id="DejaVuSans-37"/>
      </defs>
      <g transform="translate(20.878125 112.357344)scale(0.1 -0.1)">
       <use xlink:href="#DejaVuSans-37"/>
      </g>
     </g>
    </g>
    <g id="ytick_9">
     <g id="line2d_14">
      <g>
       <use style="stroke:#000000;stroke-width:0.8;" x="34.240625" xlink:href="#m02069224c0" y="65.438125"/>
      </g>
     </g>
     <g id="text_15">
      <!-- 8 -->
      <g transform="translate(20.878125 69.237344)scale(0.1 -0.1)">
       <use xlink:href="#DejaVuSans-38"/>
      </g>
     </g>
    </g>
    <g id="ytick_10">
     <g id="line2d_15">
      <g>
       <use style="stroke:#000000;stroke-width:0.8;" x="34.240625" xlink:href="#m02069224c0" y="22.318125"/>
      </g>
     </g>
     <g id="text_16">
      <!-- 9 -->
      <defs>
       <path d="M 10.984375 1.515625 
L 10.984375 10.5 
Q 14.703125 8.734375 18.5 7.8125 
Q 22.3125 6.890625 25.984375 6.890625 
Q 35.75 6.890625 40.890625 13.453125 
Q 46.046875 20.015625 46.78125 33.40625 
Q 43.953125 29.203125 39.59375 26.953125 
Q 35.25 24.703125 29.984375 24.703125 
Q 19.046875 24.703125 12.671875 31.3125 
Q 6.296875 37.9375 6.296875 49.421875 
Q 6.296875 60.640625 12.9375 67.421875 
Q 19.578125 74.21875 30.609375 74.21875 
Q 43.265625 74.21875 49.921875 64.515625 
Q 56.59375 54.828125 56.59375 36.375 
Q 56.59375 19.140625 48.40625 8.859375 
Q 40.234375 -1.421875 26.421875 -1.421875 
Q 22.703125 -1.421875 18.890625 -0.6875 
Q 15.09375 0.046875 10.984375 1.515625 
z
M 30.609375 32.421875 
Q 37.25 32.421875 41.125 36.953125 
Q 45.015625 41.5 45.015625 49.421875 
Q 45.015625 57.28125 41.125 61.84375 
Q 37.25 66.40625 30.609375 66.40625 
Q 23.96875 66.40625 20.09375 61.84375 
Q 16.21875 57.28125 16.21875 49.421875 
Q 16.21875 41.5 20.09375 36.953125 
Q 23.96875 32.421875 30.609375 32.421875 
z
" id="DejaVuSans-39"/>
      </defs>
      <g transform="translate(20.878125 26.117344)scale(0.1 -0.1)">
       <use xlink:href="#DejaVuSans-39"/>
      </g>
     </g>
    </g>
    <g id="text_17">
     <!-- Entropy -->
     <defs>
      <path d="M 9.8125 72.90625 
L 55.90625 72.90625 
L 55.90625 64.59375 
L 19.671875 64.59375 
L 19.671875 43.015625 
L 54.390625 43.015625 
L 54.390625 34.71875 
L 19.671875 34.71875 
L 19.671875 8.296875 
L 56.78125 8.296875 
L 56.78125 0 
L 9.8125 0 
z
" id="DejaVuSans-45"/>
      <path d="M 54.890625 33.015625 
L 54.890625 0 
L 45.90625 0 
L 45.90625 32.71875 
Q 45.90625 40.484375 42.875 44.328125 
Q 39.84375 48.1875 33.796875 48.1875 
Q 26.515625 48.1875 22.3125 43.546875 
Q 18.109375 38.921875 18.109375 30.90625 
L 18.109375 0 
L 9.078125 0 
L 9.078125 54.6875 
L 18.109375 54.6875 
L 18.109375 46.1875 
Q 21.34375 51.125 25.703125 53.5625 
Q 30.078125 56 35.796875 56 
Q 45.21875 56 50.046875 50.171875 
Q 54.890625 44.34375 54.890625 33.015625 
z
" id="DejaVuSans-6e"/>
      <path d="M 18.3125 70.21875 
L 18.3125 54.6875 
L 36.8125 54.6875 
L 36.8125 47.703125 
L 18.3125 47.703125 
L 18.3125 18.015625 
Q 18.3125 11.328125 20.140625 9.421875 
Q 21.96875 7.515625 27.59375 7.515625 
L 36.8125 7.515625 
L 36.8125 0 
L 27.59375 0 
Q 17.1875 0 13.234375 3.875 
Q 9.28125 7.765625 9.28125 18.015625 
L 9.28125 47.703125 
L 2.6875 47.703125 
L 2.6875 54.6875 
L 9.28125 54.6875 
L 9.28125 70.21875 
z
" id="DejaVuSans-74"/>
      <path d="M 41.109375 46.296875 
Q 39.59375 47.171875 37.8125 47.578125 
Q 36.03125 48 33.890625 48 
Q 26.265625 48 22.1875 43.046875 
Q 18.109375 38.09375 18.109375 28.8125 
L 18.109375 0 
L 9.078125 0 
L 9.078125 54.6875 
L 18.109375 54.6875 
L 18.109375 46.1875 
Q 20.953125 51.171875 25.484375 53.578125 
Q 30.03125 56 36.53125 56 
Q 37.453125 56 38.578125 55.875 
Q 39.703125 55.765625 41.0625 55.515625 
z
" id="DejaVuSans-72"/>
      <path d="M 32.171875 -5.078125 
Q 28.375 -14.84375 24.75 -17.8125 
Q 21.140625 -20.796875 15.09375 -20.796875 
L 7.90625 -20.796875 
L 7.90625 -13.28125 
L 13.1875 -13.28125 
Q 16.890625 -13.28125 18.9375 -11.515625 
Q 21 -9.765625 23.484375 -3.21875 
L 25.09375 0.875 
L 2.984375 54.6875 
L 12.5 54.6875 
L 29.59375 11.921875 
L 46.6875 54.6875 
L 56.203125 54.6875 
z
" id="DejaVuSans-79"/>
     </defs>
     <g transform="translate(14.798437 235.893281)rotate(-90)scale(0.1 -0.1)">
      <use xlink:href="#DejaVuSans-45"/>
      <use x="63.183594" xlink:href="#DejaVuSans-6e"/>
      <use x="126.5625" xlink:href="#DejaVuSans-74"/>
      <use x="165.771484" xlink:href="#DejaVuSans-72"/>
      <use x="206.853516" xlink:href="#DejaVuSans-6f"/>
      <use x="268.035156" xlink:href="#DejaVuSans-70"/>
      <use x="331.511719" xlink:href="#DejaVuSans-79"/>
     </g>
    </g>
   </g>
   <g id="line2d_16">
    <path clip-path="url(#pa40c3590eb)" d="M 34.240625 248.365365 
L 39.934503 265.592285 
L 45.62838 243.400961 
L 51.322258 242.933936 
L 57.016135 264.337175 
L 62.710013 263.611513 
L 68.40389 252.538887 
L 74.097768 258.05194 
L 79.791645 254.172348 
L 85.485523 267.449116 
L 91.179401 249.824913 
L 96.873278 249.486601 
L 102.567156 254.548238 
L 108.261033 248.534369 
L 113.954911 244.112647 
L 119.648788 246.001158 
L 125.342666 252.471625 
L 131.036543 258.830939 
L 136.730421 260.845905 
L 142.424298 261.159133 
L 148.118176 262.918795 
L 153.812054 272.496008 
L 159.505931 262.480145 
L 165.199809 266.327959 
L 170.893686 283.739674 
L 176.587564 287.220229 
L 182.281441 270.204272 
L 187.975319 259.25588 
L 193.669196 281.898444 
L 199.363074 254.86488 
L 205.056952 245.8995 
L 210.750829 259.675923 
L 216.444707 268.90402 
L 222.138584 269.05934 
L 227.832462 257.160583 
L 233.526339 265.236077 
L 239.220217 279.531729 
L 244.914094 273.890844 
L 250.607972 255.687559 
L 256.301849 260.179434 
L 261.995727 268.714607 
L 267.689605 258.441047 
L 273.383482 288.002066 
L 279.07736 263.808554 
L 284.771237 262.130712 
L 290.465115 256.54207 
L 296.158992 240.381916 
L 301.85287 241.841359 
L 307.546747 257.825105 
L 313.240625 240.731528 
L 318.934503 246.188054 
L 324.62838 246.29822 
L 330.322258 256.758501 
L 336.016135 249.900991 
L 341.710013 263.881919 
L 347.40389 253.315038 
L 353.097768 249.496622 
L 358.791645 236.545071 
L 364.485523 264.059029 
L 370.179401 259.798394 
L 375.873278 255.23838 
L 381.567156 255.938225 
L 387.261033 250.962338 
L 392.954911 254.242151 
L 398.648788 262.964675 
L 404.342666 274.016305 
L 410.036543 224.469402 
L 415.730421 233.090894 
L 421.424298 238.439424 
L 427.118176 267.444796 
L 432.812054 250.814558 
L 438.505931 267.981154 
L 444.199809 249.582833 
L 449.893686 250.303964 
L 455.587564 246.378435 
L 461.281441 246.385944 
L 466.975319 258.470438 
L 472.669196 270.395308 
L 478.363074 256.829387 
L 484.056952 264.668 
L 489.750829 255.412422 
L 495.444707 264.159031 
L 501.138584 250.802136 
L 506.832462 255.945459 
L 512.526339 255.579789 
L 518.220217 266.541533 
L 523.914094 258.453962 
L 529.607972 256.847968 
L 535.301849 263.816637 
L 540.995727 248.342411 
L 546.689605 266.419975 
L 552.383482 261.391705 
L 558.07736 269.548602 
L 563.771237 253.050821 
L 569.465115 258.178712 
L 575.158992 275.124322 
L 580.85287 253.956465 
L 586.546747 273.961766 
L 592.240625 295.375962 
L 597.934503 323.521241 
" style="fill:none;stroke:#35db9d;stroke-linecap:square;stroke-width:1.5;"/>
   </g>
   <g id="line2d_17">
    <path clip-path="url(#pa40c3590eb)" d="M 34.240625 337.412218 
L 39.934503 336.903301 
L 45.62838 359.399664 
L 51.322258 295.523862 
L 57.016135 298.239304 
L 62.710013 300.932142 
L 68.40389 298.743948 
L 74.097768 296.104411 
L 79.791645 294.460374 
L 85.485523 296.836044 
L 91.179401 298.960838 
L 96.873278 298.797248 
L 102.567156 296.366055 
L 108.261033 295.071619 
L 113.954911 295.690682 
L 119.648788 296.280323 
L 125.342666 295.453652 
L 131.036543 300.410317 
L 136.730421 296.259454 
L 142.424298 294.842407 
L 148.118176 295.400351 
L 153.812054 297.783102 
L 159.505931 296.958655 
L 165.199809 298.557937 
L 170.893686 291.533466 
L 176.587564 293.756315 
L 182.281441 295.986982 
L 187.975319 294.965018 
L 193.669196 296.631388 
L 199.363074 293.212158 
L 205.056952 294.965018 
L 210.750829 291.392209 
L 216.444707 299.49645 
L 222.138584 295.637382 
L 227.832462 303.283925 
L 233.526339 294.846095 
L 239.220217 295.506952 
L 244.914094 293.14507 
L 250.607972 293.950872 
L 256.301849 300.208327 
L 261.995727 298.101735 
L 267.689605 294.177861 
L 273.383482 293.057114 
L 279.07736 297.242633 
L 284.771237 295.036964 
L 290.465115 294.386205 
L 296.158992 297.676501 
L 301.85287 294.159216 
L 307.546747 299.318257 
L 313.240625 297.011956 
L 318.934503 297.238945 
L 324.62838 293.756315 
L 330.322258 295.682865 
L 336.016135 293.09177 
L 341.710013 296.751776 
L 347.40389 296.152853 
L 353.097768 296.518818 
L 358.791645 297.783102 
L 364.485523 296.502454 
L 370.179401 298.447648 
L 375.873278 297.574758 
L 381.567156 297.623201 
L 387.261033 297.030601 
L 392.954911 299.515095 
L 398.648788 298.281777 
L 404.342666 292.353055 
L 410.036543 293.265458 
L 415.730421 293.943791 
L 421.424298 294.594549 
L 427.118176 292.318399 
L 432.812054 294.877062 
L 438.505931 294.138348 
L 444.199809 295.70151 
L 449.893686 297.414857 
L 455.587564 291.621422 
L 461.281441 296.991087 
L 466.975319 296.502454 
L 472.669196 283.53805 
L 478.363074 257.509348 
L 484.056952 242.162193 
L 489.750829 240.0273 
L 495.444707 283.128067 
L 501.138584 318.794235 
L 506.832462 410.398125 
L 512.526339 374.570332 
L 518.220217 360.205466 
L 523.914094 357.250028 
L 529.607972 334.889173 
L 535.301849 311.851116 
L 540.995727 283.06098 
L 546.689605 268.378371 
L 552.383482 277.005901 
L 558.07736 274.521407 
L 563.771237 286.719522 
L 569.465115 275.676809 
L 575.158992 267.908383 
L 580.85287 270.862865 
L 586.546747 274.065205 
L 592.240625 295.824371 
" style="fill:none;stroke:#ed2a25;stroke-linecap:square;stroke-width:1.5;"/>
   </g>
   <g id="line2d_18">
    <path clip-path="url(#pa40c3590eb)" d="M 34.240625 248.42222 
L 39.934503 272.221421 
L 45.62838 243.348479 
L 51.322258 214.252598 
L 57.016135 259.527516 
L 62.710013 270.985192 
L 68.40389 212.067288 
L 74.097768 238.360872 
L 79.791645 272.818803 
L 85.485523 251.860515 
L 91.179401 212.809133 
L 96.873278 256.535166 
L 102.567156 270.106123 
L 108.261033 219.810165 
L 113.954911 228.072373 
L 119.648788 271.072081 
L 125.342666 262.450181 
L 131.036543 210.217884 
L 136.730421 251.655582 
L 142.424298 271.219166 
L 148.118176 228.91409 
L 153.812054 220.440832 
L 159.505931 267.627029 
L 165.199809 273.307027 
L 170.893686 207.718716 
L 176.587564 248.226546 
L 182.281441 272.982465 
L 187.975319 241.629872 
L 193.669196 216.520356 
L 199.363074 260.858565 
L 205.056952 272.057304 
L 210.750829 210.910721 
L 216.444707 243.201635 
L 222.138584 268.92954 
L 227.832462 250.168169 
L 233.526339 211.891568 
L 239.220217 256.817204 
L 244.914094 272.927724 
L 250.607972 215.314724 
L 256.301849 234.187531 
L 261.995727 272.37126 
L 267.689605 260.706742 
L 273.383482 207.004449 
L 279.07736 254.543995 
L 284.771237 271.382461 
L 290.465115 226.261538 
L 296.158992 224.390461 
L 301.85287 268.910733 
L 307.546747 268.401259 
L 313.240625 206.218289 
L 318.934503 252.528346 
L 324.62838 271.599204 
L 330.322258 233.980406 
L 336.016135 218.698924 
L 341.710013 265.0333 
L 347.40389 272.15523 
L 353.097768 208.280712 
L 358.791645 249.306138 
L 364.485523 273.756869 
L 370.179401 242.132516 
L 375.873278 213.744896 
L 381.567156 258.701379 
L 387.261033 269.01674 
L 392.954911 214.300875 
L 398.648788 238.291692 
L 404.342666 272.148635 
L 410.036543 253.736386 
L 415.730421 209.212596 
L 421.424298 254.501534 
L 427.118176 270.631377 
L 432.812054 222.594016 
L 438.505931 229.436704 
L 444.199809 269.993188 
L 449.893686 266.170892 
L 455.587564 206.226664 
L 461.281441 252.562505 
L 466.975319 271.686093 
L 472.669196 231.050744 
L 478.363074 219.122934 
L 484.056952 266.243489 
L 489.750829 272.897117 
L 495.444707 205.32695 
L 501.138584 250.590563 
L 506.832462 271.466768 
L 512.526339 242.32096 
L 518.220217 213.102649 
L 523.914094 260.420566 
L 529.607972 271.217423 
L 535.301849 212.232159 
L 540.995727 241.087188 
L 546.689605 271.896717 
L 552.383482 250.486886 
L 558.07736 210.593839 
L 563.771237 258.059475 
L 569.465115 271.070338 
L 575.158992 218.1639 
L 580.85287 234.655514 
L 586.546747 271.221252 
L 592.240625 262.376263 
L 597.934503 410.398125 
" style="fill:none;stroke:#86b1e0;stroke-linecap:square;stroke-width:1.5;"/>
   </g>
   <g id="line2d_19">
    <path clip-path="url(#pa40c3590eb)" d="M 34.240625 245.309848 
L 39.934503 262.138608 
L 45.62838 224.080339 
L 51.322258 182.175838 
L 57.016135 206.221669 
L 62.710013 221.703588 
L 68.40389 179.679102 
L 74.097768 217.923349 
L 79.791645 207.209058 
L 85.485523 184.909601 
L 91.179401 202.044945 
L 96.873278 215.161394 
L 102.567156 193.448497 
L 108.261033 196.420097 
L 113.954911 218.041632 
L 119.648788 199.215266 
L 125.342666 195.670484 
L 131.036543 220.66109 
L 136.730421 211.403224 
L 142.424298 184.928095 
L 148.118176 202.939978 
L 153.812054 208.291341 
L 159.505931 211.5231 
L 165.199809 180.10039 
L 170.893686 222.312608 
L 176.587564 213.015741 
L 182.281441 180.67621 
L 187.975319 221.887462 
L 193.669196 207.565249 
L 199.363074 193.718972 
L 205.056952 194.849244 
L 210.750829 206.137998 
L 216.444707 222.492624 
L 222.138584 187.249036 
L 227.832462 234.386786 
L 233.526339 198.432508 
L 239.220217 234.307097 
L 244.914094 229.76674 
L 250.607972 208.156374 
L 256.301849 196.340429 
L 261.995727 213.446169 
L 267.689605 214.663423 
L 273.383482 184.734183 
L 279.07736 225.899311 
L 284.771237 236.272287 
L 290.465115 210.36178 
L 296.158992 188.546343 
L 301.85287 213.627731 
L 307.546747 205.743279 
L 313.240625 177.648004 
L 318.934503 218.600753 
L 324.62838 208.083955 
L 330.322258 182.411531 
L 336.016135 207.49788 
L 341.710013 206.337987 
L 347.40389 181.175696 
L 353.097768 203.725824 
L 358.791645 207.544468 
L 364.485523 204.84322 
L 370.179401 177.137898 
L 375.873278 217.43137 
L 381.567156 206.940955 
L 387.261033 203.710707 
L 392.954911 175.964847 
L 398.648788 214.565183 
L 404.342666 211.208583 
L 410.036543 177.226418 
L 415.730421 216.236253 
L 421.424298 209.846457 
L 427.118176 202.839628 
L 432.812054 177.381153 
L 438.505931 211.271593 
L 444.199809 211.439153 
L 449.893686 177.076987 
L 455.587564 210.527044 
L 461.281441 210.785808 
L 466.975319 203.767615 
L 472.669196 177.918837 
L 478.363074 205.858855 
L 484.056952 205.035279 
L 489.750829 209.875132 
L 495.444707 176.437821 
L 501.138584 211.91202 
L 506.832462 213.51714 
L 512.526339 177.550374 
L 518.220217 219.394176 
L 523.914094 205.189297 
L 529.607972 177.513766 
L 535.301849 215.087769 
L 540.995727 212.296607 
L 546.689605 191.153658 
L 552.383482 188.176643 
L 558.07736 212.766481 
L 563.771237 206.80502 
L 569.465115 185.938887 
L 575.158992 189.730637 
L 580.85287 213.77561 
L 586.546747 176.668182 
L 592.240625 217.114015 
L 597.934503 222.523788 
" style="fill:none;stroke:#cc5da6;stroke-linecap:square;stroke-width:1.5;"/>
   </g>
   <g id="line2d_20">
    <path clip-path="url(#pa40c3590eb)" d="M 34.240625 410.398125 
L 39.934503 410.398125 
L 45.62838 369.422459 
L 51.322258 369.422459 
L 57.016135 410.398125 
L 62.710013 410.398125 
L 68.40389 352.954565 
L 74.097768 369.422459 
L 79.791645 369.422459 
L 85.485523 352.954565 
L 91.179401 388.820772 
L 96.873278 410.398125 
L 102.567156 410.398125 
L 108.261033 410.398125 
L 113.954911 410.398125 
L 119.648788 410.398125 
L 125.342666 410.398125 
L 131.036543 410.398125 
L 136.730421 410.398125 
L 142.424298 410.398125 
L 148.118176 410.398125 
L 153.812054 410.398125 
L 159.505931 369.422459 
L 165.199809 388.820772 
L 170.893686 410.398125 
L 176.587564 352.954565 
L 182.281441 410.398125 
L 187.975319 410.398125 
L 193.669196 352.954565 
L 199.363074 410.398125 
L 205.056952 410.398125 
L 210.750829 410.398125 
L 216.444707 410.398125 
L 222.138584 410.398125 
L 227.832462 410.398125 
L 233.526339 410.398125 
L 239.220217 369.422459 
L 244.914094 369.422459 
L 250.607972 369.422459 
L 256.301849 369.422459 
L 261.995727 369.422459 
L 267.689605 369.422459 
L 273.383482 369.422459 
L 279.07736 369.422459 
L 284.771237 369.422459 
L 290.465115 369.422459 
L 296.158992 369.422459 
L 301.85287 369.422459 
L 307.546747 369.422459 
L 313.240625 369.422459 
L 318.934503 388.820772 
L 324.62838 369.422459 
L 330.322258 369.422459 
L 336.016135 369.422459 
L 341.710013 369.422459 
L 347.40389 410.398125 
L 353.097768 410.398125 
L 358.791645 410.398125 
L 364.485523 410.398125 
L 370.179401 410.398125 
L 375.873278 410.398125 
L 381.567156 369.422459 
L 387.261033 369.422459 
L 392.954911 369.422459 
L 398.648788 369.422459 
L 404.342666 369.422459 
L 410.036543 410.398125 
L 415.730421 369.422459 
L 421.424298 369.422459 
L 427.118176 369.422459 
L 432.812054 369.422459 
L 438.505931 369.422459 
L 444.199809 369.422459 
L 449.893686 369.422459 
L 455.587564 369.422459 
L 461.281441 369.422459 
L 466.975319 369.422459 
L 472.669196 369.422459 
L 478.363074 369.422459 
L 484.056952 369.422459 
L 489.750829 369.422459 
L 495.444707 369.422459 
L 501.138584 369.422459 
L 506.832462 369.422459 
L 512.526339 369.422459 
L 518.220217 369.422459 
L 523.914094 369.422459 
L 529.607972 369.422459 
L 535.301849 410.398125 
L 540.995727 410.398125 
" style="fill:none;stroke:#3819b5;stroke-linecap:square;stroke-width:1.5;"/>
   </g>
   <g id="line2d_21">
    <path clip-path="url(#pa40c3590eb)" d="M 34.240625 318.457996 
L 39.934503 321.716991 
L 45.62838 318.326565 
L 51.322258 319.414211 
L 57.016135 305.042784 
L 62.710013 321.481686 
L 68.40389 303.623491 
L 74.097768 314.839796 
L 79.791645 318.160741 
L 85.485523 333.137457 
L 91.179401 333.137457 
L 96.873278 338.900417 
L 102.567156 333.137457 
L 108.261033 325.616637 
L 113.954911 314.839796 
L 119.648788 318.326565 
L 125.342666 312.938145 
L 131.036543 321.716991 
L 136.730421 318.326565 
L 142.424298 333.137457 
L 148.118176 312.938145 
L 153.812054 321.716991 
L 159.505931 318.326565 
L 165.199809 330.796341 
L 170.893686 333.137457 
L 176.587564 328.937582 
L 182.281441 319.414211 
L 187.975319 318.326565 
L 193.669196 319.414211 
L 199.363074 326.291406 
L 205.056952 333.137457 
L 210.750829 333.137457 
L 216.444707 325.616637 
L 222.138584 321.716991 
L 227.832462 312.938145 
L 233.526339 318.326565 
L 239.220217 337.673536 
L 244.914094 321.716991 
L 250.607972 318.326565 
L 256.301849 318.326565 
L 261.995727 318.396046 
L 267.689605 325.616637 
L 273.383482 333.137457 
L 279.07736 333.137457 
L 284.771237 321.716991 
L 290.465115 319.414211 
L 296.158992 324.802632 
L 301.85287 319.414211 
L 307.546747 328.937582 
L 313.240625 326.291406 
L 318.934503 318.326565 
L 324.62838 318.326565 
L 330.322258 314.839796 
L 336.016135 325.616637 
L 341.710013 333.137457 
L 347.40389 333.137457 
L 353.097768 321.716991 
L 358.791645 319.414211 
L 364.485523 312.938145 
L 370.179401 319.414211 
L 375.873278 328.937582 
L 381.567156 326.291406 
L 387.261033 318.326565 
L 392.954911 318.326565 
L 398.648788 326.291406 
L 404.342666 325.616637 
L 410.036543 333.137457 
L 415.730421 333.137457 
L 421.424298 321.716991 
L 427.118176 319.414211 
L 432.812054 312.332856 
L 438.505931 319.414211 
L 444.199809 318.396046 
L 449.893686 333.137457 
L 455.587564 335.000772 
L 461.281441 310.265381 
L 466.975319 325.616637 
L 472.669196 319.414211 
L 478.363074 333.137457 
L 484.056952 318.396046 
L 489.750829 319.414211 
L 495.444707 318.326565 
L 501.138584 319.414211 
L 506.832462 321.716991 
L 512.526339 333.137457 
L 518.220217 333.137457 
L 523.914094 334.117286 
L 529.607972 319.414211 
L 535.301849 325.616637 
L 540.995727 333.137457 
L 546.689605 333.137457 
L 552.383482 325.616637 
L 558.07736 319.414211 
L 563.771237 312.938145 
L 569.465115 319.414211 
L 575.158992 310.265381 
L 580.85287 333.137457 
L 586.546747 410.398125 
" style="fill:none;stroke:#a26e17;stroke-linecap:square;stroke-width:1.5;"/>
   </g>
   <g id="patch_3">
    <path d="M 34.240625 410.398125 
L 34.240625 22.318125 
" style="fill:none;stroke:#000000;stroke-linecap:square;stroke-linejoin:miter;stroke-width:0.8;"/>
   </g>
   <g id="patch_4">
    <path d="M 592.240625 410.398125 
L 592.240625 22.318125 
" style="fill:none;stroke:#000000;stroke-linecap:square;stroke-linejoin:miter;stroke-width:0.8;"/>
   </g>
   <g id="patch_5">
    <path d="M 34.240625 410.398125 
L 592.240625 410.398125 
" style="fill:none;stroke:#000000;stroke-linecap:square;stroke-linejoin:miter;stroke-width:0.8;"/>
   </g>
   <g id="patch_6">
    <path d="M 34.240625 22.318125 
L 592.240625 22.318125 
" style="fill:none;stroke:#000000;stroke-linecap:square;stroke-linejoin:miter;stroke-width:0.8;"/>
   </g>
   <g id="text_18">
    <!-- Section Entropy (sampled @ 100): cape-9472-d69be688e -->
    <defs>
     <path d="M 9.421875 54.6875 
L 18.40625 54.6875 
L 18.40625 0 
L 9.421875 0 
z
M 9.421875 75.984375 
L 18.40625 75.984375 
L 18.40625 64.59375 
L 9.421875 64.59375 
z
" id="DejaVuSans-69"/>
     <path d="M 31 75.875 
Q 24.46875 64.65625 21.28125 53.65625 
Q 18.109375 42.671875 18.109375 31.390625 
Q 18.109375 20.125 21.3125 9.0625 
Q 24.515625 -2 31 -13.1875 
L 23.1875 -13.1875 
Q 15.875 -1.703125 12.234375 9.375 
Q 8.59375 20.453125 8.59375 31.390625 
Q 8.59375 42.28125 12.203125 53.3125 
Q 15.828125 64.359375 23.1875 75.875 
z
" id="DejaVuSans-28"/>
     <path d="M 44.28125 53.078125 
L 44.28125 44.578125 
Q 40.484375 46.53125 36.375 47.5 
Q 32.28125 48.484375 27.875 48.484375 
Q 21.1875 48.484375 17.84375 46.4375 
Q 14.5 44.390625 14.5 40.28125 
Q 14.5 37.15625 16.890625 35.375 
Q 19.28125 33.59375 26.515625 31.984375 
L 29.59375 31.296875 
Q 39.15625 29.25 43.1875 25.515625 
Q 47.21875 21.78125 47.21875 15.09375 
Q 47.21875 7.46875 41.1875 3.015625 
Q 35.15625 -1.421875 24.609375 -1.421875 
Q 20.21875 -1.421875 15.453125 -0.5625 
Q 10.6875 0.296875 5.421875 2 
L 5.421875 11.28125 
Q 10.40625 8.6875 15.234375 7.390625 
Q 20.0625 6.109375 24.8125 6.109375 
Q 31.15625 6.109375 34.5625 8.28125 
Q 37.984375 10.453125 37.984375 14.40625 
Q 37.984375 18.0625 35.515625 20.015625 
Q 33.0625 21.96875 24.703125 23.78125 
L 21.578125 24.515625 
Q 13.234375 26.265625 9.515625 29.90625 
Q 5.8125 33.546875 5.8125 39.890625 
Q 5.8125 47.609375 11.28125 51.796875 
Q 16.75 56 26.8125 56 
Q 31.78125 56 36.171875 55.265625 
Q 40.578125 54.546875 44.28125 53.078125 
z
" id="DejaVuSans-73"/>
     <path d="M 45.40625 46.390625 
L 45.40625 75.984375 
L 54.390625 75.984375 
L 54.390625 0 
L 45.40625 0 
L 45.40625 8.203125 
Q 42.578125 3.328125 38.25 0.953125 
Q 33.9375 -1.421875 27.875 -1.421875 
Q 17.96875 -1.421875 11.734375 6.484375 
Q 5.515625 14.40625 5.515625 27.296875 
Q 5.515625 40.1875 11.734375 48.09375 
Q 17.96875 56 27.875 56 
Q 33.9375 56 38.25 53.625 
Q 42.578125 51.265625 45.40625 46.390625 
z
M 14.796875 27.296875 
Q 14.796875 17.390625 18.875 11.75 
Q 22.953125 6.109375 30.078125 6.109375 
Q 37.203125 6.109375 41.296875 11.75 
Q 45.40625 17.390625 45.40625 27.296875 
Q 45.40625 37.203125 41.296875 42.84375 
Q 37.203125 48.484375 30.078125 48.484375 
Q 22.953125 48.484375 18.875 42.84375 
Q 14.796875 37.203125 14.796875 27.296875 
z
" id="DejaVuSans-64"/>
     <path d="M 37.203125 26.21875 
Q 37.203125 19.234375 40.671875 15.25 
Q 44.140625 11.28125 50.203125 11.28125 
Q 56.203125 11.28125 59.640625 15.28125 
Q 63.09375 19.28125 63.09375 26.21875 
Q 63.09375 33.0625 59.578125 37.078125 
Q 56.0625 41.109375 50.09375 41.109375 
Q 44.1875 41.109375 40.6875 37.109375 
Q 37.203125 33.109375 37.203125 26.21875 
z
M 63.8125 11.625 
Q 60.890625 7.859375 57.109375 6.078125 
Q 53.328125 4.296875 48.296875 4.296875 
Q 39.890625 4.296875 34.640625 10.375 
Q 29.390625 16.453125 29.390625 26.21875 
Q 29.390625 35.984375 34.65625 42.078125 
Q 39.9375 48.1875 48.296875 48.1875 
Q 53.328125 48.1875 57.125 46.359375 
Q 60.9375 44.53125 63.8125 40.828125 
L 63.8125 47.21875 
L 70.796875 47.21875 
L 70.796875 11.28125 
Q 77.9375 12.359375 81.953125 17.796875 
Q 85.984375 23.25 85.984375 31.890625 
Q 85.984375 37.109375 84.4375 41.703125 
Q 82.90625 46.296875 79.78125 50.203125 
Q 74.703125 56.59375 67.40625 59.984375 
Q 60.109375 63.375 51.515625 63.375 
Q 45.515625 63.375 39.984375 61.78125 
Q 34.46875 60.203125 29.78125 57.078125 
Q 22.125 52.09375 17.796875 44.015625 
Q 13.484375 35.9375 13.484375 26.515625 
Q 13.484375 18.75 16.28125 11.953125 
Q 19.09375 5.171875 24.421875 0 
Q 29.546875 -5.078125 36.28125 -7.734375 
Q 43.015625 -10.40625 50.6875 -10.40625 
Q 56.984375 -10.40625 63.0625 -8.28125 
Q 69.140625 -6.15625 74.21875 -2.203125 
L 78.609375 -7.625 
Q 72.515625 -12.359375 65.3125 -14.875 
Q 58.109375 -17.390625 50.6875 -17.390625 
Q 41.65625 -17.390625 33.640625 -14.1875 
Q 25.640625 -10.984375 19.390625 -4.890625 
Q 13.140625 1.21875 9.859375 9.25 
Q 6.59375 17.28125 6.59375 26.515625 
Q 6.59375 35.40625 9.90625 43.453125 
Q 13.234375 51.515625 19.390625 57.625 
Q 25.6875 63.8125 33.9375 67.109375 
Q 42.1875 70.40625 51.421875 70.40625 
Q 61.765625 70.40625 70.625 66.15625 
Q 79.5 61.921875 85.5 54.109375 
Q 89.15625 49.3125 91.078125 43.703125 
Q 93.015625 38.09375 93.015625 32.078125 
Q 93.015625 19.234375 85.25 11.8125 
Q 77.484375 4.390625 63.8125 4.109375 
z
" id="DejaVuSans-40"/>
     <path d="M 8.015625 75.875 
L 15.828125 75.875 
Q 23.140625 64.359375 26.78125 53.3125 
Q 30.421875 42.28125 30.421875 31.390625 
Q 30.421875 20.453125 26.78125 9.375 
Q 23.140625 -1.703125 15.828125 -13.1875 
L 8.015625 -13.1875 
Q 14.5 -2 17.703125 9.0625 
Q 20.90625 20.125 20.90625 31.390625 
Q 20.90625 42.671875 17.703125 53.65625 
Q 14.5 64.65625 8.015625 75.875 
z
" id="DejaVuSans-29"/>
     <path d="M 11.71875 12.40625 
L 22.015625 12.40625 
L 22.015625 0 
L 11.71875 0 
z
M 11.71875 51.703125 
L 22.015625 51.703125 
L 22.015625 39.3125 
L 11.71875 39.3125 
z
" id="DejaVuSans-3a"/>
     <path d="M 4.890625 31.390625 
L 31.203125 31.390625 
L 31.203125 23.390625 
L 4.890625 23.390625 
z
" id="DejaVuSans-2d"/>
    </defs>
    <g transform="translate(140.02625 16.318125)scale(0.12 -0.12)">
     <use xlink:href="#DejaVuSans-53"/>
     <use x="63.476562" xlink:href="#DejaVuSans-65"/>
     <use x="125" xlink:href="#DejaVuSans-63"/>
     <use x="179.980469" xlink:href="#DejaVuSans-74"/>
     <use x="219.189453" xlink:href="#DejaVuSans-69"/>
     <use x="246.972656" xlink:href="#DejaVuSans-6f"/>
     <use x="308.154297" xlink:href="#DejaVuSans-6e"/>
     <use x="371.533203" xlink:href="#DejaVuSans-20"/>
     <use x="403.320312" xlink:href="#DejaVuSans-45"/>
     <use x="466.503906" xlink:href="#DejaVuSans-6e"/>
     <use x="529.882812" xlink:href="#DejaVuSans-74"/>
     <use x="569.091797" xlink:href="#DejaVuSans-72"/>
     <use x="610.173828" xlink:href="#DejaVuSans-6f"/>
     <use x="671.355469" xlink:href="#DejaVuSans-70"/>
     <use x="734.832031" xlink:href="#DejaVuSans-79"/>
     <use x="794.011719" xlink:href="#DejaVuSans-20"/>
     <use x="825.798828" xlink:href="#DejaVuSans-28"/>
     <use x="864.8125" xlink:href="#DejaVuSans-73"/>
     <use x="916.912109" xlink:href="#DejaVuSans-61"/>
     <use x="978.191406" xlink:href="#DejaVuSans-6d"/>
     <use x="1075.603516" xlink:href="#DejaVuSans-70"/>
     <use x="1139.080078" xlink:href="#DejaVuSans-6c"/>
     <use x="1166.863281" xlink:href="#DejaVuSans-65"/>
     <use x="1228.386719" xlink:href="#DejaVuSans-64"/>
     <use x="1291.863281" xlink:href="#DejaVuSans-20"/>
     <use x="1323.650391" xlink:href="#DejaVuSans-40"/>
     <use x="1423.650391" xlink:href="#DejaVuSans-20"/>
     <use x="1455.4375" xlink:href="#DejaVuSans-31"/>
     <use x="1519.060547" xlink:href="#DejaVuSans-30"/>
     <use x="1582.683594" xlink:href="#DejaVuSans-30"/>
     <use x="1646.306641" xlink:href="#DejaVuSans-29"/>
     <use x="1685.320312" xlink:href="#DejaVuSans-3a"/>
     <use x="1719.011719" xlink:href="#DejaVuSans-20"/>
     <use x="1750.798828" xlink:href="#DejaVuSans-63"/>
     <use x="1805.779297" xlink:href="#DejaVuSans-61"/>
     <use x="1867.058594" xlink:href="#DejaVuSans-70"/>
     <use x="1930.535156" xlink:href="#DejaVuSans-65"/>
     <use x="1992.058594" xlink:href="#DejaVuSans-2d"/>
     <use x="2028.142578" xlink:href="#DejaVuSans-39"/>
     <use x="2091.765625" xlink:href="#DejaVuSans-34"/>
     <use x="2155.388672" xlink:href="#DejaVuSans-37"/>
     <use x="2219.011719" xlink:href="#DejaVuSans-32"/>
     <use x="2282.634766" xlink:href="#DejaVuSans-2d"/>
     <use x="2318.71875" xlink:href="#DejaVuSans-64"/>
     <use x="2382.195312" xlink:href="#DejaVuSans-36"/>
     <use x="2445.818359" xlink:href="#DejaVuSans-39"/>
     <use x="2509.441406" xlink:href="#DejaVuSans-62"/>
     <use x="2572.917969" xlink:href="#DejaVuSans-65"/>
     <use x="2634.441406" xlink:href="#DejaVuSans-36"/>
     <use x="2698.064453" xlink:href="#DejaVuSans-38"/>
     <use x="2761.6875" xlink:href="#DejaVuSans-38"/>
     <use x="2825.310547" xlink:href="#DejaVuSans-65"/>
    </g>
   </g>
   <g id="legend_1">
    <g id="patch_7">
     <path d="M 523.428125 118.386875 
L 585.240625 118.386875 
Q 587.240625 118.386875 587.240625 116.386875 
L 587.240625 29.318125 
Q 587.240625 27.318125 585.240625 27.318125 
L 523.428125 27.318125 
Q 521.428125 27.318125 521.428125 29.318125 
L 521.428125 116.386875 
Q 521.428125 118.386875 523.428125 118.386875 
z
" style="fill:#ffffff;opacity:0.8;stroke:#cccccc;stroke-linejoin:miter;"/>
    </g>
    <g id="line2d_22">
     <path d="M 525.428125 35.416562 
L 545.428125 35.416562 
" style="fill:none;stroke:#35db9d;stroke-linecap:square;stroke-width:1.5;"/>
    </g>
    <g id="line2d_23"/>
    <g id="text_19">
     <!-- .text -->
     <defs>
      <path d="M 10.6875 12.40625 
L 21 12.40625 
L 21 0 
L 10.6875 0 
z
" id="DejaVuSans-2e"/>
      <path d="M 54.890625 54.6875 
L 35.109375 28.078125 
L 55.90625 0 
L 45.3125 0 
L 29.390625 21.484375 
L 13.484375 0 
L 2.875 0 
L 24.125 28.609375 
L 4.6875 54.6875 
L 15.28125 54.6875 
L 29.78125 35.203125 
L 44.28125 54.6875 
z
" id="DejaVuSans-78"/>
     </defs>
     <g transform="translate(553.428125 38.916562)scale(0.1 -0.1)">
      <use xlink:href="#DejaVuSans-2e"/>
      <use x="31.787109" xlink:href="#DejaVuSans-74"/>
      <use x="70.996094" xlink:href="#DejaVuSans-65"/>
      <use x="132.503906" xlink:href="#DejaVuSans-78"/>
      <use x="191.683594" xlink:href="#DejaVuSans-74"/>
     </g>
    </g>
    <g id="line2d_24">
     <path d="M 525.428125 50.094687 
L 545.428125 50.094687 
" style="fill:none;stroke:#ed2a25;stroke-linecap:square;stroke-width:1.5;"/>
    </g>
    <g id="line2d_25"/>
    <g id="text_20">
     <!-- .rdata -->
     <g transform="translate(553.428125 53.594687)scale(0.1 -0.1)">
      <use xlink:href="#DejaVuSans-2e"/>
      <use x="31.787109" xlink:href="#DejaVuSans-72"/>
      <use x="72.884766" xlink:href="#DejaVuSans-64"/>
      <use x="136.361328" xlink:href="#DejaVuSans-61"/>
      <use x="197.640625" xlink:href="#DejaVuSans-74"/>
      <use x="236.849609" xlink:href="#DejaVuSans-61"/>
     </g>
    </g>
    <g id="line2d_26">
     <path d="M 525.428125 64.772812 
L 545.428125 64.772812 
" style="fill:none;stroke:#86b1e0;stroke-linecap:square;stroke-width:1.5;"/>
    </g>
    <g id="line2d_27"/>
    <g id="text_21">
     <!-- .data -->
     <g transform="translate(553.428125 68.272812)scale(0.1 -0.1)">
      <use xlink:href="#DejaVuSans-2e"/>
      <use x="31.787109" xlink:href="#DejaVuSans-64"/>
      <use x="95.263672" xlink:href="#DejaVuSans-61"/>
      <use x="156.542969" xlink:href="#DejaVuSans-74"/>
      <use x="195.751953" xlink:href="#DejaVuSans-61"/>
     </g>
    </g>
    <g id="line2d_28">
     <path d="M 525.428125 79.450937 
L 545.428125 79.450937 
" style="fill:none;stroke:#cc5da6;stroke-linecap:square;stroke-width:1.5;"/>
    </g>
    <g id="line2d_29"/>
    <g id="text_22">
     <!-- CODE -->
     <defs>
      <path d="M 64.40625 67.28125 
L 64.40625 56.890625 
Q 59.421875 61.53125 53.78125 63.8125 
Q 48.140625 66.109375 41.796875 66.109375 
Q 29.296875 66.109375 22.65625 58.46875 
Q 16.015625 50.828125 16.015625 36.375 
Q 16.015625 21.96875 22.65625 14.328125 
Q 29.296875 6.6875 41.796875 6.6875 
Q 48.140625 6.6875 53.78125 8.984375 
Q 59.421875 11.28125 64.40625 15.921875 
L 64.40625 5.609375 
Q 59.234375 2.09375 53.4375 0.328125 
Q 47.65625 -1.421875 41.21875 -1.421875 
Q 24.65625 -1.421875 15.125 8.703125 
Q 5.609375 18.84375 5.609375 36.375 
Q 5.609375 53.953125 15.125 64.078125 
Q 24.65625 74.21875 41.21875 74.21875 
Q 47.75 74.21875 53.53125 72.484375 
Q 59.328125 70.75 64.40625 67.28125 
z
" id="DejaVuSans-43"/>
      <path d="M 39.40625 66.21875 
Q 28.65625 66.21875 22.328125 58.203125 
Q 16.015625 50.203125 16.015625 36.375 
Q 16.015625 22.609375 22.328125 14.59375 
Q 28.65625 6.59375 39.40625 6.59375 
Q 50.140625 6.59375 56.421875 14.59375 
Q 62.703125 22.609375 62.703125 36.375 
Q 62.703125 50.203125 56.421875 58.203125 
Q 50.140625 66.21875 39.40625 66.21875 
z
M 39.40625 74.21875 
Q 54.734375 74.21875 63.90625 63.9375 
Q 73.09375 53.65625 73.09375 36.375 
Q 73.09375 19.140625 63.90625 8.859375 
Q 54.734375 -1.421875 39.40625 -1.421875 
Q 24.03125 -1.421875 14.8125 8.828125 
Q 5.609375 19.09375 5.609375 36.375 
Q 5.609375 53.65625 14.8125 63.9375 
Q 24.03125 74.21875 39.40625 74.21875 
z
" id="DejaVuSans-4f"/>
      <path d="M 19.671875 64.796875 
L 19.671875 8.109375 
L 31.59375 8.109375 
Q 46.6875 8.109375 53.6875 14.9375 
Q 60.6875 21.78125 60.6875 36.53125 
Q 60.6875 51.171875 53.6875 57.984375 
Q 46.6875 64.796875 31.59375 64.796875 
z
M 9.8125 72.90625 
L 30.078125 72.90625 
Q 51.265625 72.90625 61.171875 64.09375 
Q 71.09375 55.28125 71.09375 36.53125 
Q 71.09375 17.671875 61.125 8.828125 
Q 51.171875 0 30.078125 0 
L 9.8125 0 
z
" id="DejaVuSans-44"/>
     </defs>
     <g transform="translate(553.428125 82.950937)scale(0.1 -0.1)">
      <use xlink:href="#DejaVuSans-43"/>
      <use x="69.824219" xlink:href="#DejaVuSans-4f"/>
      <use x="148.535156" xlink:href="#DejaVuSans-44"/>
      <use x="225.537109" xlink:href="#DejaVuSans-45"/>
     </g>
    </g>
    <g id="line2d_30">
     <path d="M 525.428125 94.129062 
L 545.428125 94.129062 
" style="fill:none;stroke:#3819b5;stroke-linecap:square;stroke-width:1.5;"/>
    </g>
    <g id="line2d_31"/>
    <g id="text_23">
     <!-- .rsrc -->
     <g transform="translate(553.428125 97.629062)scale(0.1 -0.1)">
      <use xlink:href="#DejaVuSans-2e"/>
      <use x="31.787109" xlink:href="#DejaVuSans-72"/>
      <use x="72.900391" xlink:href="#DejaVuSans-73"/>
      <use x="125" xlink:href="#DejaVuSans-72"/>
      <use x="166.082031" xlink:href="#DejaVuSans-63"/>
     </g>
    </g>
    <g id="line2d_32">
     <path d="M 525.428125 108.807187 
L 545.428125 108.807187 
" style="fill:none;stroke:#a26e17;stroke-linecap:square;stroke-width:1.5;"/>
    </g>
    <g id="line2d_33"/>
    <g id="text_24">
     <!-- .reloc -->
     <g transform="translate(553.428125 112.307187)scale(0.1 -0.1)">
      <use xlink:href="#DejaVuSans-2e"/>
      <use x="31.787109" xlink:href="#DejaVuSans-72"/>
      <use x="72.869141" xlink:href="#DejaVuSans-65"/>
      <use x="134.392578" xlink:href="#DejaVuSans-6c"/>
      <use x="162.175781" xlink:href="#DejaVuSans-6f"/>
      <use x="223.357422" xlink:href="#DejaVuSans-63"/>
     </g>
    </g>
   </g>
  </g>
 </g>
 <defs>
  <clipPath id="pa40c3590eb">
   <rect height="388.08" width="558" x="34.240625" y="22.318125"/>
  </clipPath>
 </defs>
</svg>
